<?xml version="1.0" encoding="utf-8"?>
<!-- Generator: Adobe Illustrator 23.0.3, SVG Export Plug-In . SVG Version: 6.00 Build 0)  -->
<svg version="1.1" id="Capa_1" xmlns="http://www.w3.org/2000/svg" xmlns:xlink="http://www.w3.org/1999/xlink" x="0px" y="0px"
	 viewBox="0 0 512 512" style="enable-background:new 0 0 512 512;" xml:space="preserve">
<style type="text/css">
	.st0{opacity:0.25;fill:url(#SVGID_1_);}
	.st1{opacity:0.11;fill:#2626BC;enable-background:new    ;}
	.st2{fill:#D2DEFF;}
	.st3{fill:url(#SVGID_2_);}
	.st4{fill:url(#SVGID_3_);}
	.st5{fill:#02FFB3;}
	.st6{fill:url(#SVGID_4_);}
	.st7{opacity:0.56;fill:#FFFFFF;}
	.st8{fill:#94B5DD;}
	.st9{fill:#8399FE;}
	.st10{fill:#FFFFFF;}
	.st11{fill:#FFD18D;}
	.st12{fill:#FFAF10;}
	.st13{fill:#FF7EB8;}
	.st14{fill:#01ECA5;}
	.st15{fill:#0046C1;}
	.st16{fill:url(#SVGID_5_);}
	.st17{fill:url(#SVGID_6_);}
	.st18{fill:url(#SVGID_7_);}
</style>
<linearGradient id="SVGID_1_" gradientUnits="userSpaceOnUse" x1="222.2384" y1="704.1219" x2="284.2384" y2="895.4549" gradientTransform="matrix(1 0 0 1 0 -566)">
	<stop  offset="1.120000e-02" style="stop-color:#0575E6"/>
	<stop  offset="1" style="stop-color:#00F260"/>
</linearGradient>
<path class="st0" d="M501.9,127.8c-22.4-56.9-91.2-91-149.6-68.4c-68.6,26.5-43.3,131.2-105,153.1c-32.7,11.6-81-31.6-114-38.3
	C72.5,161.9,17.5,204.8,3.9,264.3c-13.8,60.6,8.4,141.6,75,158.1c79.3,19.6,120.7-51.7,187.2-72.2c68.3-21,144.3,28.6,200.8-31.8
	C508.7,273.7,524,184.1,501.9,127.8z"/>
<path class="st1" d="M431.6,143.4c0-38.8-31.1-70.4-69.8-71.1v-6c0-11.6-9.4-21-21-21H135.2c-11.6,0-21,9.4-21,21V226
	c-35,4.4-62.1,34.3-62.1,70.5s27.1,66.1,62.1,70.5v101.6c0,11.6,9.4,21,21,21h205.6c11.6,0,21-9.4,21-21V214.5
	C400.5,213.8,431.6,182.2,431.6,143.4L431.6,143.4z"/>
<path class="st1" d="M441.2,385.6l-24.5-25.9c-2-2.1-5.3-2.1-7.3,0L385,385.6c-3,3.2-0.8,8.4,3.6,8.4h12.1v38.3c0,2.8,2.2,5,5,5
	h14.7c2.8,0,5-2.2,5-5V394h12.1C441.9,394,444.2,388.8,441.2,385.6L441.2,385.6z"/>
<path class="st1" d="M70.3,210c2.8,0,5-2.2,5-5v-38.3h12.1c4.4,0,6.7-5.2,3.6-8.4l-24.5-25.9c-2-2.1-5.3-2.1-7.3,0l-24.5,25.9
	c-3,3.2-0.8,8.4,3.6,8.4h12.1V205c0,2.8,2.2,5,5,5H70.3z"/>
<rect x="152.1" y="332.5" class="st2" width="209.7" height="86.8"/>
<linearGradient id="SVGID_2_" gradientUnits="userSpaceOnUse" x1="111.0235" y1="249.5" x2="480.1784" y2="249.5">
	<stop  offset="1.120000e-02" style="stop-color:#0575E6"/>
	<stop  offset="1" style="stop-color:#00F260"/>
</linearGradient>
<path class="st3" d="M358.8,27.3H153.2c-11.6,0-21,9.4-21,21v402.4c0,11.6,9.4,21,21,21h205.6c11.6,0,21-9.4,21-21V48.3
	C379.8,36.7,370.4,27.3,358.8,27.3z M172.4,398.1c0,2-1.6,3.6-3.6,3.6h-6.5c-2,0-3.6-1.6-3.6-3.6v-7.8c0-2,1.6-3.6,3.6-3.6h6.5
	c2,0,3.6,1.6,3.6,3.6V398.1z M195,398.1c0,2-1.6,3.6-3.6,3.6h-6.5c-2,0-3.6-1.6-3.6-3.6v-7.8c0-2,1.6-3.6,3.6-3.6h6.5
	c2,0,3.6,1.6,3.6,3.6V398.1z M217.6,398.1c0,2-1.6,3.6-3.6,3.6h-6.5c-2,0-3.6-1.6-3.6-3.6v-7.8c0-2,1.6-3.6,3.6-3.6h6.5
	c2,0,3.6,1.6,3.6,3.6V398.1z M240.2,398.1c0,2-1.6,3.6-3.6,3.6h-6.5c-2,0-3.6-1.6-3.6-3.6v-7.8c0-2,1.6-3.6,3.6-3.6h6.5
	c2,0,3.6,1.6,3.6,3.6V398.1z M262.9,398.1c0,2-1.6,3.6-3.6,3.6h-6.5c-2,0-3.6-1.6-3.6-3.6v-18.7c0-2,1.6-3.6,3.6-3.6h6.5
	c2,0,3.6,1.6,3.6,3.6V398.1z M285.5,398.1c0,2-1.6,3.6-3.6,3.6h-6.5c-2,0-3.6-1.6-3.6-3.6v-25.9c0-2,1.6-3.6,3.6-3.6h6.5
	c2,0,3.6,1.6,3.6,3.6V398.1z M308.1,398.1c0,2-1.6,3.6-3.6,3.6H298c-2,0-3.6-1.6-3.6-3.6v-18.7c0-2,1.6-3.6,3.6-3.6h6.5
	c2,0,3.6,1.6,3.6,3.6V398.1z M330.7,398.1c0,2-1.6,3.6-3.6,3.6h-6.5c-2,0-3.6-1.6-3.6-3.6v-36.8c0-2,1.6-3.6,3.6-3.6h6.5
	c2,0,3.6,1.6,3.6,3.6V398.1z M353.4,398.1c0,2-1.6,3.6-3.6,3.6h-6.5c-2,0-3.6-1.6-3.6-3.6v-54.9c0-2,1.6-3.6,3.6-3.6h6.5
	c2,0,3.6,1.6,3.6,3.6V398.1z"/>
<linearGradient id="SVGID_3_" gradientUnits="userSpaceOnUse" x1="307.4" y1="371" x2="379.8" y2="371" gradientTransform="matrix(1 0 0 -1 0 514)">
	<stop  offset="1.120000e-02" style="stop-color:#0575E6"/>
	<stop  offset="1" style="stop-color:#00F260"/>
</linearGradient>
<path class="st4" d="M379.8,71.9v142.2c-0.4,0-0.9,0-1.3,0c-39.3,0-71.1-31.8-71.1-71.1s31.8-71.1,71.1-71.1
	C378.9,71.9,379.4,71.9,379.8,71.9z"/>
<path class="st5" d="M212.3,296.2c0,39.3-31.8,71.1-71.1,71.1c-3.1,0-6.1-0.2-9-0.6v-141c3-0.4,6-0.6,9-0.6
	C180.5,225.1,212.3,256.9,212.3,296.2L212.3,296.2z"/>
<linearGradient id="SVGID_4_" gradientUnits="userSpaceOnUse" x1="169.7" y1="338.05" x2="339.9" y2="338.05" gradientTransform="matrix(1 0 0 -1 0 514)">
	<stop  offset="1.120000e-02" style="stop-color:#0575E6"/>
	<stop  offset="1" style="stop-color:#00F260"/>
</linearGradient>
<path class="st6" d="M339.9,142.5v66.9c0,2.8-2.2,5-5,5H174.7c-2.8,0-5-2.2-5-5v-66.9c0-2.8,2.2-5,5-5h160.2
	C337.7,137.5,339.9,139.8,339.9,142.5L339.9,142.5z"/>
<path class="st7" d="M339.9,142.5v60.3c-19.6-12.7-32.5-34.7-32.5-59.8c0-1.9,0.1-3.7,0.2-5.5h27.3
	C337.7,137.5,339.9,139.8,339.9,142.5L339.9,142.5z"/>
<path class="st8" d="M379.8,81.5V48.3c0-11.6-9.4-21-21-21H153.2c-11.6,0-21,9.4-21,21v33.2H379.8z"/>
<path class="st9" d="M379.8,48.3v33.2h-21.9V48.3c0-11.6-9.4-21-21-21h21.9C370.4,27.3,379.8,36.7,379.8,48.3z"/>
<circle class="st10" cx="166.8" cy="55.5" r="5.6"/>
<circle class="st10" cx="186.7" cy="55.5" r="5.6"/>
<circle class="st10" cx="206.7" cy="55.5" r="5.6"/>
<circle class="st11" cx="378.5" cy="125.4" r="71.1"/>
<circle class="st11" cx="141.2" cy="278.6" r="71.1"/>
<path class="st12" d="M403,367.6l24.5-25.9c2-2.1,5.3-2.1,7.3,0l24.5,25.9c3,3.2,0.8,8.4-3.6,8.4h-12.1v38.3c0,2.8-2.2,5-5,5h-14.7
	c-2.8,0-5-2.2-5-5V376h-12.1C402.2,376,400,370.8,403,367.6L403,367.6z"/>
<path class="st12" d="M52.8,140.3l24.5-25.9c2-2.1,5.3-2.1,7.3,0l24.5,25.9c3,3.2,0.8,8.4-3.6,8.4H93.3V187c0,2.8-2.2,5-5,5H73.6
	c-2.8,0-5-2.2-5-5v-38.3H56.5C52.1,148.7,49.8,143.5,52.8,140.3z"/>
<path class="st10" d="M184.8,142.5h-16.7c-2.8,0-5-2.2-5-5s2.2-5,5-5h16.7c2.8,0,5,2.2,5,5S187.6,142.5,184.8,142.5z"/>
<path class="st10" d="M219.9,173.8h-51.8c-2.8,0-5-2.2-5-5s2.2-5,5-5h51.8c2.8,0,5,2.2,5,5S222.7,173.8,219.9,173.8z"/>
<path class="st10" d="M244.7,190.6h-76.5c-2.8,0-5-2.2-5-5s2.2-5,5-5h76.5c2.8,0,5,2.2,5,5S247.4,190.6,244.7,190.6z"/>
<path class="st9" d="M54.6,104.9c-3.7,0-7.5-1.4-10.3-4.3c-5.7-5.7-5.7-15,0-20.7c5.7-5.7,15-5.7,20.7,0c2.8,2.8,4.3,6.4,4.3,10.3
	s-1.5,7.6-4.3,10.3l0,0l0,0C62.1,103.4,58.3,104.9,54.6,104.9z M54.6,85.7c-1.2,0-2.4,0.4-3.3,1.3c-1.8,1.8-1.8,4.7,0,6.5
	s4.7,1.8,6.5,0l0,0c0.9-0.9,1.3-2,1.3-3.3c0-1.2-0.5-2.4-1.3-3.3C56.9,86.1,55.8,85.7,54.6,85.7z"/>
<path class="st9" d="M468.9,287.1c-3.7,0-7.5-1.4-10.3-4.3c-5.7-5.7-5.7-15,0-20.7s15-5.7,20.7,0s5.7,15,0,20.7l0,0
	C476.4,285.7,472.7,287.1,468.9,287.1L468.9,287.1z M475.7,279.3L475.7,279.3L475.7,279.3z M468.9,267.9c-1.2,0-2.4,0.4-3.3,1.3
	c-1.8,1.8-1.8,4.7,0,6.5s4.7,1.8,6.5,0s1.8-4.7,0-6.5C471.3,268.4,470.1,267.9,468.9,267.9L468.9,267.9z"/>
<path class="st13" d="M98.5,464.3c-3.7,0-7.5-1.4-10.3-4.3c-2.8-2.8-4.3-6.4-4.3-10.3s1.5-7.6,4.3-10.3c2.8-2.8,6.4-4.3,10.3-4.3
	s7.6,1.5,10.3,4.3s4.3,6.4,4.3,10.3s-1.5,7.6-4.3,10.3l0,0l0,0C106,462.9,102.2,464.3,98.5,464.3L98.5,464.3z M98.5,445.1
	c-1.2,0-2.4,0.5-3.3,1.3c-0.9,0.9-1.3,2-1.3,3.3s0.5,2.4,1.3,3.3c1.8,1.8,4.7,1.8,6.5,0l0,0c0.9-0.9,1.3-2,1.3-3.3s-0.5-2.4-1.3-3.3
	C100.9,445.6,99.7,445.1,98.5,445.1z"/>
<path class="st13" d="M91,50.1h-3.3v-3.3c0-2.8-2.2-5-5-5s-5,2.2-5,5v3.3h-3.3c-2.8,0-5,2.2-5,5s2.2,5,5,5h3.3v3.3c0,2.8,2.2,5,5,5
	s5-2.2,5-5v-3.3H91c2.8,0,5-2.2,5-5S93.7,50.1,91,50.1z"/>
<path class="st14" d="M485.4,333.4h-3.3v-3.3c0-2.8-2.2-5-5-5s-5,2.2-5,5v3.3h-3.3c-2.8,0-5,2.2-5,5s2.2,5,5,5h3.3v3.3
	c0,2.8,2.2,5,5,5s5-2.2,5-5v-3.3h3.3c2.8,0,5-2.2,5-5S488.2,333.4,485.4,333.4z"/>
<path class="st12" d="M378.5,179.3c-29.7,0-53.9-24.2-53.9-53.9s24.2-53.9,53.9-53.9s53.9,24.2,53.9,53.9S408.2,179.3,378.5,179.3z
	 M378.5,81.5c-24.2,0-43.9,19.7-43.9,43.9s19.7,43.9,43.9,43.9s43.9-19.7,43.9-43.9S402.7,81.5,378.5,81.5z"/>
<path class="st10" d="M384.7,120.4h-1.2v-9.3h6c2.8,0,5-2.2,5-5s-2.2-5-5-5h-6v-2.2c0-2.8-2.2-5-5-5s-5,2.2-5,5v2.2h-1.2
	c-8.1,0-14.7,6.6-14.7,14.7s6.6,14.7,14.7,14.7h1.2v9.3h-6c-2.8,0-5,2.2-5,5s2.2,5,5,5h6v2.2c0,2.8,2.2,5,5,5s5-2.2,5-5v-2.2h1.2
	c8.1,0,14.7-6.6,14.7-14.7S392.8,120.4,384.7,120.4z M372.2,120.4c-2.6,0-4.7-2.1-4.7-4.7s2.1-4.7,4.7-4.7h1.2v9.3L372.2,120.4
	L372.2,120.4z M384.7,139.7h-1.2v-9.3h1.2c2.6,0,4.7,2.1,4.7,4.7C389.4,137.7,387.3,139.7,384.7,139.7z"/>
<path class="st12" d="M141.2,332.5c-29.7,0-53.9-24.2-53.9-53.9s24.2-53.9,53.9-53.9s53.9,24.2,53.9,53.9S170.9,332.5,141.2,332.5z
	 M141.2,234.7c-24.2,0-43.9,19.7-43.9,43.9s19.7,43.9,43.9,43.9s43.9-19.7,43.9-43.9S165.4,234.7,141.2,234.7z"/>
<path class="st10" d="M147.5,273.6h-1.2v-9.3h6c2.8,0,5-2.2,5-5s-2.2-5-5-5h-6V252c0-2.8-2.2-5-5-5s-5,2.2-5,5v2.2H135
	c-8.1,0-14.7,6.6-14.7,14.7s6.6,14.7,14.7,14.7h1.2v9.3h-6c-2.8,0-5,2.2-5,5s2.2,5,5,5h6v2.2c0,2.8,2.2,5,5,5s5-2.2,5-5v-2.2h1.2
	c8.1,0,14.7-6.6,14.7-14.7S155.5,273.6,147.5,273.6z M135,273.6c-2.6,0-4.7-2.1-4.7-4.7s2.1-4.7,4.7-4.7h1.2v9.3H135V273.6z
	 M147.5,292.9h-1.2v-9.3h1.2c2.6,0,4.7,2.1,4.7,4.7C152.1,290.8,150,292.9,147.5,292.9z"/>
<g>
	<path class="st15" d="M256,442.8c1.3,0,2.6-0.5,3.5-1.5l5.8-5.8c2-2,1.9-5.1,0-7.1c-2-2-5.1-1.9-7.1,0l-2.3,2.3l-2.3-2.3
		c-2-2-5.1-2-7.1,0s-2,5.1,0,7.1l5.8,5.8C253.4,442.3,254.7,442.8,256,442.8L256,442.8z"/>
	<path class="st15" d="M420.9,188.6c2.3-1.5,2.9-4.6,1.4-6.9c-1.5-2.3-4.6-2.9-6.9-1.4c-10.9,7.3-23.6,11.2-36.8,11.2
		c-36.5,0-66.1-29.7-66.1-66.1s29.7-66.1,66.1-66.1c36.5,0,66.1,29.7,66.1,66.1c0,13-3.8,25.5-10.9,36.4c-1.5,2.3-0.9,5.4,1.4,6.9
		s5.4,0.9,6.9-1.4c8.2-12.4,12.6-26.9,12.6-41.9c0-39.8-30.8-72.6-69.8-75.8v-1.3c0-14.3-11.7-26-26-26H153.2c-14.3,0-26,11.7-26,26
		v76.2c0,2.8,2.2,5,5,5s5-2.2,5-5v-38h175.9c-6.8,11.4-10.7,24.7-10.7,38.9c0,40.7,32.2,74.1,72.4,76v249.3c0,8.8-7.2,16-16,16
		H153.2c-8.8,0-16-7.2-16-16v-96.1c1.3,0.1,2.7,0.1,4,0.1c42,0,76.1-34.1,76.1-76.1s-34.1-76.1-76.1-76.1c-1.4,0-2.7,0-4,0.1v-50
		c0-2.8-2.2-5-5-5s-5,2.2-5,5v51.2c-35.3,6.6-62.1,37.6-62.1,74.8s26.8,68.2,62.1,74.8v97.3c0,14.3,11.7,26,26,26h205.6
		c14.3,0,26-11.7,26-26V201.3C397.7,200.2,410.1,195.9,420.9,188.6L420.9,188.6z M137.2,76.5V48.3c0-8.8,7.2-16,16-16h205.6
		c8.8,0,16,7.2,16,16v1.1c-21.9,1-41.4,11.4-54.6,27.1H137.2z M75.1,278.6c0-36.5,29.7-66.1,66.1-66.1s66.1,29.7,66.1,66.1
		s-29.7,66.1-66.1,66.1S75.1,315,75.1,278.6z"/>
	<path class="st15" d="M462.8,364.2l-24.5-25.9c-1.9-2-4.5-3.1-7.3-3.1s-5.4,1.1-7.3,3.1l-24.5,25.9c-2.7,2.9-3.5,7.2-1.9,10.8
		c1.6,3.7,5.2,6,9.2,6h7.1v33.3c0,5.5,4.5,10,10,10h14.7c5.5,0,10-4.5,10-10V381h7.1c4,0,7.6-2.4,9.2-6
		C466.3,371.3,465.5,367.1,462.8,364.2z M443.4,371c-2.8,0-5,2.2-5,5v38.3h-14.7V376c0-2.8-2.2-5-5-5h-12.1l24.5-25.9l24.5,25.9
		H443.4z"/>
	<path class="st15" d="M73.6,197h14.7c5.5,0,10-4.5,10-10v-33.3h7.1c4,0,7.6-2.4,9.2-6c1.6-3.7,0.8-7.9-1.9-10.8L88.2,111
		c-1.9-2-4.5-3.1-7.3-3.1c-2.7,0-5.4,1.1-7.3,3.1l-24.5,25.9c-2.7,2.9-3.5,7.2-1.9,10.8c1.6,3.7,5.2,6,9.2,6h7.1V187
		C63.6,192.5,68.1,197,73.6,197L73.6,197z M56.5,143.7L81,117.8l24.5,25.9H93.3c-2.8,0-5,2.2-5,5V187H73.6v-38.3c0-2.8-2.2-5-5-5
		H56.5z"/>
</g>
<path class="st8" d="M286.3,137.5c0-9.2-7.5-16.6-16.6-16.6s-16.6,7.5-16.6,16.6c0,4.5,1.8,8.6,4.8,11.6c-2.9,3-4.8,7.1-4.8,11.6
	c0,2.8,2.2,5,5,5c2.8,0,5-2.2,5-5c0-3.6,3-6.6,6.6-6.6s6.6,3,6.6,6.6c0,2.8,2.2,5,5,5s5-2.2,5-5c0-4.5-1.8-8.6-4.8-11.6
	C284.5,146.2,286.3,142.1,286.3,137.5z M269.7,130.9c3.6,0,6.6,3,6.6,6.6s-3,6.6-6.6,6.6s-6.6-3-6.6-6.6S266.1,130.9,269.7,130.9z"
	/>
<linearGradient id="SVGID_5_" gradientUnits="userSpaceOnUse" x1="201.3176" y1="276.05" x2="475.9437" y2="276.05">
	<stop  offset="0" style="stop-color:#FFAF10"/>
	<stop  offset="0.9888" style="stop-color:#FFD18D"/>
</linearGradient>
<path class="st16" d="M422.6,306.1c-2,2-5.1,2-7.1,0L387.4,278H368c-4,0-7.8-1.6-10.6-4.4L338.8,255c-1-0.9-2.2-1.5-3.5-1.5h-24.7
	c-1.3,0-2.6,0.5-3.5,1.5l-49.2,49.2c-2.8,2.8-6.6,4.4-10.6,4.4h-36.1c1.4-3.2,2.6-6.6,3.5-10h32.6c1.3,0,2.6-0.5,3.5-1.5l49.2-49.2
	c2.8-2.8,6.6-4.4,10.6-4.4h24.7c4,0,7.8,1.6,10.6,4.4l18.6,18.6c1,1,2.2,1.5,3.5,1.5h21.5c1.3,0,2.6,0.5,3.5,1.5l29.6,29.6
	C424.6,301,424.6,304.2,422.6,306.1L422.6,306.1z"/>
<linearGradient id="SVGID_6_" gradientUnits="userSpaceOnUse" x1="217.2999" y1="242.1375" x2="445.7" y2="242.1375">
	<stop  offset="1.120000e-02" style="stop-color:#0046C1"/>
	<stop  offset="1" style="stop-color:#02B4A3"/>
</linearGradient>
<path class="st17" d="M444.2,209l-29.6,29.6c-2.8,2.8-6.6,4.4-10.6,4.4h-67.2c-1.3,0-2.6,0.5-3.5,1.5l-15.7,15.7
	c-2.8,2.8-6.6,4.4-10.6,4.4h-38.2c-1.3,0-2.6,0.5-3.5,1.5L252,279.4c-2.8,2.8-6.6,4.4-10.6,4.4h-24.1c0.1-1.7,0.2-3.4,0.2-5.1
	c0-1.6-0.1-3.3-0.2-4.9h24.1c1.3,0,2.6-0.5,3.5-1.5l13.3-13.3c2.8-2.8,6.6-4.4,10.6-4.4H307c1.3,0,2.6-0.5,3.5-1.5l15.7-15.7
	c2.8-2.8,6.6-4.4,10.6-4.4H404c1.3,0,2.6-0.5,3.5-1.5l29.6-29.6c2-1.9,5.1-1.9,7.1,0C446.2,203.9,446.2,207,444.2,209L444.2,209z"/>
<linearGradient id="SVGID_7_" gradientUnits="userSpaceOnUse" x1="195" y1="286.85" x2="444.6128" y2="286.85">
	<stop  offset="1.120000e-02" style="stop-color:#0046C1"/>
	<stop  offset="1" style="stop-color:#02B4A3"/>
</linearGradient>
<path class="st18" d="M443.2,249.9l-44.5,44.5c-2.8,2.8-6.6,4.4-10.6,4.4H344c-1.3,0-2.6,0.5-3.5,1.5L328,312.7
	c-2.8,2.8-6.6,4.4-10.6,4.4h-46.5c-1.3,0-2.6,0.5-3.5,1.5l-9.5,9.5c-2.8,2.8-6.6,4.4-10.6,4.4H195c3.1-3.1,5.9-6.4,8.4-10h43.8
	c1.3,0,2.6-0.5,3.5-1.5l9.5-9.5c2.8-2.8,6.6-4.4,10.6-4.4h46.5c1.3,0,2.6-0.5,3.5-1.5l12.5-12.5c2.8-2.8,6.6-4.4,10.6-4.4H388
	c1.3,0,2.6-0.5,3.5-1.5l44.5-44.5c2-2,5.1-2,7.1,0C445.1,244.7,445.1,247.9,443.2,249.9L443.2,249.9z"/>
</svg>
