<svg xmlns="http://www.w3.org/2000/svg" viewBox="0 0 512 512"><linearGradient id="idea_svg__a" gradientUnits="userSpaceOnUse" x1="195.32" y1="423.873" x2="322.32" y2="52.873" gradientTransform="matrix(1 0 0 -1 0 514)"><stop offset=".011" stop-color="#0575e6"/><stop offset="1" stop-color="#00f260"/></linearGradient><path d="M501.9 152.8c-22.4-56.9-91.2-91-149.6-68.4-66.6 25.8-44.5 131.7-105 153.1-32.7 11.6-81-31.6-114-38.3C72.5 187 17.5 229.9 3.9 289.3c-13.8 60.6 8.4 141.6 75 158.1 79.3 19.6 120.7-51.7 187.2-72.2 68.3-21 144.3 28.6 200.8-31.8 41.8-44.6 57.1-134.3 35-190.6z" opacity=".25" fill="url(#idea_svg__a)"/><path d="M374.3 391.1h-60.4V309c.1 0 .1.1.2.1 15.6 9 37.2 1 48.1-17.9 10.9-18.9 7.1-41.6-8.5-50.6-12.3-7.1-28.2-3.7-39.8 7.3v-26.2c0-5.5-4.5-10-10-10h-35.3c4.7-14.8 11.9-28.7 21.3-41.3 8.9-11.9 14.1-26.6 14.1-42.6 0-40.1-32.9-72.4-73.2-71.5-38.1.9-69.1 32.1-69.7 70.3-.3 16.8 5.3 32.3 14.7 44.6 9.4 12.2 16.4 25.9 20.8 40.5h-29.3c-4.6 0-8.6 3.2-9.7 7.7L136.9 305c-1.5 6.3 3.2 12.3 9.7 12.3h18.3l-4.5 72.9c-.4 5.8 4.2 10.6 10 10.6h46.4v44.9c0 5.5 4.5 10 10 10h53.3v13.8c0 5.1 4.2 9.3 9.3 9.3h84.9c5.1 0 9.3-4.2 9.3-9.3v-69c.1-5.2-4.1-9.4-9.3-9.4z" opacity=".11" fill="#2626bc"/><path d="M371.7 222.6c-12.3-7.1-28.2-3.7-39.8 7.3v-26.2c0-5.5-4.5-10-10-10H185.3c-4.6 0-8.6 3.2-9.7 7.7L154.9 287c-1.5 6.3 3.2 12.3 9.7 12.3h18.3l-4.5 72.9c-.4 5.8 4.2 10.6 10 10.6h46.4v44.9c0 5.5 4.5 10 10 10h77.1c5.5 0 10-4.5 10-10V291c.1 0 .1.1.2.1 15.6 9 37.2 1 48.1-17.9 10.9-18.9 7.1-41.6-8.5-50.6z" fill="#d2deff"/><path d="M212.6 260.6v20c0 5.5 4.5 10 10 10h55.8c5.5 0 10-4.5 10-10v-20h-75.8z" fill="#b7c5ff"/><path d="M401.7 382.4v69c0 5.1-4.2 9.3-9.3 9.3h-84.9c-5.1 0-9.3-4.2-9.3-9.3v-69c0-5.1 4.2-9.3 9.3-9.3h84.9c5.1 0 9.3 4.2 9.3 9.3z" fill="#94b5dd"/><path d="M339.3 402.4h-16.7c-2.8 0-5-2.2-5-5s2.2-5 5-5h16.7c2.8 0 5 2.2 5 5s-2.2 5-5 5z" fill="#dcfdee"/><path d="M401.7 382.4v69c0 5.1-4.2 9.3-9.3 9.3H376c5.1 0 9.3-4.2 9.3-9.3v-69c0-5.1-4.2-9.3-9.3-9.3h16.4c5.1 0 9.3 4.2 9.3 9.3z" opacity=".5" fill="#fff"/><path d="M401.7 400.5v51c0 5.1-4.2 9.3-9.3 9.3h-84.9c-5.1 0-9.3-4.2-9.3-9.3v-15.6h17.6c2.6 0 5.2-1 7.1-2.9l13.3-13.3c1.9-1.9 4.4-2.9 7.1-2.9h38.2c1.4 0 2.7-.3 3.9-.8 1.2-.5 2.2-1.2 3.1-2.1l13.2-13.4z" fill="#ffaf10"/><path d="M401.7 400.5v51c0 5.1-4.2 9.3-9.3 9.3H376c5.1 0 9.3-4.2 9.3-9.3v-35.6c1.2-.5 2.2-1.2 3.1-2.1l13.3-13.3z" opacity=".5" fill="#fff"/><linearGradient id="idea_svg__b" gradientUnits="userSpaceOnUse" x1="216.257" y1="344.805" x2="250.27" y2="344.805"><stop offset=".011" stop-color="#0575e6"/><stop offset="1" stop-color="#00f260"/></linearGradient><path d="M250.3 344.8c0 .5 0 1-.1 1.4-.7 8.7-8 15.6-16.9 15.6-3.5 0-6.7-1-9.3-2.8-4.6-3-7.7-8.3-7.7-14.2 0-9.4 7.6-17 17-17 9.3 0 17 7.6 17 17z" fill="url(#idea_svg__b)"/><linearGradient id="idea_svg__c" gradientUnits="userSpaceOnUse" x1="223.915" y1="352.629" x2="250.209" y2="352.629" gradientTransform="rotate(-.85 237.075 352.626) scale(1.00001)"><stop offset="0" stop-color="#00f260"/><stop offset=".989" stop-color="#0575e6"/></linearGradient><path d="M250.1 346c-.6 8.7-7.8 15.7-16.7 15.8-3.5.1-6.7-.9-9.4-2.7.6-8.7 7.8-15.7 16.7-15.8 3.5 0 6.7 1 9.4 2.7z" fill="url(#idea_svg__c)"/><linearGradient id="idea_svg__d" gradientUnits="userSpaceOnUse" x1="159.209" y1="133.36" x2="345.398" y2="133.36"><stop offset=".011" stop-color="#0575e6"/><stop offset="1" stop-color="#00f260"/></linearGradient><path d="M248.7 38.2c-38.1.9-69.1 32.1-69.7 70.3-.3 16.8 5.3 32.3 14.7 44.6 16.6 21.7 25.7 48.1 26.6 75.3h60.3c.9-27.6 10.7-54 27.3-76.2 8.9-11.9 14.1-26.6 14.1-42.6-.1-40-33-72.3-73.3-71.4z" fill="url(#idea_svg__d)"/><path d="M321.9 109.7c0 16-5.2 30.7-14.1 42.6-16.5 22.2-26.3 48.6-27.3 76.2h-14.8c.9-27.6 10.7-54 27.3-76.2 8.9-11.9 14.1-26.6 14.1-42.6 0-37-28.1-67.4-64.1-71.1 1.9-.2 3.7-.3 5.6-.4 40.4-.9 73.3 31.4 73.3 71.5z" opacity=".5" fill="#fff"/><path d="M278.4 276.9h-55.8c-5.5 0-10-4.5-10-10v-32.7c0-5.5 4.5-10 10-10h55.8c5.5 0 10 4.5 10 10v32.7c0 5.5-4.5 10-10 10z" fill="#dcfdee"/><path d="M394.2 345.4c-3.7 0-7.5-1.4-10.3-4.3-5.7-5.7-5.7-15 0-20.6 2.8-2.8 6.4-4.3 10.3-4.3s7.6 1.5 10.3 4.3c5.7 5.7 5.7 15 0 20.6-2.8 2.9-6.5 4.3-10.3 4.3zm6.8-7.8zm-6.8-11.4c-1.2 0-2.4.5-3.3 1.3-1.8 1.8-1.8 4.7 0 6.5 1.8 1.8 4.7 1.8 6.5 0 1.8-1.8 1.8-4.7 0-6.5-.8-.8-1.9-1.3-3.2-1.3zM424.7 240.9c-3.7 0-7.5-1.4-10.3-4.3-5.7-5.7-5.7-15 0-20.7 5.7-5.7 15-5.7 20.7 0 5.7 5.7 5.7 15 0 20.7-2.9 2.9-6.7 4.3-10.4 4.3zm6.8-7.8zm-6.8-11.4c-1.2 0-2.4.4-3.3 1.3-1.8 1.8-1.8 4.7 0 6.5 1.8 1.8 4.7 1.8 6.5 0 1.8-1.8 1.8-4.7 0-6.5-.9-.8-2-1.3-3.2-1.3z" fill="#8399fe"/><path d="M126.3 265.2H123v-3.3c0-2.8-2.2-5-5-5s-5 2.2-5 5v3.3h-3.3c-2.8 0-5 2.2-5 5s2.2 5 5 5h3.3v3.3c0 2.8 2.2 5 5 5s5-2.2 5-5v-3.3h3.3c2.8 0 5-2.2 5-5s-2.2-5-5-5zM462.3 243.6H459v-3.3c0-2.8-2.2-5-5-5s-5 2.2-5 5v3.3h-3.3c-2.8 0-5 2.2-5 5s2.2 5 5 5h3.3v3.2c0 2.8 2.2 5 5 5s5-2.2 5-5v-3.3h3.3c2.8 0 5-2.2 5-5s-2.3-4.9-5-4.9z" fill="#ff7eb8"/><path d="M124.2 154.7H121v-3.3c0-2.8-2.2-5-5-5s-5 2.2-5 5v3.3h-3.3c-2.8 0-5 2.2-5 5s2.2 5 5 5h3.3v3.3c0 2.8 2.2 5 5 5s5-2.2 5-5v-3.3h3.3c2.8 0 5-2.2 5-5s-2.3-5-5.1-5z" fill="#01eca5"/><path d="M365.4 198.6h-15.5c-2.8 0-5-2.2-5-5s2.2-5 5-5h15.5c2.8 0 5 2.2 5 5s-2.3 5-5 5zM399.4 198.6h-15.5c-2.8 0-5-2.2-5-5s2.2-5 5-5h15.5c2.8 0 5 2.2 5 5s-2.3 5-5 5zM125.8 198.6h-15.5c-2.8 0-5-2.2-5-5s2.2-5 5-5h15.5c2.8 0 5 2.2 5 5s-2.2 5-5 5zM159.8 198.6h-15.5c-2.8 0-5-2.2-5-5s2.2-5 5-5h15.5c2.8 0 5 2.2 5 5s-2.2 5-5 5zM182.8 442.6h-15.5c-2.8 0-5-2.2-5-5s2.2-5 5-5h15.5c2.8 0 5 2.2 5 5s-2.2 5-5 5zM216.8 442.6h-15.5c-2.8 0-5-2.2-5-5s2.2-5 5-5h15.5c2.8 0 5 2.2 5 5s-2.2 5-5 5zM264.3 346.8c-2.8 0-5-2.2-5-5 0-12.7-10.3-23-23-23-2.8 0-5-2.2-5-5s2.2-5 5-5c18.2 0 33 14.8 33 33 0 2.8-2.3 5-5 5z" fill="#8399fe"/><path d="M264.3 156c-2.8 0-5 2.2-5 5v9.2c-2.7 1.6-5.7 2.4-8.8 2.4s-6.1-.8-8.8-2.4V161c0-2.8-2.2-5-5-5s-5 2.2-5 5v63.3c0 2.8 2.2 5 5 5s5-2.2 5-5V207c2.8 1 5.8 1.5 8.8 1.5s6-.5 8.8-1.5v17.3c0 2.8 2.2 5 5 5s5-2.2 5-5V161c0-2.8-2.3-5-5-5zm-5 40c-2.7 1.6-5.7 2.4-8.8 2.4s-6.1-.8-8.8-2.4v-14.8c2.8 1 5.8 1.5 8.8 1.5s6-.5 8.8-1.5V196z" fill="#ffaf10"/><g fill="#0046c1"><path d="M392.3 368.1h-84.9c-7.9 0-14.3 6.4-14.3 14.3v50.2h-48.3c-2.8 0-5-2.2-5-5v-39.9h20.3c4 0 7.8-1.6 10.6-4.4l3.4-3.4c2-2 2-5.1 0-7.1s-5.1-2-7.1 0l-3.4 3.4c-.9.9-2.2 1.5-3.5 1.5h-71.6c-1.4 0-2.7-.6-3.6-1.6-1-1-1.4-2.3-1.3-3.7l4.2-68.2h5.2c5.9 0 11.2-3.4 13.6-8.8l.5-1.2c1.1-2.5 0-5.5-2.5-6.6-2.5-1.1-5.5 0-6.6 2.5l-.5 1.2c-.8 1.8-2.6 2.9-4.6 2.9h-28.3c-1.5 0-3-.7-3.9-1.9s-1.3-2.8-.9-4.3l20.7-85.6c.5-2.3 2.5-3.8 4.9-3.8h25.5c2 7.4 3.4 15 4.1 22.7-4.4 2.6-7.3 7.4-7.3 12.8v32.7c0 8.3 6.7 15 15 15h55.8c8.3 0 15-6.7 15-15v-32.7c0-5.4-2.9-10.2-7.3-12.8.7-7.7 2.1-15.3 4.3-22.7h31.6c2.8 0 5 2.2 5 5v26.2c0 2 1.2 3.8 3 4.6 1.8.8 4 .4 5.4-1 10.2-9.7 23.8-12.4 33.8-6.6 13.2 7.6 16.2 27.3 6.7 43.8-4.7 8.1-11.7 14.3-19.7 17.3-7.6 2.8-15.3 2.4-21.5-1.1l-.2-.1c-1.5-.9-3.5-.9-5 0-1.6.9-2.5 2.5-2.5 4.3v54c0 2.8 2.2 5 5 5s5-2.2 5-5v-46.4c7.1 2.1 15 1.7 22.8-1.2 10.2-3.8 19-11.5 24.9-21.6 12.3-21.3 7.6-47.1-10.4-57.5-11.1-6.4-25.2-5.6-37.3 1.6v-16.2c0-8.3-6.7-15-15-15h-28.3c4.4-11.7 10.5-23 18.2-33.4 9.9-13.3 15.1-29 15.1-45.6 0-20.8-8.2-40.2-23-54.7-14.9-14.5-34.5-22.2-55.3-21.7-19.7.5-38.3 8.5-52.4 22.7-14 14.1-21.9 32.8-22.3 52.5-.3 17.5 5.2 34 15.8 47.8 7.6 9.9 13.6 20.8 17.8 32.4h-22.3c-7 0-12.9 4.7-14.6 11.5L150 285.7c-1.1 4.5-.1 9.2 2.8 12.8 2.9 3.6 7.2 5.7 11.8 5.7h13l-4.1 67.6c-.3 4.1 1.2 8.2 4 11.2s6.8 4.7 10.9 4.7h41.4v39.9c0 8.3 6.7 15 15 15h48.3v8.8c0 7.9 6.4 14.3 14.3 14.3H338c2.8 0 5-2.2 5-5s-2.2-5-5-5h-30.5c-2.4 0-4.3-1.9-4.3-4.3v-10.6h12.6c4 0 7.8-1.6 10.6-4.4l13.3-13.3c1-1 2.2-1.5 3.6-1.5h38.2c2 0 4-.4 5.9-1.2 1.8-.8 3.4-1.8 4.7-3.2l4.7-4.7v38.9c0 2.4-1.9 4.3-4.3 4.3H366c-2.8 0-5 2.2-5 5s2.2 5 5 5h26.3c7.9 0 14.3-6.4 14.3-14.3v-69c.1-7.9-6.4-14.3-14.3-14.3zM283.4 266.9c0 2.8-2.2 5-5 5h-55.8c-2.8 0-5-2.2-5-5v-32.7c0-2.8 2.2-5 5-5h55.8c2.8 0 5 2.2 5 5v32.7zM184 108.6c.3-17.1 7.2-33.4 19.4-45.7 12.2-12.3 28.4-19.3 45.5-19.7 18.1-.5 35.1 6.3 48.1 18.9 12.9 12.6 20 29.5 20 47.6 0 14.4-4.5 28.1-13.1 39.6-15.6 20.9-25.1 45-27.6 69.9h-51.5c-2.5-25.4-11.8-49.2-27-69.1-9.3-12-14.1-26.3-13.8-41.5zm200.8 301.6c-.4.4-1 .8-1.5 1-.6.3-1.3.4-2 .4h-38.2c-4 0-7.8 1.6-10.6 4.4l-13.3 13.3c-.9.9-2.2 1.5-3.5 1.5h-12.6v-48.4c0-2.4 1.9-4.3 4.3-4.3h84.9c2.4 0 4.3 1.9 4.3 4.3v16l-11.8 11.8zM345.9 108.1c0 2.8 2.2 5 5 5h10.2c2.8 0 5-2.2 5-5s-2.2-5-5-5h-10.2c-2.7 0-5 2.3-5 5zM345.2 90.3c1 0 2-.3 2.9-.9l10.2-7.4c2.2-1.6 2.7-4.7 1.1-7-1.6-2.2-4.7-2.7-7-1.1l-10.2 7.4c-2.2 1.6-2.7 4.7-1.1 7 1 1.3 2.5 2 4.1 2z"/><path d="M348.1 126.9c-2.2-1.6-5.4-1.1-7 1.1-1.6 2.2-1.1 5.4 1.1 7l10.2 7.4c.9.6 1.9.9 2.9.9 1.5 0 3.1-.7 4.1-2.1 1.6-2.2 1.1-5.4-1.1-7l-10.2-7.3zM151.6 108.1c0-2.8-2.2-5-5-5h-10.2c-2.8 0-5 2.2-5 5s2.2 5 5 5h10.2c2.8 0 5-2.2 5-5zM139.2 82l10.2 7.4c.9.6 1.9.9 2.9.9 1.6 0 3.1-.7 4.1-2.1 1.6-2.2 1.1-5.4-1.1-7L145 73.9c-2.2-1.6-5.4-1.1-7 1.1-1.6 2.2-1.1 5.3 1.2 7zM156.4 128c-1.6-2.2-4.7-2.7-7-1.1l-10.2 7.4c-2.2 1.6-2.7 4.7-1.1 7 1 1.4 2.5 2.1 4.1 2.1 1 0 2-.3 2.9-.9l10.2-7.4c2.2-1.7 2.7-4.9 1.1-7.1z"/></g><linearGradient id="idea_svg__e" gradientUnits="userSpaceOnUse" x1="227.513" y1="242.328" x2="273.032" y2="242.328"><stop offset=".011" stop-color="#0575e6"/><stop offset="1" stop-color="#00f260"/></linearGradient><path d="M268 247.3h-35.5c-2.8 0-5-2.2-5-5s2.2-5 5-5H268c2.8 0 5 2.2 5 5s-2.2 5-5 5z" fill="url(#idea_svg__e)"/><linearGradient id="idea_svg__f" gradientUnits="userSpaceOnUse" x1="227.513" y1="259.315" x2="273.032" y2="259.315"><stop offset=".011" stop-color="#0575e6"/><stop offset="1" stop-color="#00f260"/></linearGradient><path d="M268 264.3h-35.5c-2.8 0-5-2.2-5-5s2.2-5 5-5H268c2.8 0 5 2.2 5 5s-2.2 5-5 5z" fill="url(#idea_svg__f)"/></svg>