<?xml version="1.0" encoding="utf-8"?>
<!-- Generator: Adobe Illustrator 23.0.3, SVG Export Plug-In . SVG Version: 6.00 Build 0)  -->
<svg version="1.1" id="Capa_1" xmlns="http://www.w3.org/2000/svg" xmlns:xlink="http://www.w3.org/1999/xlink" x="0px" y="0px"
	 viewBox="0 0 512 512" style="enable-background:new 0 0 512 512;" xml:space="preserve">
<style type="text/css">
	.st0{opacity:0.25;fill:url(#SVGID_1_);}
	.st1{opacity:0.11;fill:#2626BC;enable-background:new    ;}
	.st2{fill:#FF7EB8;}
	.st3{fill:#FFDBED;}
	.st4{fill:url(#SVGID_2_);}
	.st5{fill:#94B5DD;}
	.st6{fill:#D2DEFF;}
	.st7{fill:#FFAF10;}
	.st8{fill:#FFFFFF;}
	.st9{fill:#8399FE;}
	.st10{fill:#01ECA5;}
	.st11{fill:#0046C1;}
	.st12{fill:url(#SVGID_3_);}
	.st13{fill:url(#SVGID_4_);}
</style>
<linearGradient id="SVGID_1_" gradientUnits="userSpaceOnUse" x1="-40.5297" y1="1200.9044" x2="478.5942" y2="530.2658" gradientTransform="matrix(1 0 0 1 0 -566)">
	<stop  offset="1.120000e-02" style="stop-color:#0575E6"/>
	<stop  offset="1" style="stop-color:#00F260"/>
</linearGradient>
<path class="st0" d="M38.1,134.7C58.1,77,95.7-23.1,175.9,4.8c31.2,10.9,41,52.2,72.4,57.3c29.6,4.9,54.7-24.3,82.9-29.8
	c35-6.9,72.1,2.3,85.4,36.5c15.9,40.9-31,86.7-19.7,124.1c18.7,61.6,87.9-40.5,100.2,58.9c17.3,139-136.8,386.5-240.6,183
	C203.9,331.6,148.7,404,66.6,352.6C-11.4,303.9,12.8,208,38.1,134.7L38.1,134.7z"/>
<path class="st1" d="M401.4,373.5h-20.7V180.4c0-11.5-9.3-20.9-20.8-20.9h-15.7c1.2-3.5,1.9-7.3,2.2-11.1
	c1.7-27-20.5-49.2-47.5-47.5c-21.8,1.4-39.7,18.8-41.5,40.6c-0.5,6.3,0.3,12.4,2.1,18H92c-11.5,0-20.8,9.3-20.8,20.9v193.1H50.5
	c-6.9,0-12.5,5.6-12.5,12.5v11.5c0,12.1,9.8,21.9,21.9,21.9H392c12.1,0,21.9-9.8,21.9-21.9V386C413.9,379.1,408.3,373.5,401.4,373.5
	L401.4,373.5z"/>
<path class="st2" d="M370.6,142.4c-1.4,21.8-18.8,39.7-40.6,41.5c-10.6,0.9-20.5-1.9-28.5-7.2l-14.2,6.3c-2.9,1.3-5.9-1.7-4.6-4.6
	l6.3-14.2c-4.8-7.3-7.6-16.1-7.4-25.5h89.2C370.7,139.8,370.7,141.1,370.6,142.4z"/>
<rect x="167.4" y="252.5" class="st3" width="219.5" height="64.9"/>
<linearGradient id="SVGID_2_" gradientUnits="userSpaceOnUse" x1="41.1471" y1="255.85" x2="464.6875" y2="255.85">
	<stop  offset="1.120000e-02" style="stop-color:#0575E6"/>
	<stop  offset="1" style="stop-color:#00F260"/>
</linearGradient>
<path class="st4" d="M384.2,138.5H116.3c-11.5,0-20.8,9.3-20.8,20.8v213.9H400c2.8,0,5-2.2,5-5V159.4
	C405,147.9,395.7,138.5,384.2,138.5z M204.4,303.8c0,1.7-1.3,3-3,3H196c-1.7,0-3-1.3-3-3v-6.5c0-1.7,1.3-3,3-3h5.4c1.7,0,3,1.3,3,3
	V303.8z M225.6,303.8c0,1.7-1.3,3-3,3h-5.4c-1.7,0-3-1.3-3-3v-6.5c0-1.7,1.3-3,3-3h5.4c1.7,0,3,1.3,3,3V303.8z M246.9,303.8
	c0,1.7-1.3,3-3,3h-5.4c-1.7,0-3-1.3-3-3v-6.5c0-1.7,1.3-3,3-3h5.4c1.7,0,3,1.3,3,3V303.8z M268.1,303.8c0,1.7-1.3,3-3,3h-5.4
	c-1.7,0-3-1.3-3-3v-6.5c0-1.7,1.3-3,3-3h5.4c1.7,0,3,1.3,3,3V303.8z M289.4,303.8c0,1.7-1.3,3-3,3H281c-1.7,0-3-1.3-3-3v-15.5
	c0-1.7,1.3-3,3-3h5.4c1.7,0,3,1.3,3,3V303.8z M310.6,303.8c0,1.7-1.3,3-3,3h-5.4c-1.7,0-3-1.3-3-3v-21.5c0-1.7,1.3-3,3-3h5.4
	c1.7,0,3,1.3,3,3V303.8z M331.9,303.8c0,1.7-1.3,3-3,3h-5.4c-1.7,0-3-1.3-3-3v-15.5c0-1.7,1.3-3,3-3h5.4c1.7,0,3,1.3,3,3V303.8z
	 M353.1,303.8c0,1.7-1.3,3-3,3h-5.4c-1.7,0-3-1.3-3-3v-30.5c0-1.7,1.3-3,3-3h5.4c1.7,0,3,1.3,3,3V303.8z M374.4,303.8
	c0,1.7-1.3,3-3,3H366c-1.7,0-3-1.3-3-3v-45.5c0-1.7,1.3-3,3-3h5.4c1.7,0,3,1.3,3,3V303.8z"/>
<path class="st5" d="M405,327.7v40.6c0,2.8-2.2,5-5,5H95.5v-45.6H405z"/>
<path class="st6" d="M438.2,365v11.5c0,12.1-9.8,21.9-21.9,21.9H84.2c-12.1,0-21.9-9.8-21.9-21.9V365c0-6.9,5.6-12.5,12.5-12.5
	h107.1c1.8,0,3.5,1,4.4,2.7l6.6,12.3c0.9,1.6,2.6,2.7,4.4,2.7h106c1.8,0,3.5-1,4.4-2.7l6.6-12.3c0.9-1.6,2.6-2.7,4.4-2.7h107.1
	C432.6,352.5,438.2,358.1,438.2,365L438.2,365z"/>
<path class="st6" d="M438.2,365v11.5c0,12.1-9.8,21.9-21.9,21.9h-14.7c12.1,0,21.9-9.8,21.9-21.9V365c0-6.9-5.6-12.5-12.5-12.5h14.7
	C432.6,352.5,438.2,358.1,438.2,365z"/>
<path class="st7" d="M370.6,127.4c1.7-27-20.5-49.2-47.5-47.5c-21.8,1.4-39.7,18.8-41.5,40.6c-0.9,10.6,1.9,20.4,7.2,28.5l-6.3,14.2
	c-1.3,2.9,1.7,5.9,4.6,4.6l14.2-6.3c8,5.3,17.9,8.1,28.5,7.2C351.8,167.1,369.2,149.2,370.6,127.4L370.6,127.4z"/>
<circle class="st8" cx="306.2" cy="124.5" r="5.6"/>
<circle class="st8" cx="326.1" cy="124.5" r="5.6"/>
<circle class="st8" cx="346" cy="124.5" r="5.6"/>
<path class="st3" d="M204.8,181.2H188c-3.1,0-5.7-2.5-5.7-5.7s2.5-5.7,5.7-5.7h16.8c3.1,0,5.7,2.5,5.7,5.7S208,181.2,204.8,181.2z"
	/>
<path class="st3" d="M285.8,202.5H188c-3.1,0-5.7-2.5-5.7-5.7s2.5-5.7,5.7-5.7h97.8c3.1,0,5.7,2.5,5.7,5.7
	C291.5,199.9,289,202.5,285.8,202.5z"/>
<path class="st7" d="M143.9,370.7h-43.3c-2.8,0-5-2.2-5-5v-13.1h53.3v13.1C148.9,368.4,146.6,370.7,143.9,370.7z"/>
<path class="st7" d="M399.8,370.7h-43.3c-2.8,0-5-2.2-5-5v-13.1h53.3v13.1C404.8,368.4,402.5,370.7,399.8,370.7z"/>
<path class="st7" d="M164.3,214.1h-21c0.7-1.6,1.1-3.4,1.1-5.2v-7.2h7.3c2.8,0,5-2.2,5-5s-2.2-5-5-5h-7.3v-7.2
	c0-3.4,2.7-6.1,6.1-6.1s6.1,2.7,6.1,6.1c0,2.8,2.2,5,5,5s5-2.2,5-5c0-8.9-7.2-16.1-16.1-16.1s-16.1,7.2-16.1,16.1v7.2H133
	c-2.8,0-5,2.2-5,5s2.2,5,5,5h1.4v7.2c0,0.8-0.3,1.6-0.9,2.2c-2.2,2.2-2.8,5.4-1.6,8.3s3.9,4.7,7,4.7h25.5c2.8,0,5-2.2,5-5
	S167,214.1,164.3,214.1L164.3,214.1z"/>
<path class="st9" d="M167.5,57.2h-3.3V54c0-2.8-2.2-5-5-5s-5,2.2-5,5v3.3H151c-2.8,0-5,2.2-5,5s2.2,5,5,5h3.3v3.3c0,2.8,2.2,5,5,5
	s5-2.2,5-5v-3.3h3.3c2.8,0,5-2.2,5-5S170.2,57.2,167.5,57.2z"/>
<path class="st2" d="M123.2,111.2c-3.7,0-7.5-1.4-10.3-4.3c-5.7-5.7-5.7-15,0-20.7s15-5.7,20.7,0s5.7,15,0,20.7
	C130.6,109.8,126.9,111.2,123.2,111.2L123.2,111.2z M123.2,92c-1.2,0-2.4,0.4-3.3,1.3c-1.8,1.8-1.8,4.7,0,6.5s4.7,1.8,6.5,0
	s1.8-4.7,0-6.5C125.5,92.4,124.3,92,123.2,92z"/>
<path class="st9" d="M441.2,293.8c-3.7,0-7.5-1.4-10.3-4.3c-5.7-5.7-5.7-15,0-20.7s15-5.7,20.7,0s5.7,15,0,20.7
	C448.7,292.4,444.9,293.8,441.2,293.8L441.2,293.8z M448,286L448,286L448,286z M441.2,274.6c-1.2,0-2.4,0.4-3.3,1.3
	c-1.8,1.8-1.8,4.7,0,6.5s4.7,1.8,6.5,0s1.8-4.7,0-6.5C443.6,275.1,442.4,274.6,441.2,274.6L441.2,274.6z"/>
<path class="st10" d="M211.5,453.8c-8.1,0-14.6-6.6-14.6-14.6s6.6-14.6,14.6-14.6s14.6,6.6,14.6,14.6S219.5,453.8,211.5,453.8z
	 M211.5,434.6c-2.5,0-4.6,2.1-4.6,4.6s2.1,4.6,4.6,4.6s4.6-2.1,4.6-4.6S214,434.6,211.5,434.6z"/>
<path class="st2" d="M342.1,453.2h-3.3V450c0-2.8-2.2-5-5-5s-5,2.2-5,5v3.3h-3.3c-2.8,0-5,2.2-5,5s2.2,5,5,5h3.3v3.3
	c0,2.8,2.2,5,5,5s5-2.2,5-5v-3.3h3.3c2.8,0,5-2.2,5-5S344.9,453.2,342.1,453.2z"/>
<g>
	<path class="st11" d="M425.7,347.5H410v-19.8c0-2.8-2.2-5-5-5l0,0l0,0H100.5V159.4c0-8.7,7.1-15.8,15.8-15.8h136.9c2.8,0,5-2.2,5-5
		s-2.2-5-5-5H116.3c-14.3,0-25.8,11.6-25.8,25.8v188.2H74.8c-9.6,0-17.5,7.8-17.5,17.5v11.5c0,14.8,12.1,26.9,26.9,26.9h332.1
		c14.8,0,26.9-12.1,26.9-26.9V365C443.2,355.4,435.3,347.5,425.7,347.5L425.7,347.5z M399.8,365.7h-43.3v-8.1h43.3V365.7z
		 M400,332.7v14.8h-81.4c-3.7,0-7.1,2-8.8,5.3l-6.6,12.3h-106l-6.6-12.3c-1.7-3.3-5.1-5.3-8.8-5.3h-81.4v-14.8H400L400,332.7z
		 M143.9,365.7h-43.3v-8.1h43.3V365.7z M433.2,376.5c0,9.3-7.6,16.9-16.9,16.9H84.2c-9.3,0-16.9-7.6-16.9-16.9V365
		c0-4.1,3.4-7.5,7.5-7.5h15.8v8.1c0,5.5,4.5,10,10,10h43.3c5.5,0,10-4.5,10-10v-8.1h27.9l6.6,12.3c1.7,3.3,5.1,5.3,8.8,5.3h106
		c3.7,0,7.1-2,8.8-5.3l6.6-12.3h27.8v8.1c0,5.5,4.5,10,10,10h43.3c5.5,0,10-4.5,10-10v-8.1h15.9c4.1,0,7.5,3.4,7.5,7.5L433.2,376.5
		L433.2,376.5z"/>
	<path class="st11" d="M278.1,161.3c-1.4,3.2-0.7,7,1.8,9.5s6.2,3.2,9.5,1.8l11.8-5.2c7.6,4.5,16.1,6.8,25,6.8
		c1.4,0,2.9-0.1,4.4-0.2c18.7-1.6,34.5-13.7,41.5-30.4h12.3c8.7,0,15.8,7.1,15.8,15.8v138.8c0,2.8,2.2,5,5,5s5-2.2,5-5V159.4
		c0-14.3-11.6-25.8-25.8-25.8h-9.3c0.4-1.9,0.6-3.8,0.7-5.8c0.9-14.3-4.3-28.3-14.4-38.3S337.1,74.1,322.9,75
		c-24.3,1.6-44.1,21-46.2,45.2c-0.9,10.4,1.4,20.5,6.6,29.3L278.1,161.3z M286.7,121c1.6-19.3,17.5-34.8,36.8-36.1
		c11.4-0.7,22.6,3.5,30.6,11.5c8.1,8.1,12.2,19.2,11.5,30.6c-1.2,19.4-16.7,35.2-36.1,36.8c-9.1,0.8-17.8-1.5-25.3-6.4
		c-0.8-0.6-1.8-0.8-2.8-0.8c-0.7,0-1.4,0.1-2,0.4l-10.7,4.7l4.7-10.7c0.7-1.6,0.5-3.4-0.4-4.8C288.1,138.8,285.9,130.1,286.7,121
		L286.7,121z"/>
	<path class="st11" d="M241.6,353.7h17.3c2.8,0,5-2.2,5-5s-2.2-5-5-5h-17.3c-2.8,0-5,2.2-5,5S238.8,353.7,241.6,353.7L241.6,353.7z"
		/>
</g>
<linearGradient id="SVGID_3_" gradientUnits="userSpaceOnUse" x1="519.1095" y1="278.95" x2="72.1723" y2="278.95" gradientTransform="matrix(1 0 0 -1 0 514)">
	<stop  offset="1.120000e-02" style="stop-color:#FFAF10"/>
	<stop  offset="1" style="stop-color:#FFD18D"/>
</linearGradient>
<path class="st12" d="M269,267.6H142.9c-2.8,0-5-2.2-5-5s2.2-5,5-5H269c1.3,0,2.6-0.5,3.5-1.5l49.2-49.2c2.8-2.8,6.6-4.4,10.6-4.4
	H357c4,0,7.8,1.6,10.6,4.4l25.5,25.5c0.9,0.9,2.2,1.5,3.5,1.5h30.5c2.8,0,5,2.2,5,5s-2.2,5-5,5h-30.5c-4,0-7.8-1.6-10.6-4.4
	L360.6,214c-0.9-0.9-2.2-1.5-3.5-1.5h-24.7c-1.3,0-2.6,0.5-3.5,1.5l-49.2,49.2C276.8,266.1,273,267.6,269,267.6z"/>
<linearGradient id="SVGID_4_" gradientUnits="userSpaceOnUse" x1="128.9169" y1="211.0565" x2="486.9453" y2="372.6" gradientTransform="matrix(1 0 0 -1 0 514)">
	<stop  offset="1.120000e-02" style="stop-color:#0046C1"/>
	<stop  offset="1" style="stop-color:#02B4A3"/>
</linearGradient>
<path class="st13" d="M142.9,307.8c-1.3,0-2.6-0.5-3.5-1.5c-2-2-2-5.1,0-7.1l62.2-62.2c2.8-2.8,6.6-4.4,10.6-4.4h50.9
	c1.3,0,2.6-0.5,3.5-1.5l13.3-13.3c2.8-2.8,6.6-4.4,10.6-4.4h38.2c1.3,0,2.6-0.5,3.5-1.5l15.7-15.7c2.8-2.8,6.6-4.4,10.6-4.4h67.2
	c1.3,0,2.6-0.5,3.5-1.5l29.6-29.6c2-2,5.1-2,7.1,0s2,5.1,0,7.1l-29.6,29.6c-2.8,2.8-6.6,4.4-10.6,4.4h-67.2c-1.3,0-2.6,0.5-3.5,1.5
	L339.3,219c-2.8,2.8-6.6,4.4-10.6,4.4h-38.2c-1.3,0-2.6,0.5-3.5,1.5l-13.3,13.3c-2.8,2.8-6.6,4.4-10.6,4.4h-50.9
	c-1.3,0-2.6,0.5-3.5,1.5l-62.2,62.2C145.5,307.3,144.2,307.8,142.9,307.8L142.9,307.8z"/>
</svg>
