<svg xmlns="http://www.w3.org/2000/svg" viewBox="0 0 512 512"><linearGradient id="landing-analysis_svg__a" gradientUnits="userSpaceOnUse" x1="-40.53" y1="1200.904" x2="478.594" y2="530.266" gradientTransform="translate(0 -566)"><stop offset=".011" stop-color="#0575e6"/><stop offset="1" stop-color="#00f260"/></linearGradient><path d="M38.1 134.7C58.1 77 95.7-23.1 175.9 4.8c31.2 10.9 41 52.2 72.4 57.3 29.6 4.9 54.7-24.3 82.9-29.8 35-6.9 72.1 2.3 85.4 36.5 15.9 40.9-31 86.7-19.7 124.1 18.7 61.6 87.9-40.5 100.2 58.9 17.3 139-136.8 386.5-240.6 183-52.6-103.2-107.8-30.8-189.9-82.2-78-48.7-53.8-144.6-28.5-217.9z" opacity=".25" fill="url(#landing-analysis_svg__a)"/><path d="M401.4 373.5h-20.7V180.4c0-11.5-9.3-20.9-20.8-20.9h-15.7c1.2-3.5 1.9-7.3 2.2-11.1 1.7-27-20.5-49.2-47.5-47.5-21.8 1.4-39.7 18.8-41.5 40.6-.5 6.3.3 12.4 2.1 18H92c-11.5 0-20.8 9.3-20.8 20.9v193.1H50.5c-6.9 0-12.5 5.6-12.5 12.5v11.5c0 12.1 9.8 21.9 21.9 21.9H392c12.1 0 21.9-9.8 21.9-21.9V386c0-6.9-5.6-12.5-12.5-12.5z" opacity=".11" fill="#2626bc"/><path d="M370.6 142.4c-1.4 21.8-18.8 39.7-40.6 41.5-10.6.9-20.5-1.9-28.5-7.2l-14.2 6.3c-2.9 1.3-5.9-1.7-4.6-4.6l6.3-14.2c-4.8-7.3-7.6-16.1-7.4-25.5h89.2c-.1 1.1-.1 2.4-.2 3.7z" fill="#ff7eb8"/><path d="M167.4 252.5h219.5v64.9H167.4z" fill="#ffdbed"/><linearGradient id="landing-analysis_svg__b" gradientUnits="userSpaceOnUse" x1="41.147" y1="255.85" x2="464.688" y2="255.85"><stop offset=".011" stop-color="#0575e6"/><stop offset="1" stop-color="#00f260"/></linearGradient><path d="M384.2 138.5H116.3c-11.5 0-20.8 9.3-20.8 20.8v213.9H400c2.8 0 5-2.2 5-5V159.4c0-11.5-9.3-20.9-20.8-20.9zM204.4 303.8c0 1.7-1.3 3-3 3H196c-1.7 0-3-1.3-3-3v-6.5c0-1.7 1.3-3 3-3h5.4c1.7 0 3 1.3 3 3v6.5zm21.2 0c0 1.7-1.3 3-3 3h-5.4c-1.7 0-3-1.3-3-3v-6.5c0-1.7 1.3-3 3-3h5.4c1.7 0 3 1.3 3 3v6.5zm21.3 0c0 1.7-1.3 3-3 3h-5.4c-1.7 0-3-1.3-3-3v-6.5c0-1.7 1.3-3 3-3h5.4c1.7 0 3 1.3 3 3v6.5zm21.2 0c0 1.7-1.3 3-3 3h-5.4c-1.7 0-3-1.3-3-3v-6.5c0-1.7 1.3-3 3-3h5.4c1.7 0 3 1.3 3 3v6.5zm21.3 0c0 1.7-1.3 3-3 3H281c-1.7 0-3-1.3-3-3v-15.5c0-1.7 1.3-3 3-3h5.4c1.7 0 3 1.3 3 3v15.5zm21.2 0c0 1.7-1.3 3-3 3h-5.4c-1.7 0-3-1.3-3-3v-21.5c0-1.7 1.3-3 3-3h5.4c1.7 0 3 1.3 3 3v21.5zm21.3 0c0 1.7-1.3 3-3 3h-5.4c-1.7 0-3-1.3-3-3v-15.5c0-1.7 1.3-3 3-3h5.4c1.7 0 3 1.3 3 3v15.5zm21.2 0c0 1.7-1.3 3-3 3h-5.4c-1.7 0-3-1.3-3-3v-30.5c0-1.7 1.3-3 3-3h5.4c1.7 0 3 1.3 3 3v30.5zm21.3 0c0 1.7-1.3 3-3 3H366c-1.7 0-3-1.3-3-3v-45.5c0-1.7 1.3-3 3-3h5.4c1.7 0 3 1.3 3 3v45.5z" fill="url(#landing-analysis_svg__b)"/><path d="M405 327.7v40.6c0 2.8-2.2 5-5 5H95.5v-45.6H405z" fill="#94b5dd"/><path d="M438.2 365v11.5c0 12.1-9.8 21.9-21.9 21.9H84.2c-12.1 0-21.9-9.8-21.9-21.9V365c0-6.9 5.6-12.5 12.5-12.5h107.1c1.8 0 3.5 1 4.4 2.7l6.6 12.3c.9 1.6 2.6 2.7 4.4 2.7h106c1.8 0 3.5-1 4.4-2.7l6.6-12.3c.9-1.6 2.6-2.7 4.4-2.7h107.1c6.8 0 12.4 5.6 12.4 12.5z" fill="#d2deff"/><path d="M438.2 365v11.5c0 12.1-9.8 21.9-21.9 21.9h-14.7c12.1 0 21.9-9.8 21.9-21.9V365c0-6.9-5.6-12.5-12.5-12.5h14.7c6.9 0 12.5 5.6 12.5 12.5z" fill="#d2deff"/><path d="M370.6 127.4c1.7-27-20.5-49.2-47.5-47.5-21.8 1.4-39.7 18.8-41.5 40.6-.9 10.6 1.9 20.4 7.2 28.5l-6.3 14.2c-1.3 2.9 1.7 5.9 4.6 4.6l14.2-6.3c8 5.3 17.9 8.1 28.5 7.2 22-1.6 39.4-19.5 40.8-41.3z" fill="#ffaf10"/><circle cx="306.2" cy="124.5" r="5.6" fill="#fff"/><circle cx="326.1" cy="124.5" r="5.6" fill="#fff"/><circle cx="346" cy="124.5" r="5.6" fill="#fff"/><path d="M204.8 181.2H188c-3.1 0-5.7-2.5-5.7-5.7s2.5-5.7 5.7-5.7h16.8c3.1 0 5.7 2.5 5.7 5.7s-2.5 5.7-5.7 5.7zm81 21.3H188c-3.1 0-5.7-2.5-5.7-5.7s2.5-5.7 5.7-5.7h97.8c3.1 0 5.7 2.5 5.7 5.7 0 3.1-2.5 5.7-5.7 5.7z" fill="#ffdbed"/><path d="M143.9 370.7h-43.3c-2.8 0-5-2.2-5-5v-13.1h53.3v13.1c0 2.7-2.3 5-5 5zm255.9 0h-43.3c-2.8 0-5-2.2-5-5v-13.1h53.3v13.1c0 2.7-2.3 5-5 5zM164.3 214.1h-21c.7-1.6 1.1-3.4 1.1-5.2v-7.2h7.3c2.8 0 5-2.2 5-5s-2.2-5-5-5h-7.3v-7.2c0-3.4 2.7-6.1 6.1-6.1s6.1 2.7 6.1 6.1c0 2.8 2.2 5 5 5s5-2.2 5-5c0-8.9-7.2-16.1-16.1-16.1s-16.1 7.2-16.1 16.1v7.2H133c-2.8 0-5 2.2-5 5s2.2 5 5 5h1.4v7.2c0 .8-.3 1.6-.9 2.2-2.2 2.2-2.8 5.4-1.6 8.3s3.9 4.7 7 4.7h25.5c2.8 0 5-2.2 5-5s-2.4-5-5.1-5z" fill="#ffaf10"/><path d="M167.5 57.2h-3.3V54c0-2.8-2.2-5-5-5s-5 2.2-5 5v3.3H151c-2.8 0-5 2.2-5 5s2.2 5 5 5h3.3v3.3c0 2.8 2.2 5 5 5s5-2.2 5-5v-3.3h3.3c2.8 0 5-2.2 5-5s-2.4-5.1-5.1-5.1z" fill="#8399fe"/><path d="M123.2 111.2c-3.7 0-7.5-1.4-10.3-4.3-5.7-5.7-5.7-15 0-20.7s15-5.7 20.7 0 5.7 15 0 20.7c-3 2.9-6.7 4.3-10.4 4.3zm0-19.2c-1.2 0-2.4.4-3.3 1.3-1.8 1.8-1.8 4.7 0 6.5s4.7 1.8 6.5 0 1.8-4.7 0-6.5c-.9-.9-2.1-1.3-3.2-1.3z" fill="#ff7eb8"/><path d="M441.2 293.8c-3.7 0-7.5-1.4-10.3-4.3-5.7-5.7-5.7-15 0-20.7s15-5.7 20.7 0 5.7 15 0 20.7c-2.9 2.9-6.7 4.3-10.4 4.3zm6.8-7.8zm-6.8-11.4c-1.2 0-2.4.4-3.3 1.3-1.8 1.8-1.8 4.7 0 6.5s4.7 1.8 6.5 0 1.8-4.7 0-6.5c-.8-.8-2-1.3-3.2-1.3z" fill="#8399fe"/><path d="M211.5 453.8c-8.1 0-14.6-6.6-14.6-14.6s6.6-14.6 14.6-14.6 14.6 6.6 14.6 14.6-6.6 14.6-14.6 14.6zm0-19.2c-2.5 0-4.6 2.1-4.6 4.6s2.1 4.6 4.6 4.6 4.6-2.1 4.6-4.6-2.1-4.6-4.6-4.6z" fill="#01eca5"/><path d="M342.1 453.2h-3.3V450c0-2.8-2.2-5-5-5s-5 2.2-5 5v3.3h-3.3c-2.8 0-5 2.2-5 5s2.2 5 5 5h3.3v3.3c0 2.8 2.2 5 5 5s5-2.2 5-5v-3.3h3.3c2.8 0 5-2.2 5-5s-2.2-5.1-5-5.1z" fill="#ff7eb8"/><path d="M425.7 347.5H410v-19.8c0-2.8-2.2-5-5-5H100.5V159.4c0-8.7 7.1-15.8 15.8-15.8h136.9c2.8 0 5-2.2 5-5s-2.2-5-5-5H116.3c-14.3 0-25.8 11.6-25.8 25.8v188.2H74.8c-9.6 0-17.5 7.8-17.5 17.5v11.5c0 14.8 12.1 26.9 26.9 26.9h332.1c14.8 0 26.9-12.1 26.9-26.9V365c0-9.6-7.9-17.5-17.5-17.5zm-25.9 18.2h-43.3v-8.1h43.3v8.1zm.2-33v14.8h-81.4c-3.7 0-7.1 2-8.8 5.3l-6.6 12.3h-106l-6.6-12.3c-1.7-3.3-5.1-5.3-8.8-5.3h-81.4v-14.8H400zm-256.1 33h-43.3v-8.1h43.3v8.1zm289.3 10.8c0 9.3-7.6 16.9-16.9 16.9H84.2c-9.3 0-16.9-7.6-16.9-16.9V365c0-4.1 3.4-7.5 7.5-7.5h15.8v8.1c0 5.5 4.5 10 10 10h43.3c5.5 0 10-4.5 10-10v-8.1h27.9l6.6 12.3c1.7 3.3 5.1 5.3 8.8 5.3h106c3.7 0 7.1-2 8.8-5.3l6.6-12.3h27.8v8.1c0 5.5 4.5 10 10 10h43.3c5.5 0 10-4.5 10-10v-8.1h15.9c4.1 0 7.5 3.4 7.5 7.5l.1 11.5z" fill="#0046c1"/><path d="M278.1 161.3c-1.4 3.2-.7 7 1.8 9.5s6.2 3.2 9.5 1.8l11.8-5.2c7.6 4.5 16.1 6.8 25 6.8 1.4 0 2.9-.1 4.4-.2 18.7-1.6 34.5-13.7 41.5-30.4h12.3c8.7 0 15.8 7.1 15.8 15.8v138.8c0 2.8 2.2 5 5 5s5-2.2 5-5V159.4c0-14.3-11.6-25.8-25.8-25.8h-9.3c.4-1.9.6-3.8.7-5.8.9-14.3-4.3-28.3-14.4-38.3S337.1 74.1 322.9 75c-24.3 1.6-44.1 21-46.2 45.2-.9 10.4 1.4 20.5 6.6 29.3l-5.2 11.8zm8.6-40.3c1.6-19.3 17.5-34.8 36.8-36.1 11.4-.7 22.6 3.5 30.6 11.5 8.1 8.1 12.2 19.2 11.5 30.6-1.2 19.4-16.7 35.2-36.1 36.8-9.1.8-17.8-1.5-25.3-6.4-.8-.6-1.8-.8-2.8-.8-.7 0-1.4.1-2 .4l-10.7 4.7 4.7-10.7c.7-1.6.5-3.4-.4-4.8-4.9-7.4-7.1-16.1-6.3-25.2zm-45.1 232.7h17.3c2.8 0 5-2.2 5-5s-2.2-5-5-5h-17.3c-2.8 0-5 2.2-5 5s2.2 5 5 5z" fill="#0046c1"/><linearGradient id="landing-analysis_svg__c" gradientUnits="userSpaceOnUse" x1="519.11" y1="278.95" x2="72.172" y2="278.95" gradientTransform="matrix(1 0 0 -1 0 514)"><stop offset=".011" stop-color="#ffaf10"/><stop offset="1" stop-color="#ffd18d"/></linearGradient><path d="M269 267.6H142.9c-2.8 0-5-2.2-5-5s2.2-5 5-5H269c1.3 0 2.6-.5 3.5-1.5l49.2-49.2c2.8-2.8 6.6-4.4 10.6-4.4H357c4 0 7.8 1.6 10.6 4.4l25.5 25.5c.9.9 2.2 1.5 3.5 1.5h30.5c2.8 0 5 2.2 5 5s-2.2 5-5 5h-30.5c-4 0-7.8-1.6-10.6-4.4L360.6 214c-.9-.9-2.2-1.5-3.5-1.5h-24.7c-1.3 0-2.6.5-3.5 1.5l-49.2 49.2c-2.9 2.9-6.7 4.4-10.7 4.4z" fill="url(#landing-analysis_svg__c)"/><linearGradient id="landing-analysis_svg__d" gradientUnits="userSpaceOnUse" x1="128.917" y1="211.056" x2="486.945" y2="372.6" gradientTransform="matrix(1 0 0 -1 0 514)"><stop offset=".011" stop-color="#0046c1"/><stop offset="1" stop-color="#02b4a3"/></linearGradient><path d="M142.9 307.8c-1.3 0-2.6-.5-3.5-1.5-2-2-2-5.1 0-7.1l62.2-62.2c2.8-2.8 6.6-4.4 10.6-4.4h50.9c1.3 0 2.6-.5 3.5-1.5l13.3-13.3c2.8-2.8 6.6-4.4 10.6-4.4h38.2c1.3 0 2.6-.5 3.5-1.5l15.7-15.7c2.8-2.8 6.6-4.4 10.6-4.4h67.2c1.3 0 2.6-.5 3.5-1.5l29.6-29.6c2-2 5.1-2 7.1 0s2 5.1 0 7.1l-29.6 29.6c-2.8 2.8-6.6 4.4-10.6 4.4h-67.2c-1.3 0-2.6.5-3.5 1.5L339.3 219c-2.8 2.8-6.6 4.4-10.6 4.4h-38.2c-1.3 0-2.6.5-3.5 1.5l-13.3 13.3c-2.8 2.8-6.6 4.4-10.6 4.4h-50.9c-1.3 0-2.6.5-3.5 1.5l-62.2 62.2c-1 1-2.3 1.5-3.6 1.5z" fill="url(#landing-analysis_svg__d)"/></svg>