<svg xmlns="http://www.w3.org/2000/svg" viewBox="0 0 512 512"><linearGradient id="location_svg__a" gradientUnits="userSpaceOnUse" x1="447.303" y1="423.576" x2="262.303" y2="192.576" gradientTransform="matrix(1 0 0 -1 0 514)"><stop offset=".011" stop-color="#0575e6"/><stop offset="1" stop-color="#00f260"/></linearGradient><path d="M340.9.4C245 9.1 235.8 192.9 194.5 287c-20.5 46.7-68.8 94.8-60.3 149.8 9.6 62 72.9 80.1 121.7 74.1 120.7-14.7 172.9-141.1 180.8-260.8C441.5 176.3 457-10.1 340.9.4z" opacity=".25" fill="url(#location_svg__a)"/><path d="M447.4 365.7h-31.9c6.4-10.9 11.7-22.5 15.9-34.7-46.5-31.9-101.7-52-161.2-56.4 21.1-35.7 48.4-86.5 48.4-111.1 0-40.1-32.5-72.6-72.6-72.6s-72.6 32.5-72.6 72.6c0 24.6 27.3 75.4 48.4 111.1-28.8 2.1-56.6 7.9-82.9 17V288c0-5.1-4.2-9.3-9.3-9.3h-85c-5.2 0-9.3 4.2-9.3 9.3v69.1c0 5.1 4.2 9.3 9.3 9.3H77c34.1 57.8 97 96.6 169 96.6 39.5 0 76.3-11.7 107.2-31.8V444c0 5.1 4.2 9.3 9.3 9.3h84.9c5.1 0 9.3-4.2 9.3-9.3v-69c0-5.1-4.2-9.3-9.3-9.3z" opacity=".11" fill="#2626bc"/><linearGradient id="location_svg__b" gradientUnits="userSpaceOnUse" x1="173.998" y1="394.418" x2="347.899" y2="270.182"><stop offset=".011" stop-color="#53acd3"/><stop offset="1" stop-color="#5ae07d"/></linearGradient><path d="M446.4 310c-26.6 76.9-99.6 132.1-185.4 132.1S102.1 386.9 75.6 310c52.8-36.1 116.6-57.3 185.4-57.3s132.6 21.2 185.4 57.3z" fill="url(#location_svg__b)"/><linearGradient id="location_svg__c" gradientUnits="userSpaceOnUse" x1="127.358" y1="419.212" x2="242.307" y2="314.75"><stop offset=".011" stop-color="#53acd3"/><stop offset="1" stop-color="#5ae07d"/></linearGradient><path d="M261 400.4v41.7c-62.1 0-117.5-28.9-153.5-74-2.8-3.5-5.5-7.2-8.1-10.9-8.2-11.9-15.1-24.7-20.6-38.3H180c5.5 0 10 4.5 10 10v13.3c0 2.6 1.1 5.2 2.9 7.1l10.2 10.2c1.9 1.9 4.4 2.9 7.1 2.9H223c2.6 0 5.2 1 7.1 2.9l28 28c1.8 1.9 2.9 4.5 2.9 7.1z" fill="url(#location_svg__c)"/><path d="M153.8 318.9v28.9c0 5.1-4.2 9.3-9.3 9.3h-45c-8.2-11.9-15.1-24.7-20.6-38.3l74.9.1z" fill="#94b5dd"/><linearGradient id="location_svg__d" gradientUnits="userSpaceOnUse" x1="299.517" y1="380.158" x2="393.047" y2="250.738"><stop offset=".011" stop-color="#53acd3"/><stop offset="1" stop-color="#5ae07d"/></linearGradient><path d="M446.4 310c-10.3 29.8-27.5 56.3-49.8 77.6h-53.4c-2.6 0-5.2-1-7.1-2.9L323.4 372c-1.9-1.9-2.9-4.4-2.9-7.1v-23.7c0-2.6-1-5.2-2.9-7.1l-15.4-15.4c-1.9-1.9-2.9-4.4-2.9-7.1v-6.3c0-2.3-.8-4.6-2.3-6.4-.2-.3-.4-.5-.6-.7l-8.9-8.9c-1.9-1.9-2.9-4.4-2.9-7.1v-28.7c59.7 4.3 115.1 24.5 161.8 56.5z" fill="url(#location_svg__d)"/><path d="M326.6 288.8s0-.1.1-.1c.1-.2.2-.4.2-.6v-.1c0-.2.1-.4.1-.6 0-.2 0-.4-.1-.7v-.2c0-.2-.1-.3-.2-.5 0-.1 0-.1-.1-.2-.1-.2-.2-.4-.4-.6v-.1c-.2-.2-.3-.4-.6-.6l-.1-.1c-.2-.2-.4-.4-.6-.5-.1 0-.1-.1-.2-.1-.2-.2-.4-.3-.7-.5-.1 0-.1-.1-.2-.1-.6-.4-1.3-.8-2.1-1.2-.1 0-.2-.1-.3-.1-.3-.2-.7-.3-1-.5-.1 0-.2-.1-.3-.1-.9-.4-1.8-.7-2.9-1.1-.1 0-.1 0-.2-.1-.5-.2-.9-.3-1.4-.5-.1 0-.2-.1-.3-.1-.5-.2-1.1-.3-1.6-.5h-.1c-1.2-.3-2.6-.7-3.9-1h-.2c-6.9-1.6-15.5-2.8-25.2-3.6-7.3-.6-15.2-.9-23.5-.9-36.4 0-66 6.2-66 13.8s29.5 13.8 66 13.8c13.3 0 25.6-.8 36-2.2.3 0 .6-.1.9-.1h.1c1.7-.2 3.4-.5 5-.8h.1c.8-.1 1.5-.3 2.3-.4h.2c.7-.1 1.4-.3 2.1-.4h.2c.7-.1 1.3-.3 2-.4.1 0 .3-.1.4-.1.6-.1 1.2-.3 1.8-.4h.1c.6-.1 1.1-.3 1.7-.4.2 0 .3-.1.5-.1.5-.1 1-.3 1.5-.5.1 0 .2-.1.4-.1.4-.1.8-.2 1.1-.4.2-.1.3-.1.5-.2.4-.2.8-.3 1.3-.5.2-.1.3-.1.4-.2.3-.1.6-.2.9-.4.1-.1.3-.1.4-.2.4-.2.7-.3 1-.5.1-.1.3-.1.4-.2.3-.1.5-.3.8-.4.1-.1.3-.1.4-.2.2-.1.5-.3.7-.4.1-.1.2-.1.3-.2.2-.2.5-.3.7-.5l.2-.2c.2-.1.3-.3.5-.4l.2-.2c.2-.2.3-.4.5-.6 0-.1.1-.1.1-.2-.1-.1 0-.3.1-.5zM153.8 267.1v69c0 5.1-4.2 9.3-9.3 9.3H59.6c-5.2 0-9.3-4.2-9.3-9.3v-69c0-5.1 4.2-9.3 9.3-9.3h84.9c5.2-.1 9.3 4.1 9.3 9.3z" fill="#94b5dd"/><path d="M91.5 287.1H74.8c-2.8 0-5-2.2-5-5s2.2-5 5-5h16.7c2.8 0 5 2.2 5 5s-2.3 5-5 5z" fill="#dcfdee"/><path d="M153.8 267.1v69c0 5.1-4.2 9.3-9.3 9.3h-16.4c5.1 0 9.3-4.2 9.3-9.3v-69c0-5.1-4.2-9.3-9.3-9.3h16.4c5.2-.1 9.3 4.1 9.3 9.3z" opacity=".5" fill="#fff"/><path d="M153.8 285.1v51c0 5.1-4.2 9.3-9.3 9.3H59.6c-5.2 0-9.3-4.2-9.3-9.3v-15.6h17.6c2.7 0 5.2-1 7.1-2.9l13.3-13.3c1.9-1.9 4.4-2.9 7.1-2.9h38.2c1.4 0 2.7-.3 3.9-.8 1.2-.5 2.2-1.2 3.1-2.1l13.2-13.4z" fill="#ffaf10"/><path d="M153.8 285.1v51c0 5.1-4.2 9.3-9.3 9.3h-16.4c5.1 0 9.3-4.2 9.3-9.3v-35.6c1.2-.5 2.2-1.2 3.1-2.1l13.3-13.3z" opacity=".5" fill="#fff"/><path d="M471.7 354v69c0 5.1-4.2 9.3-9.3 9.3h-84.9c-5.1 0-9.3-4.2-9.3-9.3v-69c0-5.1 4.2-9.3 9.3-9.3h84.9c5.1 0 9.3 4.2 9.3 9.3z" fill="#94b5dd"/><path d="M409.4 374h-16.7c-2.8 0-5-2.2-5-5s2.2-5 5-5h16.7c2.8 0 5 2.2 5 5s-2.3 5-5 5z" fill="#dcfdee"/><path d="M471.7 354v69c0 5.1-4.2 9.3-9.3 9.3H446c5.1 0 9.3-4.2 9.3-9.3v-69c0-5.1-4.2-9.3-9.3-9.3h16.4c5.1 0 9.3 4.2 9.3 9.3z" opacity=".5" fill="#fff"/><path d="M471.7 372.1v51c0 5.1-4.2 9.3-9.3 9.3h-84.9c-5.1 0-9.3-4.2-9.3-9.3v-15.6h17.6c2.6 0 5.2-1 7.1-2.9l13.3-13.3c1.9-1.9 4.4-2.9 7.1-2.9h38.2c1.4 0 2.7-.3 3.9-.8 1.2-.5 2.2-1.2 3.1-2.1l13.2-13.4z" fill="#ffaf10"/><path d="M471.7 372.1v51c0 5.1-4.2 9.3-9.3 9.3H446c5.1 0 9.3-4.2 9.3-9.3v-35.6c1.2-.5 2.2-1.2 3.1-2.1l13.3-13.3z" opacity=".5" fill="#fff"/><linearGradient id="location_svg__e" gradientUnits="userSpaceOnUse" x1="182.758" y1="177.03" x2="408.909" y2="177.03"><stop offset=".011" stop-color="#0575e6"/><stop offset="1" stop-color="#00f260"/></linearGradient><path d="M333.6 142.5c0 31.6-45 106.5-64.1 136.9-3.9 6.2-13 6.2-16.9 0-19.1-30.5-64.1-105.4-64.1-136.9 0-40.1 32.5-72.6 72.6-72.6s72.5 32.5 72.5 72.6z" fill="url(#location_svg__e)"/><path d="M271.9 203.1h-21.8c-2.8 0-5-2.2-5-5s2.2-5 5-5h21.8c2.8 0 5 2.2 5 5s-2.2 5-5 5zM271.9 222.1h-21.8c-2.8 0-5-2.2-5-5s2.2-5 5-5h21.8c2.8 0 5 2.2 5 5s-2.2 5-5 5z" fill="#ffd18d"/><path d="M128.1 238.3c-5.3 0-10.4-2.9-13-7.8-3.7-7.1-1-16 6.2-19.7 7.1-3.7 16-1 19.7 6.2 3.7 7.1 1 16-6.2 19.7-2.1 1-4.4 1.6-6.7 1.6zm4.5-6.1zm-4.5-13.1c-.7 0-1.5.2-2.1.5-2.2 1.2-3.1 4-1.9 6.2s4 3.1 6.2 1.9c2.2-1.2 3.1-4 1.9-6.2-.6-1.1-1.5-1.9-2.7-2.3-.5-.1-.9-.1-1.4-.1z" fill="#8399fe"/><path d="M141 453.5c-7 0-13.2-5.1-14.4-12.2-.6-3.9.3-7.7 2.5-10.9 2.3-3.2 5.6-5.3 9.5-5.9 3.8-.6 7.7.3 10.9 2.5s5.3 5.6 5.9 9.5c.6 3.9-.3 7.7-2.5 10.9s-5.6 5.3-9.5 5.9c-.8.2-1.6.2-2.4.2zm0-19.2c-.3 0-.5 0-.8.1-1.2.2-2.3.9-3 1.9s-1 2.2-.8 3.4c.4 2.5 2.8 4.2 5.3 3.8 1.2-.2 2.3-.9 3-1.9s1-2.2.8-3.4c-.2-1.2-.9-2.3-1.9-3-.7-.6-1.7-.9-2.6-.9z" fill="#ff7eb8"/><path d="M248.6 55.2c-3 0-6-.9-8.5-2.7-3.2-2.3-5.3-5.6-5.9-9.5s.3-7.7 2.5-10.9 5.6-5.3 9.5-5.9c3.8-.6 7.7.3 10.9 2.5 3.2 2.3 5.3 5.6 5.9 9.5s-.3 7.7-2.5 10.9-5.6 5.3-9.5 5.9c-.8.1-1.6.2-2.4.2zm1.6-5.2zm-1.5-14.1c-.3 0-.5 0-.8.1-1.2.2-2.3.9-3 1.9s-1 2.2-.8 3.4c.2 1.2.9 2.3 1.9 3 1 .7 2.2 1 3.4.8 1.2-.2 2.3-.9 3-1.9s1-2.2.8-3.4c-.2-1.2-.9-2.3-1.9-3-.7-.6-1.7-.9-2.6-.9z" fill="#01eca5"/><path d="M403.7 242.3h-3.3V239c0-2.8-2.2-5-5-5s-5 2.2-5 5v3.3h-3.3c-2.8 0-5 2.2-5 5s2.2 5 5 5h3.3v3.3c0 2.8 2.2 5 5 5s5-2.2 5-5v-3.3h3.3c2.8 0 5-2.2 5-5s-2.3-5-5-5z" fill="#ff7eb8"/><path d="M118.6 407.1h-3.3v-3.3c0-2.8-2.2-5-5-5s-5 2.2-5 5v3.3H102c-2.8 0-5 2.2-5 5s2.2 5 5 5h3.3v3.3c0 2.8 2.2 5 5 5s5-2.2 5-5v-3.3h3.3c2.8 0 5-2.2 5-5s-2.2-5-5-5z" fill="#01eca5"/><path d="M476.7 354c0-7.9-6.4-14.3-14.3-14.3H439c15.2-28.8 23.2-61 23.2-93.8 0-2.8-2.2-5-5-5s-5 2.2-5 5c0 32.9-8.5 65.3-24.6 93.8h-50.1c-7.9 0-14.3 6.4-14.3 14.3v53.5c-30.5 19.3-65.8 29.6-102.2 29.6-33.6 0-66.7-8.8-95.6-25.6-25.9-15-48.1-36-64.5-61h43.6c5.9 0 11-3.6 13.2-8.8.7-1.7 1.1-3.6 1.1-5.6v-61.9c24.3-8.1 49.6-13.2 75.2-15.3 4.4 7.3 9.1 15.1 14.3 23.3 2.8 4.4 7.5 7 12.7 7 5.2 0 9.9-2.6 12.7-7 5.1-8.2 9.9-15.9 14.3-23.3 46.4 3.8 90.4 17.3 131 40 .8.4 1.6.6 2.4.6 1.8 0 3.5-.9 4.4-2.6 1.4-2.4.5-5.5-1.9-6.8-40.4-22.6-84.2-36.3-130.2-40.8 38.6-66.2 45-95 45-106.8 0-42.8-34.8-77.6-77.6-77.6s-77.6 34.8-77.6 77.6c0 11.8 6.4 40.6 45 106.8-23.8 2.3-47.3 7.2-69.9 14.5-1.5-6.3-7.2-11.1-13.9-11.1H70c-.1-2.3-.1-4.5-.1-6.8 0-2.8-2.2-5-5-5s-5 2.2-5 5c0 2.3.1 4.5.1 6.8h-.4c-7.9 0-14.3 6.4-14.3 14.3v10.6c0 2.8 2.2 5 5 5s5-2.2 5-5V267c0-2.4 1.9-4.3 4.3-4.3h84.9c2.4 0 4.3 1.9 4.3 4.3v16L137 294.9c-.4.4-1 .8-1.5 1-.6.3-1.3.4-2 .4H95.3c-4 0-7.8 1.6-10.6 4.4L71.4 314c-.9.9-2.2 1.5-3.5 1.5H55.3v-9.7c0-2.8-2.2-5-5-5s-5 2.2-5 5v30.4c0 7.9 6.4 14.3 14.3 14.3h29.5c17.5 28.8 42.1 52.8 71.3 69.7 30.4 17.6 65.2 26.9 100.6 26.9 36.1 0 71.3-9.6 102.2-27.8v3.8c0 7.9 6.4 14.3 14.3 14.3h84.9c6.4 0 11.9-4.2 13.7-10.1.4-1.3.6-2.8.6-4.3v-69zM261 74.9c37.3 0 67.6 30.3 67.6 67.6 0 31.1-48.5 110.6-63.4 134.3-.9 1.5-2.5 2.3-4.2 2.3s-3.3-.9-4.2-2.3c-14.9-23.6-63.4-103.2-63.4-134.3 0-37.2 30.3-67.6 67.6-67.6zM67.9 325.5c4 0 7.8-1.6 10.6-4.4l13.3-13.3c1-1 2.2-1.5 3.6-1.5h38.2c2 0 4-.4 5.9-1.2 1.8-.8 3.4-1.9 4.7-3.2l4.7-4.7v38.9c0 .6-.1 1.2-.3 1.7-.7 1.6-2.2 2.6-4 2.6h-85c-2.4 0-4.3-1.9-4.3-4.3v-10.6h12.6zm398.8 97.6c0 .6-.1 1.2-.3 1.7-.7 1.6-2.2 2.6-4 2.6h-84.9c-2.4 0-4.3-1.9-4.3-4.3v-10.6h12.6c4 0 7.8-1.6 10.6-4.4l13.3-13.3c1-1 2.2-1.5 3.6-1.5h38.2c2 0 4-.4 5.9-1.2 1.8-.8 3.4-1.8 4.7-3.2l4.7-4.7-.1 38.9zm-89.2-73.4h84.9c2.4 0 4.3 1.9 4.3 4.3v16l-11.8 11.8c-.4.4-1 .8-1.5 1-.6.3-1.3.4-2 .4h-38.2c-4 0-7.8 1.6-10.6 4.4L389.3 401c-.9.9-2.2 1.5-3.5 1.5h-12.6V354c0-2.4 1.9-4.3 4.3-4.3z" fill="#0046c1"/><path d="M275.8 151c5.9-4.5 9.7-11.6 9.7-19.5 0-13.5-11-24.5-24.5-24.5s-24.5 11-24.5 24.5c0 8 3.8 15.1 9.7 19.5-5.9 4.5-9.7 11.6-9.7 19.5 0 2.8 2.2 5 5 5s5-2.2 5-5c0-8 6.5-14.5 14.5-14.5s14.5 6.5 14.5 14.5c0 2.8 2.2 5 5 5s5-2.2 5-5c0-7.9-3.8-15-9.7-19.5zm-29.3-19.5c0-8 6.5-14.5 14.5-14.5s14.5 6.5 14.5 14.5S269 146 261 146s-14.5-6.5-14.5-14.5z" fill="#ffd18d"/></svg>