<?xml version="1.0" encoding="utf-8"?>
<!-- Generator: Adobe Illustrator 23.0.3, SVG Export Plug-In . SVG Version: 6.00 Build 0)  -->
<svg version="1.1" id="Capa_1" xmlns="http://www.w3.org/2000/svg" xmlns:xlink="http://www.w3.org/1999/xlink" x="0px" y="0px"
	 viewBox="0 0 512 512" style="enable-background:new 0 0 512 512;" xml:space="preserve">
<style type="text/css">
	.st0{opacity:0.25;fill:url(#SVGID_1_);}
	.st1{opacity:0.11;fill:#2626BC;enable-background:new    ;}
	.st2{fill:#D2DEFF;}
	.st3{fill:#B7C5FF;}
	.st4{fill:url(#SVGID_2_);}
	.st5{fill:url(#SVGID_3_);}
	.st6{fill:#4369FD;}
	.st7{fill:#BDDAF2;}
	.st8{fill:#94B5DD;}
	.st9{fill:#FFAF10;}
	.st10{fill:#FFFFFF;}
	.st11{fill:url(#SVGID_4_);}
	.st12{fill:url(#SVGID_5_);}
	.st13{fill:url(#SVGID_6_);}
	.st14{fill:url(#SVGID_7_);}
	.st15{fill:url(#SVGID_8_);}
	.st16{fill:#8399FE;}
	.st17{fill:#01ECA5;}
	.st18{fill:#FF7EB8;}
	.st19{fill:#0046C1;}
	.st20{fill:url(#SVGID_9_);}
	.st21{fill:url(#SVGID_10_);}
	.st22{fill:url(#SVGID_11_);}
</style>
<linearGradient id="SVGID_1_" gradientUnits="userSpaceOnUse" x1="253.4771" y1="1076.4852" x2="259.4741" y2="568.6823" gradientTransform="matrix(1 0 0 1 0 -566)">
	<stop  offset="1.120000e-02" style="stop-color:#0575E6"/>
	<stop  offset="1" style="stop-color:#00F260"/>
</linearGradient>
<path class="st0" d="M367.6,47.6c-68.8-27.8-164.5-18.6-217.9,29c-37.7,33.6-8.9,43.7,15.8,106.3C183.4,228.3,0.9,220,0,301.6
	c-1.1,94.3,131.3,77.9,180.3,89.2c74.8,17.4,139.5,79.8,219.8,72.6c69.8-6.3,97.1-60.7,107.5-123.4C526.9,223.3,484,94.7,367.6,47.6
	L367.6,47.6z"/>
<path class="st1" d="M441.7,431.2l-74-74c-3.9-3.9-10.2-3.9-14.1,0l-4.1,4.1l-34.2-34.2c49.8-62.5,45.8-153.7-12.1-211.6
	C241,53.4,140.2,53.4,78,115.6c-55.6,55.6-61.5,142.1-17.6,204.2c-3.7,6.5-5.8,14.1-5.8,22.1c0,25,20.3,45.3,45.3,45.3
	c11.7,0,22.4-4.5,30.5-11.8c52.2,21.2,113.4,13.6,159.1-22.8l34.2,34.2l-4.1,4.1c-3.9,3.9-3.9,10.2,0,14.1l74,74
	c3.9,3.9,10.2,3.9,14.1,0l33.9-33.9C445.6,441.4,445.6,435.1,441.7,431.2L441.7,431.2z"/>
<path class="st2" d="M296.4,320.7l25.6-25.6l53.2,53.2l-25.6,25.6L296.4,320.7z"/>
<path class="st3" d="M322.1,295.1l19.6,19.6c-3.8,4.7-7.8,9.2-12.1,13.5s-8.8,8.4-13.5,12.1l-19.6-19.6L322.1,295.1z"/>
<linearGradient id="SVGID_2_" gradientUnits="userSpaceOnUse" x1="273.2732" y1="116.8" x2="571.9548" y2="116.8" gradientTransform="matrix(1 0 0 -1 0 514)">
	<stop  offset="1.120000e-02" style="stop-color:#53ACD3"/>
	<stop  offset="1" style="stop-color:#5AE07D"/>
</linearGradient>
<path class="st4" d="M459.7,424.3l-33.9,33.9c-3.9,3.9-10.2,3.9-14.1,0l-74-74c-3.9-3.9-3.9-10.2,0-14.1l33.9-33.9
	c3.9-3.9,10.2-3.9,14.1,0l74,74C463.6,414.1,463.6,420.4,459.7,424.3z"/>
<linearGradient id="SVGID_3_" gradientUnits="userSpaceOnUse" x1="22.5765" y1="207.1" x2="420.9371" y2="207.1">
	<stop  offset="1.120000e-02" style="stop-color:#0575E6"/>
	<stop  offset="1" style="stop-color:#00F260"/>
</linearGradient>
<circle class="st5" cx="208.6" cy="207.1" r="159.2"/>
<path class="st6" d="M348,130.2c-6.4,24.5-27.8,43.2-53.7,45.4c-14.5,1.2-28-2.6-39-9.9l-19.5,8.6c-4,1.8-8.1-2.3-6.3-6.3l8.6-19.5
	c-7.3-11-11.1-24.5-9.9-39c1.9-23,17-42.5,37.4-51c20.3,7.7,39.2,19.8,55.6,36.1C331.9,105.4,340.9,117.4,348,130.2L348,130.2z"/>
<circle class="st7" cx="208.6" cy="207.1" r="120.3"/>
<path class="st8" d="M321.8,166.2c-8.1,5.2-17.5,8.6-27.5,9.4c-14.5,1.2-28-2.6-39-9.9l-19.5,8.6c-4,1.8-8.1-2.3-6.3-6.3l8.6-19.5
	c-7.3-11-11.1-24.5-9.9-39c0.6-7.1,2.5-13.9,5.3-20.1c22.1,4.6,43.1,15.5,60.2,32.7C306.6,135,316,150.1,321.8,166.2L321.8,166.2z"
	/>
<path class="st9" d="M349.8,99.9c2.4-36.9-28-67.3-64.9-64.9c-29.8,1.9-54.2,25.8-56.8,55.6c-1.2,14.5,2.6,28,9.9,39l-8.6,19.5
	c-1.8,4,2.3,8.1,6.3,6.3l19.5-8.6c11,7.3,24.5,11.1,39,9.9C324,154.1,347.9,129.7,349.8,99.9L349.8,99.9z"/>
<circle class="st10" cx="265.6" cy="95.1" r="6.9"/>
<circle class="st10" cx="290" cy="95.1" r="6.9"/>
<circle class="st10" cx="314.4" cy="95.1" r="6.9"/>
<circle class="st9" cx="118" cy="321" r="45.3"/>
<linearGradient id="SVGID_4_" gradientUnits="userSpaceOnUse" x1="73.0969" y1="277.45" x2="336.1827" y2="277.45" gradientTransform="matrix(1 0 0 -1 0 514)">
	<stop  offset="1.120000e-02" style="stop-color:#53ACD3"/>
	<stop  offset="1" style="stop-color:#5AE07D"/>
</linearGradient>
<path class="st11" d="M144.7,258.3h118c3.3,0,6-2.7,6-6v-31.5c0-3.3-2.7-6-6-6h-118c-3.3,0-6,2.7-6,6v31.5
	C138.7,255.6,141.4,258.3,144.7,258.3L144.7,258.3z"/>
<path class="st10" d="M188.9,241.4h-51.8c-2.8,0-5-2.2-5-5s2.2-5,5-5h51.8c2.8,0,5,2.2,5,5S191.7,241.4,188.9,241.4z"/>
<path class="st10" d="M213.6,258.3h-76.5c-2.8,0-5-2.2-5-5s2.2-5,5-5h76.5c2.8,0,5,2.2,5,5C218.6,256.1,216.4,258.3,213.6,258.3z"/>
<g>
	
		<linearGradient id="SVGID_5_" gradientUnits="userSpaceOnUse" x1="197.762" y1="335" x2="208.938" y2="335" gradientTransform="matrix(1 0 0 -1 0 514)">
		<stop  offset="1.120000e-02" style="stop-color:#0575E6"/>
		<stop  offset="1" style="stop-color:#00F260"/>
	</linearGradient>
	<circle class="st12" cx="203.4" cy="179" r="5.6"/>
	
		<linearGradient id="SVGID_6_" gradientUnits="userSpaceOnUse" x1="214.666" y1="335" x2="225.842" y2="335" gradientTransform="matrix(1 0 0 -1 0 514)">
		<stop  offset="1.120000e-02" style="stop-color:#0575E6"/>
		<stop  offset="1" style="stop-color:#00F260"/>
	</linearGradient>
	<circle class="st13" cx="220.3" cy="179" r="5.6"/>
	
		<linearGradient id="SVGID_7_" gradientUnits="userSpaceOnUse" x1="197.762" y1="317.8" x2="208.938" y2="317.8" gradientTransform="matrix(1 0 0 -1 0 514)">
		<stop  offset="1.120000e-02" style="stop-color:#0575E6"/>
		<stop  offset="1" style="stop-color:#00F260"/>
	</linearGradient>
	<circle class="st14" cx="203.4" cy="196.2" r="5.6"/>
	
		<linearGradient id="SVGID_8_" gradientUnits="userSpaceOnUse" x1="214.666" y1="317.8" x2="225.842" y2="317.8" gradientTransform="matrix(1 0 0 -1 0 514)">
		<stop  offset="1.120000e-02" style="stop-color:#0575E6"/>
		<stop  offset="1" style="stop-color:#00F260"/>
	</linearGradient>
	<circle class="st15" cx="220.3" cy="196.2" r="5.6"/>
</g>
<path class="st16" d="M54.7,103.4c-3.9,0-7.6-1.5-10.3-4.3c-2.8-2.8-4.3-6.4-4.3-10.3s1.5-7.6,4.3-10.3c5.7-5.7,15-5.7,20.6,0
	c5.7,5.7,5.7,15,0,20.6C62.2,101.9,58.6,103.4,54.7,103.4z M54.7,84.2c-1.2,0-2.4,0.4-3.3,1.3c-0.9,0.9-1.3,2-1.3,3.3
	s0.5,2.4,1.3,3.3c0.9,0.9,2,1.3,3.3,1.3s2.4-0.5,3.3-1.3c1.8-1.8,1.8-4.7,0-6.5C57,84.7,55.8,84.2,54.7,84.2z"/>
<path class="st17" d="M385.1,128.3c-3.9,0-7.6-1.5-10.3-4.3c-5.7-5.7-5.7-15,0-20.6c2.8-2.8,6.4-4.3,10.3-4.3s7.6,1.5,10.3,4.3
	c5.7,5.7,5.7,15,0,20.6l0,0l0,0C392.7,126.8,389,128.3,385.1,128.3z M385.1,109.1c-1.2,0-2.4,0.5-3.3,1.3c-1.8,1.8-1.8,4.7,0,6.5
	c0.9,0.9,2,1.3,3.3,1.3s2.4-0.5,3.3-1.3l0,0c1.8-1.8,1.8-4.7,0-6.5C387.5,109.6,386.3,109.1,385.1,109.1L385.1,109.1z"/>
<path class="st18" d="M91,48.7h-3.2v-3.2c0-2.8-2.2-5-5-5s-5,2.2-5,5v3.2h-3.2c-2.8,0-5,2.2-5,5s2.2,5,5,5h3.2v3.2c0,2.8,2.2,5,5,5
	s5-2.2,5-5v-3.2H91c2.8,0,5-2.2,5-5S93.8,48.7,91,48.7z"/>
<path class="st18" d="M400.8,293.6h-3.2v-3.2c0-2.8-2.2-5-5-5s-5,2.2-5,5v3.2h-3.2c-2.8,0-5,2.2-5,5s2.2,5,5,5h3.2v3.2
	c0,2.8,2.2,5,5,5s5-2.2,5-5v-3.2h3.2c2.8,0,5-2.2,5-5S403.5,293.6,400.8,293.6z"/>
<path class="st17" d="M155.6,403.5h-3.2v-3.2c0-2.8-2.2-5-5-5s-5,2.2-5,5v3.2h-3.2c-2.8,0-5,2.2-5,5s2.2,5,5,5h3.2v3.2
	c0,2.8,2.2,5,5,5s5-2.2,5-5v-3.2h3.2c2.8,0,5-2.2,5-5S158.4,403.5,155.6,403.5z"/>
<path class="st19" d="M463.2,406.7l-8.7-8.7c-2-2-5.1-2-7.1,0s-2,5.1,0,7.1l8.7,8.7c1.9,1.9,1.9,5.1,0,7.1l-33.9,33.9
	c-0.9,0.9-2.2,1.5-3.5,1.5s-2.6-0.5-3.5-1.5l-74-74c-1.9-1.9-1.9-5.1,0-7.1l4.1-4.1c0.9-0.9,1.5-2.2,1.5-3.5s-0.5-2.6-1.5-3.5
	L315,332.1c3.3-2.8,6.5-5.8,9.6-8.9s6.1-6.3,8.9-9.6l26.7,26.7l-2.2,2.2c-2,2-2,5.1,0,7.1s5.1,2,7.1,0l9.9-9.9
	c0.9-0.9,2.2-1.5,3.5-1.5s2.6,0.5,3.5,1.5l45.5,45.5c1,1,2.3,1.5,3.5,1.5s2.6-0.5,3.5-1.5c2-2,2-5.1,0-7.1L389,332.6
	c-2.8-2.8-6.6-4.4-10.6-4.4s-7.8,1.6-10.6,4.4l-0.6,0.6l-27.5-27.5c17.5-23.2,28.4-50.4,31.8-79.8c4.1-35.9-3.8-72.7-22.4-103.5
	c3.1-6.9,5-14.4,5.5-22.3c1.2-19-5.8-37.6-19.2-51c-13.4-13.4-32-20.4-51-19.2c-15.2,1-29.2,7.3-39.9,17
	c-55.3-12.4-112.1,4-152.2,44.1C65.1,118.5,48.2,154.8,45,193.4c-3.1,37.4,6.7,74.9,27.7,105.8c-3.2,6.6-5,14-5,21.8
	c0,27.8,22.6,50.3,50.3,50.3c11.9,0,22.8-4.1,31.4-11c19.2,7.4,39.3,11,59.1,11c35.3,0,70-11.4,98.7-32.9l27.5,27.5l-0.6,0.6
	c-5.8,5.8-5.8,15.4,0,21.2l74,74c2.8,2.8,6.6,4.4,10.6,4.4s7.8-1.6,10.6-4.4l33.9-33.9C469,422,469,412.5,463.2,406.7L463.2,406.7z
	 M285.2,40c16.1-1,31.9,4.9,43.3,16.3s17.3,27.2,16.3,43.3c-1.8,27.4-23.7,49.8-51,52.1c-12.8,1.1-25.2-2.1-35.8-9.1
	c-0.8-0.6-1.8-0.8-2.8-0.8c-0.7,0-1.4,0.1-2,0.4l-19,8.4l8.4-19c0.7-1.6,0.5-3.4-0.4-4.8c-7-10.6-10.2-23-9.1-35.8
	C235.4,63.6,257.8,41.7,285.2,40L285.2,40z M168,315.1c-2.9-25-24.2-44.5-50-44.5c-1.9,0-3.7,0.1-5.5,0.3
	C82.1,225.4,88.1,164.5,127,125.6c25.4-25.4,60.3-37.4,96-32.9c-0.6,13.2,2.6,26,9.4,37.2l-7.5,17c-1.6,3.7-0.8,8,2,10.9
	c2.9,2.9,7.2,3.7,10.9,2l17-7.5c10.3,6.2,21.9,9.5,34,9.5c1.9,0,3.9-0.1,5.8-0.2c6.3-0.5,12.3-2,18-4.2
	c9.7,20.4,13.3,43.8,10.1,66.3c-3.6,24.8-14.8,47.2-32.6,65C258.1,320.7,210.3,331,168,315.1L168,315.1z M99.6,98.1
	c36.2-36.2,87.1-51.9,137.1-42.6c-6.1,7.9-10.5,17.1-12.5,27.2c-38.7-4.9-76.6,8.1-104.3,35.7C78.6,159.9,71.4,224.1,102,273.3
	c-9.4,3.2-17.6,9-23.6,16.6C39.7,229.2,48.2,149.5,99.6,98.1z M77.7,321c0-22.2,18.1-40.3,40.3-40.3s40.3,18.1,40.3,40.3
	s-18.1,40.3-40.3,40.3S77.7,343.2,77.7,321z M157.2,352.5c6-7.5,10-16.7,10.9-26.7c13.2,4.5,26.8,6.7,40.4,6.7
	c32.7,0,64.7-12.8,88.7-36.7c19.3-19.3,31.5-43.7,35.4-70.6c3.5-24.5-0.4-49.9-10.9-72.1c8.8-5.1,16.3-12.1,21.9-20.4
	c15.4,27.8,21.8,60.3,18.1,92.1c-4,34.9-19.3,66.5-44.1,91.3c-29.5,29.5-68.9,45.2-109.1,45.2C191.3,361.3,174,358.4,157.2,352.5
	L157.2,352.5z"/>
<path class="st10" d="M118,339c-1.3,0-2.6-0.5-3.5-1.5l-13.2-13.2c-2-2-1.9-5.1,0-7.1s5.1-2,7.1,0l9.7,9.7l46.7-46.7
	c2-2,5.1-2,7.1,0s2,5.1,0,7.1l-50.2,50.2C120.6,338.5,119.3,339,118,339L118,339z"/>
<linearGradient id="SVGID_9_" gradientUnits="userSpaceOnUse" x1="247.4" y1="293.25" x2="290" y2="293.25" gradientTransform="matrix(1 0 0 -1 0 514)">
	<stop  offset="1.120000e-02" style="stop-color:#0575E6"/>
	<stop  offset="1" style="stop-color:#00F260"/>
</linearGradient>
<path class="st20" d="M282.4,228.9c4.7-3.9,7.6-9.8,7.6-16.3c0-11.8-9.6-21.3-21.3-21.3s-21.3,9.6-21.3,21.3c0,6.5,3,12.4,7.6,16.3
	c-4.7,3.9-7.6,9.8-7.6,16.3c0,2.8,2.2,5,5,5s5-2.2,5-5c0-6.2,5.1-11.3,11.3-11.3S280,239,280,245.2c0,2.8,2.2,5,5,5s5-2.2,5-5
	C290,238.6,287,232.8,282.4,228.9z M257.4,212.5c0-6.2,5.1-11.3,11.3-11.3s11.3,5.1,11.3,11.3s-5.1,11.3-11.3,11.3
	C262.4,223.9,257.4,218.8,257.4,212.5z"/>
<linearGradient id="SVGID_10_" gradientUnits="userSpaceOnUse" x1="133.152" y1="329.45" x2="160.952" y2="329.45" gradientTransform="matrix(1 0 0 -1 0 514)">
	<stop  offset="1.120000e-02" style="stop-color:#0575E6"/>
	<stop  offset="1" style="stop-color:#00F260"/>
</linearGradient>
<path class="st21" d="M149.6,203.7h-5c-6.3,0-11.4-5.1-11.4-11.4v-15.5c0-6.3,5.1-11.4,11.4-11.4h5c6.3,0,11.4,5.1,11.4,11.4v15.5
	C161,198.6,155.8,203.7,149.6,203.7L149.6,203.7z M144.6,175.5c-0.8,0-1.4,0.6-1.4,1.4v15.5c0,0.8,0.6,1.4,1.4,1.4h5
	c0.8,0,1.4-0.6,1.4-1.4v-15.5c0-0.8-0.6-1.4-1.4-1.4H144.6z"/>
<linearGradient id="SVGID_11_" gradientUnits="userSpaceOnUse" x1="166.545" y1="329.45" x2="181.665" y2="329.45" gradientTransform="matrix(1 0 0 -1 0 514)">
	<stop  offset="1.120000e-02" style="stop-color:#0575E6"/>
	<stop  offset="1" style="stop-color:#00F260"/>
</linearGradient>
<path class="st22" d="M176.7,203.7c-2.8,0-5-2.2-5-5v-23.3h-0.1c-2.8,0-5-2.2-5-5s2.2-5,5-5h5.1c2.8,0,5,2.2,5,5v28.3
	C181.7,201.5,179.4,203.7,176.7,203.7z"/>
</svg>
