<?xml version="1.0" encoding="utf-8"?>
<!-- Generator: Adobe Illustrator 23.0.3, SVG Export Plug-In . SVG Version: 6.00 Build 0)  -->
<svg version="1.1" id="b8be6891-8c6c-471d-9cef-5646484caaf2"
	 xmlns="http://www.w3.org/2000/svg" xmlns:xlink="http://www.w3.org/1999/xlink" x="0px" y="0px" viewBox="0 0 1044.1 832.6"
	 style="enable-background:new 0 0 1044.1 832.6;" xml:space="preserve">
<style type="text/css">
	.st0{opacity:0.1;fill:#00F260;enable-background:new    ;}
	.st1{fill:#535461;}
	.st2{opacity:0.1;enable-background:new    ;}
	.st3{fill:#FFFFFF;}
	.st4{opacity:0.2;}
	.st5{fill:#FFAF10;}
	.st6{fill:url(#SVGID_1_);}
	.st7{fill:#4C4C78;}
	.st8{fill:#FFB9B9;}
	.st9{fill:#CBCDDA;}
	.st10{opacity:5.000000e-02;enable-background:new    ;}
	.st11{fill:none;stroke:#0000FF;stroke-miterlimit:10;}
	.st12{fill:#474463;}
	.st13{fill:#472727;}
	.st14{opacity:0.1;}
</style>
<title>business plan</title>
<ellipse class="st0" cx="541.6" cy="802.7" rx="430.7" ry="29.9"/>
<path class="st0" d="M877.3,44.1c-26,1.2-38,8.8-59,19.3c-24.4,12.3-53.7,15.1-81.8,16.7C658,84.7,575,88.6,504.6,60
	c-24.8-10.1-47.1-23.8-71.7-34.3C381.7,4,322.1-2.6,264.3,0.8S150.4,17,95.5,32.1c-29.6,8.1-60.7,18-78.8,38.6
	C-5.8,96.2-2.1,131,8,161.3c21.3,64.1,67.8,122.5,130.9,164.9c12,8,25.5,16.6,28.3,29c3.6,15.6-11.1,29.8-25.6,40.6
	c-41,30.4-92.4,59.4-100.5,104c-8.6,47.3,39.8,91.6,95.8,106.7s117,8.1,175.1-0.3c39.6-5.7,80.4-12.4,113.7-30.7
	c11.5-6.3,22-14,34.5-19c47.1-19.1,102.2,3.7,149.7,22.3C687,609,775.8,629,858.1,609.7c45.3-10.6,85.6-32.5,121.3-57.5
	c18.8-13.1,37.7-28.8,41.1-48.7c5.4-31.2-27.9-56.8-57-77.8s-59.3-50.8-46.3-80.5c14.7-33.4,71.5-38.5,101.1-64.7
	c22.5-19.9,26.2-49.1,25.9-76c-0.4-38.2-7.2-78-34-109.4C981,60.9,928.3,41.8,877.3,44.1z"/>
<polygon class="st1" points="630.9,309.8 638,306.3 644.4,303.1 730.9,480.9 857.9,792 839.7,791.8 712.8,480.9 638,327.3 
	630.9,312.6 629.8,310.4 "/>
<polygon class="st1" points="532.2,480.9 617.4,303.1 621.8,305.3 630.9,309.8 632,310.4 630.9,312.6 621.8,331.3 549,480.9 
	422.1,791.8 407.1,792 "/>
<rect x="621.8" y="261.4" class="st1" width="16.2" height="530.6"/>
<path class="st1" d="M611.1,194.6v7.4c0,0.3,0,0.6,0,0.9c0.3,11.4,9.7,20.5,21.1,20.2c11.4-0.3,20.5-9.7,20.2-21.1v-7.4
	c0-11.4-9.2-20.6-20.7-20.6C620.4,174,611.1,183.2,611.1,194.6z M616.3,194.6L616.3,194.6c0-8.6,6.9-15.5,15.5-15.5
	s15.5,6.9,15.5,15.5v7.4c0,8.6-6.9,15.5-15.5,15.5s-15.5-6.9-15.5-15.5V194.6z"/>
<polygon class="st2" points="617.4,303.1 621.8,305.3 621.8,261.4 638,261.4 638,306.3 644.4,303.1 730.9,480.9 712.8,480.9 
	638,327.3 638,480.9 621.8,480.9 621.8,331.3 549,480.9 532.2,480.9 "/>
<path class="st2" d="M616.3,195.4v6.6c0,8.6,6.9,15.5,15.5,15.5s15.5-6.9,15.5-15.5v-6.6h5.2v6.6c0,0.3,0,0.6,0,0.9
	c-0.3,11.4-9.7,20.5-21.1,20.2c-11.4-0.3-20.5-9.7-20.2-21.1v-6.6L616.3,195.4L616.3,195.4z"/>
<rect x="319.7" y="196.8" class="st1" width="624.1" height="281.8"/>
<rect x="332.3" y="205.7" class="st3" width="600.5" height="256.7"/>
<g class="st4">
	<rect x="845" y="233.6" class="st5" width="28.4" height="12.9"/>
</g>
<g class="st4">
	<rect x="845" y="258.6" class="st5" width="28.4" height="12.9"/>
</g>
<g class="st4">
	<rect x="845" y="283.6" class="st5" width="28.4" height="12.9"/>
</g>
<g class="st4">
	<rect x="845" y="308.6" class="st5" width="28.4" height="12.9"/>
</g>
<g class="st4">
	<rect x="845" y="333.6" class="st5" width="28.4" height="12.9"/>
</g>
<g class="st4">
	<rect x="845" y="358.6" class="st5" width="28.4" height="12.9"/>
</g>
<g class="st4">
	<rect x="845" y="383.6" class="st5" width="28.4" height="12.9"/>
</g>
<g class="st4">
	<rect x="845" y="408.6" class="st5" width="28.4" height="12.9"/>
</g>
<g class="st4">
	<rect x="791.6" y="421.6" class="st5" width="28.4" height="12.9"/>
</g>
<g class="st4">
	<rect x="741.6" y="421.6" class="st5" width="28.4" height="12.9"/>
</g>
<g class="st4">
	<rect x="691.6" y="421.6" class="st5" width="28.4" height="12.9"/>
</g>
<g class="st4">
	<rect x="641.6" y="421.6" class="st5" width="28.4" height="12.9"/>
</g>
<g class="st4">
	<rect x="591.6" y="421.6" class="st5" width="28.4" height="12.9"/>
</g>
<g class="st4">
	<rect x="541.6" y="421.6" class="st5" width="28.4" height="12.9"/>
</g>
<g class="st4">
	<rect x="491.6" y="421.6" class="st5" width="28.4" height="12.9"/>
</g>
<g class="st4">
	<rect x="441.6" y="421.6" class="st5" width="28.4" height="12.9"/>
</g>
<g class="st4">
	<rect x="391.6" y="421.6" class="st5" width="28.4" height="12.9"/>
</g>
<rect x="791.6" y="327.6" class="st5" width="28.4" height="81"/>
<rect x="741.6" y="290.1" class="st5" width="28.4" height="118.6"/>
<rect x="691.6" y="258.6" class="st5" width="28.4" height="150"/>
<rect x="641.6" y="274.9" class="st5" width="28.4" height="133.7"/>
<rect x="591.6" y="246.5" class="st5" width="28.4" height="162.1"/>
<g class="st4">
	<rect x="541.6" y="308.6" class="st5" width="28.4" height="100"/>
</g>
<g class="st4">
	<rect x="491.6" y="308.6" class="st5" width="28.4" height="100"/>
</g>
<g class="st4">
	<rect x="441.6" y="308.6" class="st5" width="28.4" height="100"/>
</g>
<g class="st4">
	<rect x="391.6" y="308.6" class="st5" width="28.4" height="100"/>
</g>
<polygon class="st1" points="418,318.2 666.3,328.1 666.3,323.4 423.2,308.4 "/>
<linearGradient id="SVGID_1_" gradientUnits="userSpaceOnUse" x1="-893.7014" y1="1085.5454" x2="-893.7014" y2="397.5219" gradientTransform="matrix(-1 0 0 1 -618.3767 -279.72)">
	<stop  offset="0" style="stop-color:#808080;stop-opacity:0.25"/>
	<stop  offset="0.54" style="stop-color:#808080;stop-opacity:0.12"/>
	<stop  offset="1" style="stop-color:#808080;stop-opacity:0.1"/>
</linearGradient>
<path class="st6" d="M140.5,418.3c-4.3,19.7-12.1,44-12.1,44c7.7,9,41.3,10.6,41.3,10.6v-0.1h0.5c0.2,1.2,0.5,2.4,0.8,3.6
	c-0.1,1.1-0.1,2.3-0.2,3.4c-0.5,1.3-0.7,2.8-0.5,4.2c0.1,0.4,0.2,0.7,0.3,1c-0.8,17.8-1.4,36.8-0.9,47.8c0,3.1,0.3,6.2,1,9.3
	c0.6,2.3,0.9,4.7,1,7.1c0.5,16.1-3.4,43.1-3.4,43.1c0.1,0.2,0.2,0.4,0.2,0.6c-0.1,0.4-0.1,0.7-0.1,0.7c0.3,1.1,0.5,2.2,0.6,3.3
	c0.3,13.6-7.5,43.1-7.5,43.1s-6.3,45.4-5.4,62.6c0,1.6,0.1,3,0.3,4.1c1.9,14.4,4.5,54.5,4.5,54.5c0.4,0.7,0.9,1.3,1.5,1.9
	c-0.2,0.9-0.5,1.8-0.8,2.7c-3,9-4.3,18.6-3.8,28.1c0.1,1.2,0.2,2.3,0.3,3.6c1.3,14.9,37.1,5.6,39.5,3.9c0.8-0.6,0.2-6-0.9-12.8
	l36.9,9.1c0,0,26.2,3.9,38.6,0s12-14.6-5.8-16.3c-12.5-1.2-22.4-12.8-27.3-19.7c1.9-5.2,16.1-44.3,18.7-68.5
	c1.7-15.7,4.4-31.2,8.3-46.4l2.8-36l4.9-21.2l5.9-28.1c6.7-20.6,8.7-55,8.7-55l5.1-33.7c0.7-3.7,1.1-7.4,1.2-11.1
	c4.8,1,9.6,2.3,14.3,3.8c8-6.3-3.4-66.7-3.4-66.7s-5.5-38.1-10.1-72.9c10.7-1.6,22.2,0.9,22.2,0.9l67.6,1.5c1.4-1.8,2.6-3.8,3.6-5.9
	h2.9c0.4-0.5,0.6-1.1,0.8-1.6l1.2,0.2c4.4,1,8.7,2.3,12.9,3.9c0,0,21.3,2.6,18.1-19.8c-2.4-16.7-21.4-10.6-30.8-6.5l-1.2,0.5
	c-0.1-0.6-0.1-1-0.1-1l-3.1,0.6c-0.4-0.9-0.7-1.4-0.7-1.4s-33.1-1.3-60-5.3c-19.1-2.9-33.6-13.8-40.3-19.9
	c-4.7-23.9-18.4-31.2-18.4-31.2c-7.6-0.4-14.4-3.7-18.6-6.3c-1.5-0.9-3-1.9-4.4-3l-0.7,0.4l-0.1-0.1c4.5-4.2,9.3-8.1,13.5-11.4
	l1.9-1.4c4.4-0.4,8.7-1.6,12.7-3.4c20.9-9.3,30.4-33.8,21.1-54.7c-0.2-0.4-0.4-0.8-0.6-1.2c4.3-0.5,7.7-3.8,8.2-8.1
	c0.4-4.7-2.8-9.7-0.7-13.9c0.4-0.6,0.7-1.3,1-1.9c0.2-0.7,0.2-1.3,0.2-2c-0.3-4-2.4-7.6-5.6-10c-4.8-3.5-9.1-1.7-14.3-2
	c-6-0.4-12-1.8-18-2.8c-6.8-1.1-13.9-1.9-20.7-0.7s-13.5,4.6-17.5,10.3c-1.7,2.4-2.8,5.2-4.4,7.8c-1.8,2.9-4.2,5.4-6.3,8.1
	c-3.5,4.6-6.4,10-6.1,15.8c0.2,3.3,1.3,6.4,1.5,9.6c0.2,3.1-0.4,6.1-0.7,9.1c-0.3,3.9-0.1,7.8,0.7,11.6c0.2,1.2,0.6,2.3,1.3,3.3
	c0.8,0.9,1.8,1.5,2.9,1.9c1.2,0.5,2.4,0.8,3.6,1.1c-1.4,3.2-3,6.2-5,9c-1.1-1.2-1.8-1.9-1.8-1.9l-4.9,7.6c-0.1-0.3-0.2-0.5-0.2-0.5
	c-0.2,0.5-0.5,0.9-0.8,1.4c-0.3-0.9-0.5-1.4-0.5-1.4c-2.2,4.4-6.2,8-11,11c-12.8,8.1-30.7,11.4-30.7,11.4
	c-28.8,4.2-23.5,33.9-23.5,33.9s-12.2,53.1-15.6,85.9s9.3,53.7,9.3,53.7L140.5,418.3z M277.8,321.3c1.1,3.7,2.2,7.1,3,10.1l-0.5,0.2
	C279.6,328.9,278.8,325.3,277.8,321.3z M246.2,232.2l-0.2,0.1L246.2,232.2L246.2,232.2z M204.1,752.7c-4,8-6.9,29-7.8,34.4
	c-1.4-8.4-3.5-18.6-4.8-24.7c0.9-3,2.1-7.5,3.6-14.3c3.2-15.2,5.1-69.1,5.1-69.1l7.5-45.3c6.9-17.4,8.4-38,8.4-38
	c2.8-7.3,9.2-51.9,10.2-59.1c-0.3,5-1,17.5-1.3,31.4l-0.1,0.4c-0.3,10.5-0.4,21.8,0,31.2l0,0c0.1,2.6,0.2,5.1,0.4,7.4
	c0,0.6,0.1,1.2,0.1,1.8c0.8,24.3-10,54.8-10,54.8s-4.8,22.6-4.1,35.3c0,2.3,0.3,4.6,1,6.8c0.3,1,0.5,2,0.5,3.1
	C213.1,721.1,206,746.5,204.1,752.7L204.1,752.7z"/>
<path class="st7" d="M207.4,747.1c-6,1.9-10.4,38.5-10.4,38.5l37,9.1c0,0,25.9,3.8,38.3,0s11.9-14.5-5.7-16.2S236.4,754,236.4,754
	S213.3,745.1,207.4,747.1z"/>
<path class="st7" d="M164,754.5c0.3,2.4-0.4,5.6-1.4,8.6c-3,9-4.2,18.4-3.7,27.8c0.1,1.1,0.2,2.3,0.3,3.5
	c1.3,14.7,36.8,5.5,39.1,3.8s-7-43.8-7-43.8S163.4,748.5,164,754.5z"/>
<path class="st8" d="M220.6,199.1c3-6.9,4-14.5,2.9-21.9c-3.8-27.1,50.1,35.7,50.1,35.7s-5.9,3.8-13.6,9.8
	c-15.1,11.7-37,31.6-33.6,46.6c5.1,22.6-23.6-47.9-23.6-47.9S214.6,213.2,220.6,199.1z"/>
<path class="st8" d="M387.6,302.5c0,0,2.1-1.2,5.3-2.6c9.4-4.1,28.2-10.1,30.6,6.4c3.2,22.2-17.9,19.6-17.9,19.6
	c-4.2-1.6-8.5-2.9-12.8-3.9c-2.6-0.6-5-0.8-6.6-0.4L387.6,302.5z"/>
<path class="st2" d="M387.6,302.5c0,0,2.1-1.2,5.3-2.6c0.4,2.6,2.1,16.3-0.2,22.1c-2.6-0.6-5-0.8-6.6-0.4L387.6,302.5z"/>
<path class="st9" d="M384.4,323.5h6.4c3.7-5,0.9-24,0.9-24l-5.5,1L384.4,323.5z"/>
<path class="st7" d="M270.7,355.6l1.1,55.9l7,26.4c0,0,3.4,25.5,7.7,23.4s22.2,3.9,22.2,3.9l0.8-9.5l-6.1-55.6l-4.7-27.8
	c0,0-2.7-21.8-4.7-34.6s-18.9-2.6-18.9-2.6L270.7,355.6z"/>
<path class="st2" d="M270.7,355.6l1.1,55.9l7,26.4c0,0,3.4,25.5,7.7,23.4s22.2,3.9,22.2,3.9l0.8-9.5l-6.1-55.6l-4.7-27.8
	c0,0-2.7-21.8-4.7-34.6s-18.9-2.6-18.9-2.6L270.7,355.6z"/>
<path class="st7" d="M291,327.8c11.5-3.2,26.3,0,26.3,0l67,1.5c12-15.8,3.7-30.6,3.7-30.6s-32.9-1.3-59.5-5.3s-44.2-23.8-44.2-23.8
	L291,327.8z"/>
<path class="st10" d="M291,327.8c11.5-3.2,26.3,0,26.3,0l67,1.5c12-15.8,3.7-30.6,3.7-30.6s-32.9-1.3-59.5-5.3s-44.2-23.8-44.2-23.8
	L291,327.8z"/>
<path class="st11" d="M429.9,350.9"/>
<path class="st2" d="M223.5,177.2c-3.8-27.1,50.1,35.7,50.1,35.7s-5.9,3.8-13.6,9.8c-0.7,0-1.4,0-2.2,0c-16.5,0-27.9-10.3-34.4-24.3
	C226.1,192.2,224.7,185.5,223.5,177.2z"/>
<path class="st8" d="M216.8,180.2c0-22.6,18.4-41,41.1-40.9c22.7,0,41.1,18.4,41.1,41.1s-18.4,41.1-41.1,41.1s-41.1-18.4-41.1-41.1
	C216.8,180.3,216.8,180.3,216.8,180.2z"/>
<path class="st9" d="M200.8,343.9l2-122.4l21.4,11.2l17.7,4.2l4.5-2.6l0.3-0.2l0.7-0.4c0,0,0.2,0.5,0.7,1.5
	c3.9,8.2,22.8,48.4,22.4,51.8c-0.4,3.8,11.1,51.7,11.1,51.7l-0.2,1.7l-4.1,44.2c0,0,12.7,31.7,9.3,43.4s-95,3.6-95,3.6L200.8,343.9z
	"/>
<path class="st2" d="M235.4,241.9l7.1,9.1l1.1,2.7c4,9.4,6.3,19.5,6.8,29.7v11.8l1.5,95.1l8.2,14.6l1.5-18.1L258.3,285l-4.5-23
	l-2.4-14.6c-1.3-2.5-2.4-5.2-3.4-7.9c-2.4-6.3-8.7-4.6-8.7-4.6L235.4,241.9z"/>
<path class="st7" d="M236.6,240.7l7.1,9.1l1.2,2.7c4,9.4,6.3,19.5,6.8,29.7V294l1.5,95l8.2,14.6l1.5-18.1l-3.3-101.8l-4.5-23
	l-2.4-14.6c-1.3-2.5-2.4-5.2-3.4-7.9c-2.4-6.3-8.7-4.6-8.7-4.6L236.6,240.7z"/>
<path class="st2" d="M205.3,220.8l3.4,8.3c4,1.9,26.8,25.1,26.8,25.1c3.8-3.4,7.7-20.8,7.7-20.8c-7.7-2.7-29.3-25.7-29.3-25.7
	L205.3,220.8z"/>
<path class="st9" d="M205.3,219.5l3.4,8.3c4,1.9,26.8,25.1,26.8,25.1c3.8-3.4,7.7-20.8,7.7-20.8c-7.7-2.7-29.3-25.7-29.3-25.7
	L205.3,219.5z"/>
<path class="st2" d="M246.7,234c0.3,0.3,0.8,0.6,1.4,1c3.9,8.2,22.8,48.4,22.4,51.8c-0.4,3.8,11.1,51.7,11.1,51.7l-0.2,1.7
	c-2.2-10.1-13.3-44.8-15.3-51.2c-0.2-0.6-0.3-1-0.3-1l-12.4-35.1l-7-18.6l-0.2-0.6L246.7,234z"/>
<path class="st7" d="M251.8,236.6c4.2,2.5,10.9,5.9,18.5,6.3c0,0,16.3,8.6,19.3,38.1s15.8,118.2,15.8,118.2s11.4,59.8,3.4,66
	l-8.9-73.2c0,0-15.6-42.3-16.8-50.1c-1-7.1-13.4-46-15.6-52.9c-0.2-0.6-0.3-1-0.3-1l-12.4-35.1l-7.2-19.2
	C248.8,234.7,250.3,235.7,251.8,236.6z"/>
<path class="st2" d="M162.5,639.6c0,0,10-37.9,6.8-47.3c0,0,5.7-39.3,2.3-51s2.3-98,2.3-98l1.9-16.2l1.1-9.1l0.5-3.8
	c0,0,0.8,0.3,2.2,0.7c21.1,6.2,42.8,10.1,64.8,11.9c4.9,0.3,9.7-0.1,14.5-1.2c8.7-2,25.5-4.4,28.4-6.5c0,0,1,2.7,2.3,7.1
	c2.9,10.2,7.2,29.6,3.9,46.2l-5.1,33.5c0,0-2,34.1-8.6,54.5l-5.8,27.8l-4.9,21.1l-2.8,35.7c-3.8,15.1-6.5,30.5-8.2,46
	c-2.8,25.7-18.7,68.5-18.7,68.5s-33.9,4.7-34.9-6.8c0,0,11.9-39.5,8.5-49.1s3.2-40.4,3.2-40.4s11.7-32.9,9.8-57.4s1.1-70.8,1.1-70.8
	s-7.2,51.7-10.2,59.5c0,0-1.5,20.4-8.3,37.6l-7.5,44.8c0,0-1.9,53.3-5.1,68.5s-5.3,19.1-5.3,19.1s-19.8,7.2-28.7-6.2
	c0,0-2.6-39.8-4.5-54C155.5,690.3,162.5,639.6,162.5,639.6z"/>
<path class="st12" d="M162.5,638.4c0,0,10-37.9,6.8-47.2c0,0,5.7-39.3,2.3-51s2.3-98,2.3-98l1.9-16.2l1.1-9.1l0.5-3.8l2.2,0.7
	c21.1,6.2,42.8,10.1,64.8,11.9c4.9,0.3,9.8-0.1,14.5-1.2c8.7-2,25.5-4.4,28.4-6.5c0,0,1,2.7,2.3,7.1c2.9,10.2,7.2,29.6,3.9,46.2
	l-5.1,33.5c0,0-2,34.1-8.6,54.5l-5.8,27.8l-4.9,21l-2.8,35.7c-3.8,15.1-6.5,30.5-8.2,46c-2.8,25.7-18.7,68.4-18.7,68.4
	s-33.9,4.7-34.9-6.8c0,0,11.9-39.6,8.5-49.1s3.2-40.4,3.2-40.4s11.7-32.9,9.8-57.4s1.1-70.8,1.1-70.8s-7.2,51.7-10.2,59.5
	c0,0-1.5,20.5-8.3,37.7l-7.5,44.9c0,0-1.9,53.3-5.1,68.5s-5.3,19.1-5.3,19.1s-19.8,7.2-28.7-6.2c0,0-2.6-39.8-4.5-54
	C155.5,689,162.5,638.4,162.5,638.4z"/>
<path class="st2" d="M216.7,180.4c0-16.2,9.6-31,24.4-37.5c20.7-9.2,45,0.2,54.2,20.9c-0.5,0.1-1,0.1-1.4,0.1
	c-1.6,0-3.4-0.5-4.8,0.4s-1.7,2.7-1.8,4.3c-0.3,3.3-0.6,7.3-3.6,8.7c-0.7,0.2-1.3,0.5-1.9,0.8c-2.3,1.5-1.3,5.2-2.7,7.6
	c-1.3,1.8-3.5,2.6-5.6,1.9c-2-0.7-3.7-2.2-4.7-4.1c-1.3-2.2-2-5.1-4.3-6.3c-1.8-0.8-3.8-0.8-5.5,0.1c-1.7,0.9-3.3,2-4.6,3.4
	c-2.1,1.8-4,3.7-5.9,5.8c-2.8,3.4-4.9,7.3-8.2,10.2c-4.8,4.2-11.6,5.5-18,4.4C218.6,194.6,216.7,187.6,216.7,180.4L216.7,180.4z"/>
<path class="st13" d="M283.6,124.9c-6-0.4-12-1.8-17.9-2.8c-6.8-1.1-13.8-1.8-20.5-0.7s-13.4,4.5-17.4,10.2
	c-1.7,2.4-2.8,5.2-4.4,7.7c-1.8,2.9-4.1,5.4-6.2,8.1c-3.5,4.5-6.3,9.9-6,15.6c0.2,3.2,1.3,6.3,1.5,9.6c0.2,3-0.4,6-0.7,9
	c-0.3,3.8-0.1,7.7,0.7,11.4c0.2,1.2,0.6,2.3,1.3,3.3c0.8,0.8,1.8,1.5,2.9,1.8c7.6,3.1,17.1,2.6,23.3-2.9c3.3-2.9,5.4-6.8,8.2-10.2
	c1.8-2.1,3.8-4,5.9-5.8c1.4-1.4,2.9-2.5,4.6-3.4s3.8-0.9,5.5-0.1c2.3,1.3,3,4.1,4.3,6.3c1,1.9,2.7,3.4,4.7,4.1
	c2.1,0.7,4.4-0.1,5.6-1.9c1.4-2.4,0.4-6.1,2.7-7.6c0.6-0.3,1.3-0.6,1.9-0.8c3-1.4,3.3-5.4,3.6-8.7c0.1-1.6,0.5-3.4,1.8-4.3
	s3.2-0.4,4.8-0.4c4.6,0,8.4-3.5,9-8c0.4-4.6-2.8-9.6-0.7-13.8c0.4-0.6,0.7-1.3,1-1.9c0.2-0.6,0.2-1.3,0.2-1.9
	c-0.3-4-2.3-7.6-5.5-9.9C293.1,123.5,288.9,125.3,283.6,124.9z"/>
<path class="st2" d="M251.8,236.6l15.6,52.5l0,0c-0.2-0.6-0.3-1-0.3-1L254.7,253l-7.2-19.2C248.8,234.7,250.3,235.7,251.8,236.6z"/>
<path class="st8" d="M178.1,444.7l14,6.8L175.4,483c-6.3-5.9-5.5-29.1-5.5-29.1L178.1,444.7z"/>
<path class="st2" d="M145.6,397.6c-1.8-13.7-1.4-128.4-1.4-128.4s-5.3-29.5,23.3-33.6c0,0,17.7-3.3,30.4-11.3
	c4.7-3,8.7-6.6,10.9-10.9c0,0,20.6,56.9,22,66c0,0,9.2,40.4,10,54.4s1.3,32.8-13.4,57.3s-22.5,29.8-22.5,29.8l-33,52
	c0,0-33.3-1.6-41-10.5C130.9,462.3,147.3,411.3,145.6,397.6z"/>
<polygon class="st9" points="184.1,444.7 190.5,449.7 182,462.5 170.4,466.8 169.4,458.3 "/>
<path class="st2" d="M176.9,416.8l2.6-3.1c21.1,6.2,42.8,10.1,64.8,11.9c4.9,0.3,9.8-0.1,14.5-1.2c8.7-2,25.5-4.4,28.4-6.5
	c0,0,1,2.7,2.3,7.1l-27.1,5.4c-9.2,1.9-18.7,2.3-28.1,1.4l-58.4-5.8l-6.1-0.6L176.9,416.8z"/>
<g class="st14">
	<path d="M287.3,418c-0.1-0.1-0.1-0.1-0.1-0.1c-0.2,0.1-0.4,0.2-0.6,0.3L287.3,418z"/>
	<path d="M157.4,703.3c1.9,14.2,4.5,54,4.5,54c8.9,13.4,28.7,6.2,28.7,6.2l0.1-0.2c-6.2,1.4-18.5,2.6-25-7.2c0,0-2.6-39.8-4.5-54
		s5.1-64.9,5.1-64.9s10-37.9,6.8-47.2c0,0,5.7-39.3,2.3-51s2.3-98,2.3-98l1.9-16.2l1.1-9.1l0.2-1.5l-1.4-0.4l-2.2-0.7l-0.4,3.8
		l-1.1,9.1l-1.9,16.2c0,0-5.8,86.3-2.3,98s-2.3,51-2.3,51c3.2,9.3-6.8,47.2-6.8,47.2S155.4,689,157.4,703.3z"/>
	<path d="M204.4,751.6c1.1,11.5,34.9,6.8,34.9,6.8l0.3-0.9c-8.7,0.8-30.5,2-31.4-7.2c0,0,11.9-39.5,8.5-49.1s3.2-40.4,3.2-40.4
		s11.7-33,9.8-57.4s1.1-70.8,1.1-70.8s-2.6,18.5-5.3,35c-0.3,12.8-0.4,26.8,0.4,37C227.7,629,216,662,216,662s-6.6,30.8-3.2,40.4
		S204.3,751.5,204.4,751.6z"/>
</g>
<path class="st7" d="M144.3,397.6c-1.8-13.7-1.4-128.4-1.4-128.4s-5.3-29.5,23.3-33.6c0,0,17.7-3.3,30.4-11.3
	c4.7-3,8.7-6.6,10.9-10.9c0,0,20.6,56.9,22,66c0,0,9.2,40.4,10,54.4s1.3,32.8-13.4,57.3s-22.5,29.8-22.5,29.8l-33,52
	c0,0-33.3-1.6-41-10.5C129.6,462.3,146.1,411.3,144.3,397.6z"/>
<path class="st2" d="M196.6,224.2c4.7-3,8.7-6.6,10.9-10.9c0,0,20.6,56.9,22,66c0,0,9.2,40.4,10,54.4l-35.7-86.1l4.8-3.4l-7.2-2.7
	L196.6,224.2z"/>
<polygon class="st2" points="188.8,409.5 151.4,400.5 156.2,385.6 192.8,395 "/>
<path class="st2" d="M144.1,269.2c0,0-12.1,52.6-15.5,85.2s9.3,53.3,9.3,53.3l27,59.8c9.3-2.4,28.1-22,28.1-22l-27-74.8
	c0,0,10-37.8,16.3-72.6S172,247.7,172,247.7C144.1,237.1,144.1,269.2,144.1,269.2z"/>
<path class="st7" d="M142.8,269.2c0,0-12.1,52.6-15.5,85.2s9.3,53.3,9.3,53.3l27,59.8c9.3-2.4,28.1-22,28.1-22l-27-74.8
	c0,0,10-37.8,16.3-72.6s-10.4-50.4-10.4-50.4C142.8,237.1,142.8,269.2,142.8,269.2z"/>
<path class="st2" d="M194.8,454.9l-7.5,21.3l-8.3,11.4c0,0-6.2,4.2-7.8-3.6s19.5-36.9,19.5-36.9
	C194.1,445.7,194.8,454.9,194.8,454.9z"/>
<path class="st2" d="M197.4,454.9l-7.4,21.3l-8.3,11.4c0,0-6.2,4.2-7.8-3.6s19.5-36.9,19.5-36.9
	C196.7,445.7,197.4,454.9,197.4,454.9z"/>
<path class="st12" d="M196.1,454.9l-7.4,21.3l-8.3,11.4c0,0-6.2,4.2-7.8-3.6s19.5-36.9,19.5-36.9
	C195.4,445.7,196.1,454.9,196.1,454.9z"/>
</svg>
