<svg xmlns="http://www.w3.org/2000/svg" viewBox="0 0 1044.1 832.6"><ellipse cx="541.6" cy="802.7" rx="430.7" ry="29.9" opacity=".1" fill="#00f260"/><path d="M877.3 44.1c-26 1.2-38 8.8-59 19.3-24.4 12.3-53.7 15.1-81.8 16.7C658 84.7 575 88.6 504.6 60c-24.8-10.1-47.1-23.8-71.7-34.3C381.7 4 322.1-2.6 264.3.8S150.4 17 95.5 32.1c-29.6 8.1-60.7 18-78.8 38.6C-5.8 96.2-2.1 131 8 161.3c21.3 64.1 67.8 122.5 130.9 164.9 12 8 25.5 16.6 28.3 29 3.6 15.6-11.1 29.8-25.6 40.6-41 30.4-92.4 59.4-100.5 104-8.6 47.3 39.8 91.6 95.8 106.7s117 8.1 175.1-.3c39.6-5.7 80.4-12.4 113.7-30.7 11.5-6.3 22-14 34.5-19 47.1-19.1 102.2 3.7 149.7 22.3C687 609 775.8 629 858.1 609.7c45.3-10.6 85.6-32.5 121.3-57.5 18.8-13.1 37.7-28.8 41.1-48.7 5.4-31.2-27.9-56.8-57-77.8s-59.3-50.8-46.3-80.5c14.7-33.4 71.5-38.5 101.1-64.7 22.5-19.9 26.2-49.1 25.9-76-.4-38.2-7.2-78-34-109.4-29.2-34.2-81.9-53.3-132.9-51z" opacity=".1" fill="#00f260"/><path fill="#535461" d="M630.9 309.8l7.1-3.5 6.4-3.2 86.5 177.8 127 311.1-18.2-.2-126.9-310.9L638 327.3l-7.1-14.7-1.1-2.2z"/><path fill="#535461" d="M532.2 480.9l85.2-177.8 4.4 2.2 9.1 4.5 1.1.6-1.1 2.2-9.1 18.7L549 480.9 422.1 791.8l-15 .2z"/><path fill="#535461" d="M621.8 261.4H638V792h-16.2zm-10.7-66.8v8.3c.3 11.4 9.7 20.5 21.1 20.2 11.4-.3 20.5-9.7 20.2-21.1v-7.4c0-11.4-9.2-20.6-20.7-20.6-11.3 0-20.6 9.2-20.6 20.6zm5.2 0c0-8.6 6.9-15.5 15.5-15.5s15.5 6.9 15.5 15.5v7.4c0 8.6-6.9 15.5-15.5 15.5s-15.5-6.9-15.5-15.5v-7.4z"/><path opacity=".1" d="M617.4 303.1l4.4 2.2v-43.9H638v44.9l6.4-3.2 86.5 177.8h-18.1L638 327.3v153.6h-16.2V331.3L549 480.9h-16.8zm-1.1-107.7v6.6c0 8.6 6.9 15.5 15.5 15.5s15.5-6.9 15.5-15.5v-6.6h5.2v7.5c-.3 11.4-9.7 20.5-21.1 20.2-11.4-.3-20.5-9.7-20.2-21.1v-6.6h5.1z"/><path fill="#535461" d="M319.7 196.8h624.1v281.8H319.7z"/><path fill="#fff" d="M332.3 205.7h600.5v256.7H332.3z"/><path fill="#ffaf10" d="M845 233.6h28.4v12.9H845zm0 25h28.4v12.9H845zm0 25h28.4v12.9H845zm0 25h28.4v12.9H845zm0 25h28.4v12.9H845zm0 25h28.4v12.9H845zm0 25h28.4v12.9H845zm0 25h28.4v12.9H845zm-53.4 13H820v12.9h-28.4zm-50 0H770v12.9h-28.4zm-50 0H720v12.9h-28.4zm-50 0H670v12.9h-28.4zm-50 0H620v12.9h-28.4zm-50 0H570v12.9h-28.4zm-50 0H520v12.9h-28.4zm-50 0H470v12.9h-28.4zm-50 0H420v12.9h-28.4z" opacity=".2"/><path fill="#ffaf10" d="M791.6 327.6H820v81h-28.4zm-50-37.5H770v118.6h-28.4zm-50-31.5H720v150h-28.4zm-50 16.3H670v133.7h-28.4zm-50-28.4H620v162.1h-28.4z"/><path fill="#ffaf10" d="M541.6 308.6H570v100h-28.4zm-50 0H520v100h-28.4zm-50 0H470v100h-28.4zm-50 0H420v100h-28.4z" opacity=".2"/><path fill="#535461" d="M418 318.2l248.3 9.9v-4.7l-243.1-15z"/><linearGradient id="busines-plan_svg__a" gradientUnits="userSpaceOnUse" x1="-893.701" y1="1085.545" x2="-893.701" y2="397.522" gradientTransform="matrix(-1 0 0 1 -618.377 -279.72)"><stop offset="0" stop-color="gray" stop-opacity=".25"/><stop offset=".54" stop-color="gray" stop-opacity=".12"/><stop offset="1" stop-color="gray" stop-opacity=".1"/></linearGradient><path d="M140.5 418.3c-4.3 19.7-12.1 44-12.1 44 7.7 9 41.3 10.6 41.3 10.6v-.1h.5c.2 1.2.5 2.4.8 3.6-.1 1.1-.1 2.3-.2 3.4-.5 1.3-.7 2.8-.5 4.2.1.4.2.7.3 1-.8 17.8-1.4 36.8-.9 47.8 0 3.1.3 6.2 1 9.3.6 2.3.9 4.7 1 7.1.5 16.1-3.4 43.1-3.4 43.1.1.2.2.4.2.6-.1.4-.1.7-.1.7.3 1.1.5 2.2.6 3.3.3 13.6-7.5 43.1-7.5 43.1s-6.3 45.4-5.4 62.6c0 1.6.1 3 .3 4.1 1.9 14.4 4.5 54.5 4.5 54.5.4.7.9 1.3 1.5 1.9-.2.9-.5 1.8-.8 2.7-3 9-4.3 18.6-3.8 28.1.1 1.2.2 2.3.3 3.6 1.3 14.9 37.1 5.6 39.5 3.9.8-.6.2-6-.9-12.8l36.9 9.1s26.2 3.9 38.6 0 12-14.6-5.8-16.3c-12.5-1.2-22.4-12.8-27.3-19.7 1.9-5.2 16.1-44.3 18.7-68.5 1.7-15.7 4.4-31.2 8.3-46.4l2.8-36 4.9-21.2 5.9-28.1c6.7-20.6 8.7-55 8.7-55l5.1-33.7c.7-3.7 1.1-7.4 1.2-11.1 4.8 1 9.6 2.3 14.3 3.8 8-6.3-3.4-66.7-3.4-66.7s-5.5-38.1-10.1-72.9c10.7-1.6 22.2.9 22.2.9l67.6 1.5c1.4-1.8 2.6-3.8 3.6-5.9h2.9c.4-.5.6-1.1.8-1.6l1.2.2c4.4 1 8.7 2.3 12.9 3.9 0 0 21.3 2.6 18.1-19.8-2.4-16.7-21.4-10.6-30.8-6.5l-1.2.5c-.1-.6-.1-1-.1-1l-3.1.6c-.4-.9-.7-1.4-.7-1.4s-33.1-1.3-60-5.3c-19.1-2.9-33.6-13.8-40.3-19.9-4.7-23.9-18.4-31.2-18.4-31.2-7.6-.4-14.4-3.7-18.6-6.3-1.5-.9-3-1.9-4.4-3l-.7.4-.1-.1c4.5-4.2 9.3-8.1 13.5-11.4l1.9-1.4c4.4-.4 8.7-1.6 12.7-3.4 20.9-9.3 30.4-33.8 21.1-54.7l-.6-1.2c4.3-.5 7.7-3.8 8.2-8.1.4-4.7-2.8-9.7-.7-13.9.4-.6.7-1.3 1-1.9.2-.7.2-1.3.2-2-.3-4-2.4-7.6-5.6-10-4.8-3.5-9.1-1.7-14.3-2-6-.4-12-1.8-18-2.8-6.8-1.1-13.9-1.9-20.7-.7s-13.5 4.6-17.5 10.3c-1.7 2.4-2.8 5.2-4.4 7.8-1.8 2.9-4.2 5.4-6.3 8.1-3.5 4.6-6.4 10-6.1 15.8.2 3.3 1.3 6.4 1.5 9.6.2 3.1-.4 6.1-.7 9.1-.3 3.9-.1 7.8.7 11.6.2 1.2.6 2.3 1.3 3.3.8.9 1.8 1.5 2.9 1.9 1.2.5 2.4.8 3.6 1.1-1.4 3.2-3 6.2-5 9-1.1-1.2-1.8-1.9-1.8-1.9l-4.9 7.6c-.1-.3-.2-.5-.2-.5-.2.5-.5.9-.8 1.4-.3-.9-.5-1.4-.5-1.4-2.2 4.4-6.2 8-11 11-12.8 8.1-30.7 11.4-30.7 11.4-28.8 4.2-23.5 33.9-23.5 33.9s-12.2 53.1-15.6 85.9 9.3 53.7 9.3 53.7l5.1 11.2zm137.3-97c1.1 3.7 2.2 7.1 3 10.1l-.5.2c-.7-2.7-1.5-6.3-2.5-10.3zm-31.6-89.1l-.2.1.2-.1zm-42.1 520.5c-4 8-6.9 29-7.8 34.4-1.4-8.4-3.5-18.6-4.8-24.7.9-3 2.1-7.5 3.6-14.3 3.2-15.2 5.1-69.1 5.1-69.1l7.5-45.3c6.9-17.4 8.4-38 8.4-38 2.8-7.3 9.2-51.9 10.2-59.1-.3 5-1 17.5-1.3 31.4l-.1.4c-.3 10.5-.4 21.8 0 31.2.1 2.6.2 5.1.4 7.4 0 .6.1 1.2.1 1.8.8 24.3-10 54.8-10 54.8s-4.8 22.6-4.1 35.3c0 2.3.3 4.6 1 6.8.3 1 .5 2 .5 3.1.3 12.3-6.8 37.7-8.7 43.9z" fill="url(#busines-plan_svg__a)"/><path d="M207.4 747.1c-6 1.9-10.4 38.5-10.4 38.5l37 9.1s25.9 3.8 38.3 0 11.9-14.5-5.7-16.2-30.2-24.5-30.2-24.5-23.1-8.9-29-6.9z" fill="#4c4c78"/><path d="M164 754.5c.3 2.4-.4 5.6-1.4 8.6-3 9-4.2 18.4-3.7 27.8.1 1.1.2 2.3.3 3.5 1.3 14.7 36.8 5.5 39.1 3.8s-7-43.8-7-43.8-27.9-5.9-27.3.1z" fill="#4c4c78"/><path d="M220.6 199.1c3-6.9 4-14.5 2.9-21.9-3.8-27.1 50.1 35.7 50.1 35.7s-5.9 3.8-13.6 9.8c-15.1 11.7-37 31.6-33.6 46.6 5.1 22.6-23.6-47.9-23.6-47.9s11.8-8.2 17.8-22.3zm167 103.4s2.1-1.2 5.3-2.6c9.4-4.1 28.2-10.1 30.6 6.4 3.2 22.2-17.9 19.6-17.9 19.6-4.2-1.6-8.5-2.9-12.8-3.9-2.6-.6-5-.8-6.6-.4l1.4-19.1z" fill="#ffb9b9"/><path d="M387.6 302.5s2.1-1.2 5.3-2.6c.4 2.6 2.1 16.3-.2 22.1-2.6-.6-5-.8-6.6-.4l1.5-19.1z" opacity=".1"/><path d="M384.4 323.5h6.4c3.7-5 .9-24 .9-24l-5.5 1-1.8 23z" fill="#cbcdda"/><path d="M270.7 355.6l1.1 55.9 7 26.4s3.4 25.5 7.7 23.4 22.2 3.9 22.2 3.9l.8-9.5-6.1-55.6-4.7-27.8s-2.7-21.8-4.7-34.6-18.9-2.6-18.9-2.6l-4.4 20.5z" fill="#4c4c78"/><path d="M270.7 355.6l1.1 55.9 7 26.4s3.4 25.5 7.7 23.4 22.2 3.9 22.2 3.9l.8-9.5-6.1-55.6-4.7-27.8s-2.7-21.8-4.7-34.6-18.9-2.6-18.9-2.6l-4.4 20.5z" opacity=".1"/><path d="M291 327.8c11.5-3.2 26.3 0 26.3 0l67 1.5c12-15.8 3.7-30.6 3.7-30.6s-32.9-1.3-59.5-5.3-44.2-23.8-44.2-23.8l6.7 58.2z" fill="#4c4c78"/><path d="M291 327.8c11.5-3.2 26.3 0 26.3 0l67 1.5c12-15.8 3.7-30.6 3.7-30.6s-32.9-1.3-59.5-5.3-44.2-23.8-44.2-23.8l6.7 58.2z" opacity=".05"/><path d="M223.5 177.2c-3.8-27.1 50.1 35.7 50.1 35.7s-5.9 3.8-13.6 9.8h-2.2c-16.5 0-27.9-10.3-34.4-24.3 2.7-6.2 1.3-12.9.1-21.2z" opacity=".1"/><path d="M216.8 180.2c0-22.6 18.4-41 41.1-40.9 22.7 0 41.1 18.4 41.1 41.1s-18.4 41.1-41.1 41.1-41.1-18.4-41.1-41.1v-.2z" fill="#ffb9b9"/><path d="M200.8 343.9l2-122.4 21.4 11.2 17.7 4.2 4.5-2.6.3-.2.7-.4s.2.5.7 1.5c3.9 8.2 22.8 48.4 22.4 51.8-.4 3.8 11.1 51.7 11.1 51.7l-.2 1.7-4.1 44.2s12.7 31.7 9.3 43.4-95 3.6-95 3.6l9.2-87.7z" fill="#cbcdda"/><path d="M235.4 241.9l7.1 9.1 1.1 2.7c4 9.4 6.3 19.5 6.8 29.7v11.8l1.5 95.1 8.2 14.6 1.5-18.1-3.3-101.8-4.5-23-2.4-14.6c-1.3-2.5-2.4-5.2-3.4-7.9-2.4-6.3-8.7-4.6-8.7-4.6l-3.9 7z" opacity=".1"/><path d="M236.6 240.7l7.1 9.1 1.2 2.7c4 9.4 6.3 19.5 6.8 29.7V294l1.5 95 8.2 14.6 1.5-18.1-3.3-101.8-4.5-23-2.4-14.6c-1.3-2.5-2.4-5.2-3.4-7.9-2.4-6.3-8.7-4.6-8.7-4.6l-4 7.1z" fill="#4c4c78"/><path d="M205.3 220.8l3.4 8.3c4 1.9 26.8 25.1 26.8 25.1 3.8-3.4 7.7-20.8 7.7-20.8-7.7-2.7-29.3-25.7-29.3-25.7l-8.6 13.1z" opacity=".1"/><path d="M205.3 219.5l3.4 8.3c4 1.9 26.8 25.1 26.8 25.1 3.8-3.4 7.7-20.8 7.7-20.8-7.7-2.7-29.3-25.7-29.3-25.7l-8.6 13.1z" fill="#cbcdda"/><path d="M246.7 234c.3.3.8.6 1.4 1 3.9 8.2 22.8 48.4 22.4 51.8-.4 3.8 11.1 51.7 11.1 51.7l-.2 1.7c-2.2-10.1-13.3-44.8-15.3-51.2-.2-.6-.3-1-.3-1l-12.4-35.1-7-18.6-.2-.6.5.3z" opacity=".1"/><path d="M251.8 236.6c4.2 2.5 10.9 5.9 18.5 6.3 0 0 16.3 8.6 19.3 38.1s15.8 118.2 15.8 118.2 11.4 59.8 3.4 66l-8.9-73.2s-15.6-42.3-16.8-50.1c-1-7.1-13.4-46-15.6-52.9-.2-.6-.3-1-.3-1l-12.4-35.1-7.2-19.2c1.2 1 2.7 2 4.2 2.9z" fill="#4c4c78"/><path d="M162.5 639.6s10-37.9 6.8-47.3c0 0 5.7-39.3 2.3-51s2.3-98 2.3-98l1.9-16.2 1.1-9.1.5-3.8s.8.3 2.2.7c21.1 6.2 42.8 10.1 64.8 11.9 4.9.3 9.7-.1 14.5-1.2 8.7-2 25.5-4.4 28.4-6.5 0 0 1 2.7 2.3 7.1 2.9 10.2 7.2 29.6 3.9 46.2l-5.1 33.5s-2 34.1-8.6 54.5l-5.8 27.8-4.9 21.1-2.8 35.7c-3.8 15.1-6.5 30.5-8.2 46-2.8 25.7-18.7 68.5-18.7 68.5s-33.9 4.7-34.9-6.8c0 0 11.9-39.5 8.5-49.1s3.2-40.4 3.2-40.4 11.7-32.9 9.8-57.4 1.1-70.8 1.1-70.8-7.2 51.7-10.2 59.5c0 0-1.5 20.4-8.3 37.6l-7.5 44.8s-1.9 53.3-5.1 68.5-5.3 19.1-5.3 19.1-19.8 7.2-28.7-6.2c0 0-2.6-39.8-4.5-54-2-14 5-64.7 5-64.7z" opacity=".1"/><path d="M162.5 638.4s10-37.9 6.8-47.2c0 0 5.7-39.3 2.3-51s2.3-98 2.3-98l1.9-16.2 1.1-9.1.5-3.8 2.2.7c21.1 6.2 42.8 10.1 64.8 11.9 4.9.3 9.8-.1 14.5-1.2 8.7-2 25.5-4.4 28.4-6.5 0 0 1 2.7 2.3 7.1 2.9 10.2 7.2 29.6 3.9 46.2l-5.1 33.5s-2 34.1-8.6 54.5l-5.8 27.8-4.9 21-2.8 35.7c-3.8 15.1-6.5 30.5-8.2 46-2.8 25.7-18.7 68.4-18.7 68.4s-33.9 4.7-34.9-6.8c0 0 11.9-39.6 8.5-49.1s3.2-40.4 3.2-40.4 11.7-32.9 9.8-57.4 1.1-70.8 1.1-70.8-7.2 51.7-10.2 59.5c0 0-1.5 20.5-8.3 37.7l-7.5 44.9s-1.9 53.3-5.1 68.5-5.3 19.1-5.3 19.1-19.8 7.2-28.7-6.2c0 0-2.6-39.8-4.5-54-2-14.2 5-64.8 5-64.8z" fill="#474463"/><path d="M216.7 180.4c0-16.2 9.6-31 24.4-37.5 20.7-9.2 45 .2 54.2 20.9-.5.1-1 .1-1.4.1-1.6 0-3.4-.5-4.8.4s-1.7 2.7-1.8 4.3c-.3 3.3-.6 7.3-3.6 8.7-.7.2-1.3.5-1.9.8-2.3 1.5-1.3 5.2-2.7 7.6-1.3 1.8-3.5 2.6-5.6 1.9-2-.7-3.7-2.2-4.7-4.1-1.3-2.2-2-5.1-4.3-6.3-1.8-.8-3.8-.8-5.5.1-1.7.9-3.3 2-4.6 3.4-2.1 1.8-4 3.7-5.9 5.8-2.8 3.4-4.9 7.3-8.2 10.2-4.8 4.2-11.6 5.5-18 4.4-3.7-6.5-5.6-13.5-5.6-20.7z" opacity=".1"/><path d="M283.6 124.9c-6-.4-12-1.8-17.9-2.8-6.8-1.1-13.8-1.8-20.5-.7s-13.4 4.5-17.4 10.2c-1.7 2.4-2.8 5.2-4.4 7.7-1.8 2.9-4.1 5.4-6.2 8.1-3.5 4.5-6.3 9.9-6 15.6.2 3.2 1.3 6.3 1.5 9.6.2 3-.4 6-.7 9-.3 3.8-.1 7.7.7 11.4.2 1.2.6 2.3 1.3 3.3.8.8 1.8 1.5 2.9 1.8 7.6 3.1 17.1 2.6 23.3-2.9 3.3-2.9 5.4-6.8 8.2-10.2 1.8-2.1 3.8-4 5.9-5.8 1.4-1.4 2.9-2.5 4.6-3.4s3.8-.9 5.5-.1c2.3 1.3 3 4.1 4.3 6.3 1 1.9 2.7 3.4 4.7 4.1 2.1.7 4.4-.1 5.6-1.9 1.4-2.4.4-6.1 2.7-7.6.6-.3 1.3-.6 1.9-.8 3-1.4 3.3-5.4 3.6-8.7.1-1.6.5-3.4 1.8-4.3s3.2-.4 4.8-.4c4.6 0 8.4-3.5 9-8 .4-4.6-2.8-9.6-.7-13.8.4-.6.7-1.3 1-1.9.2-.6.2-1.3.2-1.9-.3-4-2.3-7.6-5.5-9.9-4.7-3.4-8.9-1.6-14.2-2z" fill="#472727"/><path d="M251.8 236.6l15.6 52.5c-.2-.6-.3-1-.3-1L254.7 253l-7.2-19.2c1.3.9 2.8 1.9 4.3 2.8z" opacity=".1"/><path d="M178.1 444.7l14 6.8-16.7 31.5c-6.3-5.9-5.5-29.1-5.5-29.1l8.2-9.2z" fill="#ffb9b9"/><path d="M145.6 397.6c-1.8-13.7-1.4-128.4-1.4-128.4s-5.3-29.5 23.3-33.6c0 0 17.7-3.3 30.4-11.3 4.7-3 8.7-6.6 10.9-10.9 0 0 20.6 56.9 22 66 0 0 9.2 40.4 10 54.4s1.3 32.8-13.4 57.3-22.5 29.8-22.5 29.8l-33 52s-33.3-1.6-41-10.5c0-.1 16.4-51.1 14.7-64.8z" opacity=".1"/><path fill="#cbcdda" d="M184.1 444.7l6.4 5-8.5 12.8-11.6 4.3-1-8.5z"/><path d="M176.9 416.8l2.6-3.1c21.1 6.2 42.8 10.1 64.8 11.9 4.9.3 9.8-.1 14.5-1.2 8.7-2 25.5-4.4 28.4-6.5 0 0 1 2.7 2.3 7.1l-27.1 5.4c-9.2 1.9-18.7 2.3-28.1 1.4l-58.4-5.8-6.1-.6 7.1-8.6z" opacity=".1"/><path d="M287.3 418l-.1-.1-.6.3.7-.2zM157.4 703.3c1.9 14.2 4.5 54 4.5 54 8.9 13.4 28.7 6.2 28.7 6.2l.1-.2c-6.2 1.4-18.5 2.6-25-7.2 0 0-2.6-39.8-4.5-54s5.1-64.9 5.1-64.9 10-37.9 6.8-47.2c0 0 5.7-39.3 2.3-51s2.3-98 2.3-98l1.9-16.2 1.1-9.1.2-1.5-1.4-.4-2.2-.7-.4 3.8-1.1 9.1-1.9 16.2s-5.8 86.3-2.3 98-2.3 51-2.3 51c3.2 9.3-6.8 47.2-6.8 47.2s-7.1 50.6-5.1 64.9zm47 48.3c1.1 11.5 34.9 6.8 34.9 6.8l.3-.9c-8.7.8-30.5 2-31.4-7.2 0 0 11.9-39.5 8.5-49.1s3.2-40.4 3.2-40.4 11.7-33 9.8-57.4 1.1-70.8 1.1-70.8-2.6 18.5-5.3 35c-.3 12.8-.4 26.8.4 37C227.7 629 216 662 216 662s-6.6 30.8-3.2 40.4-8.5 49.1-8.4 49.2z" opacity=".1"/><path d="M144.3 397.6c-1.8-13.7-1.4-128.4-1.4-128.4s-5.3-29.5 23.3-33.6c0 0 17.7-3.3 30.4-11.3 4.7-3 8.7-6.6 10.9-10.9 0 0 20.6 56.9 22 66 0 0 9.2 40.4 10 54.4s1.3 32.8-13.4 57.3-22.5 29.8-22.5 29.8l-33 52s-33.3-1.6-41-10.5c0-.1 16.5-51.1 14.7-64.8z" fill="#4c4c78"/><path d="M196.6 224.2c4.7-3 8.7-6.6 10.9-10.9 0 0 20.6 56.9 22 66 0 0 9.2 40.4 10 54.4l-35.7-86.1 4.8-3.4-7.2-2.7-4.8-17.3zm-7.8 185.3l-37.4-9 4.8-14.9 36.6 9.4z" opacity=".1"/><path d="M144.1 269.2s-12.1 52.6-15.5 85.2 9.3 53.3 9.3 53.3l27 59.8c9.3-2.4 28.1-22 28.1-22l-27-74.8s10-37.8 16.3-72.6-10.3-50.4-10.3-50.4c-27.9-10.6-27.9 21.5-27.9 21.5z" opacity=".1"/><path d="M142.8 269.2s-12.1 52.6-15.5 85.2 9.3 53.3 9.3 53.3l27 59.8c9.3-2.4 28.1-22 28.1-22l-27-74.8s10-37.8 16.3-72.6-10.4-50.4-10.4-50.4c-27.8-10.6-27.8 21.5-27.8 21.5z" fill="#4c4c78"/><path d="M194.8 454.9l-7.5 21.3-8.3 11.4s-6.2 4.2-7.8-3.6 19.5-36.9 19.5-36.9c3.4-1.4 4.1 7.8 4.1 7.8z" opacity=".1"/><path d="M197.4 454.9l-7.4 21.3-8.3 11.4s-6.2 4.2-7.8-3.6 19.5-36.9 19.5-36.9c3.3-1.4 4 7.8 4 7.8z" opacity=".1"/><path d="M196.1 454.9l-7.4 21.3-8.3 11.4s-6.2 4.2-7.8-3.6 19.5-36.9 19.5-36.9c3.3-1.4 4 7.8 4 7.8z" fill="#474463"/></svg>