<svg xmlns="http://www.w3.org/2000/svg" viewBox="0 0 500 500"><linearGradient id="dashboard_svg__a" gradientUnits="userSpaceOnUse" x1="462.906" y1="40.901" x2="137.991" y2="365.815" gradientTransform="matrix(1 0 0 -1 0 502)"><stop offset="0" stop-color="#c9c9c9"/><stop offset="1" stop-color="#eff3f4"/></linearGradient><path d="M487.7 71.9v356.5H9.8V74.6c0-10 8.1-18.2 18.2-18.2h444.2c8.6 0 15.5 7 15.5 15.5z" fill="url(#dashboard_svg__a)"/><linearGradient id="dashboard_svg__b" gradientUnits="userSpaceOnUse" x1="51.218" y1="259.6" x2="62.377" y2="259.6" gradientTransform="matrix(1 0 0 -1 0 502)"><stop offset="0" stop-color="#c9c9c9"/><stop offset="1" stop-color="#eff3f4" stop-opacity="0"/></linearGradient><path fill="url(#dashboard_svg__b)" d="M57.1 56.4h11.2v372H57.1z"/><path d="M57.1 56.4H25.4c-8.6 0-15.5 7-15.5 15.5v356.5h47.3l-.1-372z" fill="#fff"/><path d="M487.7 71.9v29.9H9.8V71.9c0-8.6 7-15.5 15.5-15.5h446.8c8.7 0 15.6 7 15.6 15.5z" fill="#fff"/><circle cx="446.4" cy="79.1" r="11.7" fill="#d8d8d8"/><path d="M413.4 81.6v-4.9c0-3.6-2.9-6.5-6.5-6.5s-6.5 2.9-6.5 6.5v4.9l-2.3 3.3h5.7c0 1.7 1.4 3.1 3.1 3.1s3.1-1.4 3.1-3.1h5.7l-2.3-3.3zM382 77.3h-1.5c-.1-.5-.4-1-.6-1.5l1.1-1.1c.3-.3.3-.7 0-1l-1.6-1.6c-.3-.3-.7-.3-1 0l-1.1 1.1c-.5-.3-1-.5-1.5-.6V71c0-.4-.3-.7-.7-.7h-2.3c-.4 0-.7.3-.7.7v1.5c-.5.1-1 .4-1.5.6l-1.1-1.1c-.3-.3-.7-.3-1 0l-1.6 1.6c-.3.3-.3.7 0 1l1.1 1.1c-.3.5-.5 1-.6 1.5h-1.5c-.4 0-.7.3-.7.7v2.3c0 .4.3.7.7.7h1.5c.1.5.4 1 .6 1.5l-1.1 1.1c-.3.3-.3.7 0 1l1.6 1.6c.3.3.7.3 1 0l1.1-1.1c.5.3 1 .5 1.5.6v1.5c0 .4.3.7.7.7h2.3c.4 0 .7-.3.7-.7v-1.5c.5-.1 1-.4 1.5-.6l1.1 1.1c.3.3.7.3 1 0l1.6-1.6c.3-.3.3-.7 0-1l-1.1-1.1c.3-.5.5-1 .6-1.5h1.5c.4 0 .7-.3.7-.7V78c0-.4-.3-.7-.7-.7zm-8.1 5.4c-2 0-3.6-1.6-3.6-3.6s1.6-3.6 3.6-3.6 3.6 1.6 3.6 3.6-1.6 3.6-3.6 3.6z" fill="#9b9b9b"/><g fill="#9b9b9b"><path d="M32 82.7l-4.5-4.5-2.6 2.7 7.1 7 7.1-7-2.7-2.7z"/><path d="M39.1 73l-2.7-2.7-4.4 4.5-4.5-4.5-2.6 2.7 7.1 7z"/></g><linearGradient id="dashboard_svg__c" gradientUnits="userSpaceOnUse" x1="248.75" y1="406.897" x2="248.75" y2="393.387" gradientTransform="matrix(1 0 0 -1 0 502)"><stop offset="0" stop-color="#c9c9c9"/><stop offset="1" stop-color="#eff3f4" stop-opacity="0"/></linearGradient><path fill="url(#dashboard_svg__c)" d="M9.8 101.9h477.9v9.1H9.8z"/><circle cx="33.5" cy="131.5" r="11.7" fill="#02b4a3"/><path d="M27.1 130.9h3v5.1h-3zm4.3-2.7h3v7.8h-3zm4.3-2.9h3V136h-3z" fill="#fff"/><circle cx="33.5" cy="175.8" r="11.7" fill="#9b9b9b"/><path d="M28.2 170.5h4.7v4.7h-4.7zm5.9 0h4.7v4.7h-4.7zm-5.9 6h4.7v4.7h-4.7zm5.9 0h4.7v4.7h-4.7z" fill="#fff"/><circle cx="33.5" cy="220.1" r="11.7" fill="#9b9b9b"/><path d="M34.7 219.3c1.1-.5 1.9-1.6 1.9-2.9 0-1.8-1.4-3.2-3.2-3.2s-3.2 1.4-3.2 3.2c0 1.3.8 2.4 1.9 2.9-2.6.6-4.6 2.9-4.6 5.7v.4h11.7v-.4c.1-2.8-1.8-5.1-4.5-5.7z" fill="#fff"/><circle cx="33.5" cy="264.4" r="11.7" fill="#9b9b9b"/><path d="M38.8 269.3H28.1c-.4 0-.8-.4-.8-.8v-6h11.4c.4 0 .8.4.8.8v5.2c.1.4-.3.8-.7.8zm-4.4-7.7h-7.1v-1.2c0-.4.4-.8.8-.8h5.5c.4 0 .8.4.8.8v1.2z" fill="#fff"/><circle cx="33.5" cy="308.7" r="11.7" fill="#9b9b9b"/><g fill="#fff"><path d="M34.7 310.8v-2.5c0-.4.3-.7.7-.7h4v-2.2c0-.4-.3-.7-.7-.7H27.9c-.4 0-.7.3-.7.7v8.2c0 .4.3.7.7.7h10.7c.4 0 .7-.3.7-.7v-2.2h-4c-.3.1-.6-.2-.6-.6z"/><path d="M40.4 310.7h-4.8c-.1 0-.2-.1-.2-.2v-1.8c0-.1.1-.2.2-.2h4.8c.1 0 .2.1.2.2v1.8c0 .1-.1.2-.2.2zm-12.1-8H38v1.3h-9.7z"/></g><path d="M248.3 88H65c-1.3 0-2.3-1-2.3-2.3V72.6c0-1.3 1-2.3 2.3-2.3h183.3c1.3 0 2.3 1 2.3 2.3v13.1c0 1.3-1 2.3-2.3 2.3z" fill="#d8d8d8"/><path d="M78.7 83.6L75.1 80c.4-.7.7-1.5.7-2.4 0-1.3-.5-2.5-1.4-3.3-1.8-1.8-4.9-1.8-6.7 0-.9.9-1.4 2.1-1.4 3.3 0 1.3.5 2.5 1.4 3.3.9.9 2.1 1.4 3.3 1.4.8 0 1.6-.2 2.4-.7l3.6 3.6 1.7-1.6zm-9.3-4.3c-.4-.4-.7-1-.7-1.6s.2-1.2.7-1.6c.4-.4 1-.7 1.6-.7s1.2.2 1.6.7c.4.4.7 1 .7 1.6s-.2 1.2-.7 1.6c-.8.9-2.3.9-3.2 0z" fill="#fff"/><text transform="translate(85.57 81.129)" font-size="7.048" font-family="ArialMT" fill="#fff">Search your...</text><path fill="#fff" d="M446 118h25.3v25.3H446z"/><path d="M454.3 130.6c0 1.1-.9 2-2 2s-2-.9-2-2 .9-2 2-2c1 0 2 .9 2 2zm6.4 0c0 1.1-.9 2-2 2s-2-.9-2-2 .9-2 2-2 2 .9 2 2zm6.4 0c0 1.1-.9 2-2 2s-2-.9-2-2 .9-2 2-2 2 .9 2 2z" fill="#d8d8d8"/><path fill="#fff" d="M72.4 118h25.3v25.3H72.4z"/><path fill="#d8d8d8" d="M92.8 128.6h-8.2l2.4-2.4-2.6-2.6-5 5h-.1l-2 2 2 2.1h.1l5 5 2.6-2.6-2.4-2.4h8.2z"/><text transform="translate(107.004 134.65)" font-size="14.096" font-family="MSReferenceSansSerif" fill="#9b9b9b">Dashboard</text><path fill="#fff" d="M72.4 156.5h136.2v131H72.4zm0 146.2h196.1v109.1H72.4zm212 0h186.9v109.1H284.4z"/><text transform="translate(402.81 357.328)" font-size="16.231" font-family="ArialMT" fill="#9b9b9b">42%</text><g font-size="6.741" font-family="ArialMT" fill="#9b9b9b"><text transform="translate(408.22 367.522)">LOREM</text><text transform="translate(408.22 373.723)">IPSUM</text></g><path d="M420.7 319.2c-21 0-38.1 17.1-38.1 38.1s17.1 38.1 38.1 38.1c9.8 0 18.7-3.7 25.5-9.8 7.7-7 12.6-17.1 12.6-28.3 0-21.1-17-38.1-38.1-38.1zm20.7 61.6c-5.5 4.9-12.8 7.8-20.7 7.8-17.3 0-31.3-14-31.3-31.3s14-31.3 31.3-31.3 31.3 14 31.3 31.3c0 9.3-4.1 17.7-10.6 23.5z" fill="#d8d8d8"/><linearGradient id="dashboard_svg__d" gradientUnits="userSpaceOnUse" x1="405.037" y1="121.156" x2="470.563" y2="186.682" gradientTransform="matrix(1 0 0 -1 0 502)"><stop offset="0" stop-color="#00f260"/><stop offset="1" stop-color="#0575e6"/></linearGradient><path d="M458.8 357.3c0 11.2-4.9 21.3-12.6 28.3l-4.8-4.8c6.5-5.7 10.6-14.1 10.6-23.5 0-17.3-14-31.3-31.3-31.3v-6.8c21.1 0 38.1 17 38.1 38.1z" fill="url(#dashboard_svg__d)"/><text transform="translate(317.002 357.328)" font-size="16.231" font-family="ArialMT" fill="#9b9b9b">76%</text><g font-size="6.741" font-family="ArialMT" fill="#9b9b9b"><text transform="translate(322.411 367.522)">LOREM</text><text transform="translate(322.411 373.723)">IPSUM</text></g><path d="M354.8 324.8c-5.8-3.6-12.6-5.6-19.9-5.6-21 0-38.1 17.1-38.1 38.1 0 7.3 2 14.1 5.6 19.9 6.7 10.9 18.7 18.2 32.5 18.2 21 0 38.1-17.1 38.1-38.1 0-13.8-7.2-25.8-18.2-32.5zm-19.9 63.8c-11.9 0-22.2-6.6-27.5-16.4-2.4-4.4-3.8-9.5-3.8-14.9 0-17.3 14-31.3 31.3-31.3 5.4 0 10.5 1.4 14.9 3.8 9.8 5.3 16.4 15.6 16.4 27.5 0 17.3-14 31.3-31.3 31.3z" fill="#d8d8d8"/><linearGradient id="dashboard_svg__e" gradientUnits="userSpaceOnUse" x1="284.504" y1="73.679" x2="402.203" y2="191.378" gradientTransform="matrix(1 0 0 -1 0 502)"><stop offset="0" stop-color="#00f260"/><stop offset="1" stop-color="#0575e6"/></linearGradient><path d="M373 357.3c0 21-17.1 38.1-38.1 38.1-13.8 0-25.8-7.3-32.5-18.2l5-5c5.3 9.8 15.6 16.4 27.5 16.4 17.3 0 31.3-14 31.3-31.3 0-11.9-6.6-22.2-16.4-27.5l5-5c11 6.7 18.2 18.7 18.2 32.5z" fill="url(#dashboard_svg__e)"/><linearGradient id="dashboard_svg__f" gradientUnits="userSpaceOnUse" x1="170.5" y1="250.547" x2="170.5" y2="17.7" gradientTransform="matrix(1 0 0 -1 0 502)"><stop offset="0" stop-color="#00f260"/><stop offset="1" stop-color="#0575e6"/></linearGradient><path d="M101 385.2H89.9v-69H101v69zm21.5-46.1h-11.2v46.1h11.2v-46.1zm21.4 20.9h-11.2v25.3h11.2V360zm21.4-33.2h-11.2v58.4h11.2v-58.4zm21.5 19.4h-11.2v39.1h11.2v-39.1zm21.4-13H197v52h11.2v-52zm21.4-17h-11.2v69h11.2v-69zm21.5 7.9h-11.2v61.1h11.2v-61.1z" fill="url(#dashboard_svg__f)"/><text transform="translate(109.188 400.985)" font-size="6.741" font-family="ArialMT" fill="#9b9b9b">LOREM IPSUM DOLOR SIT AMET</text><path fill="#fff" d="M223.8 156.5h247.5v131H223.8z"/><linearGradient id="dashboard_svg__g" gradientUnits="userSpaceOnUse" x1="317.765" y1="326.1" x2="569.234" y2="326.1" gradientTransform="matrix(1 0 0 -1 0 502)"><stop offset="0" stop-color="#00f260"/><stop offset="1" stop-color="#0575e6"/></linearGradient><path fill="url(#dashboard_svg__g)" d="M402.9 168.5h57.2v14.8h-57.2z"/><path fill="#fff" d="M453.2 177.3l-1.8-1.8-1.1 1.1 2.9 2.8 2.8-2.8-1.1-1.1z"/><path fill="#fff" d="M456 173.4l-1.1-1-1.7 1.8-1.8-1.8-1.1 1 2.9 2.8z"/><text transform="translate(408.563 178.696)" font-size="7.048" font-family="ArialMT" fill="#fff">More info</text><text transform="translate(235.015 178.557)" font-size="9.397" font-family="ArialMT" fill="#9b9b9b">Statistics</text><g font-size="4.699" font-family="ArialMT" fill="#9b9b9b"><text transform="translate(235.015 197.442)">Year</text><text transform="translate(293.046 197.442)">Status</text><text transform="translate(352.166 197.442)">Completion</text></g><path fill="#d8d8d8" d="M235 203.1h225v1.2H235z"/><text transform="translate(235.013 217.267)" font-size="5.873" font-family="ArialMT" fill="#9b9b9b">2013</text><text transform="translate(283.72 217.267)" font-size="5.873" font-family="ArialMT" fill="#9b9b9b">Completed</text><text transform="translate(283.72 231.363)" font-size="5.873" font-family="ArialMT" fill="#9b9b9b">Completed</text><text transform="translate(283.023 245.459)" font-size="5.873" font-family="ArialMT" fill="#9b9b9b">Not Started</text><text transform="translate(283.736 259.556)" font-size="5.873" font-family="ArialMT" fill="#9b9b9b">In Progress</text><text transform="translate(283.736 273.65)" font-size="5.873" font-family="ArialMT" fill="#9b9b9b">In Progress</text><text transform="translate(235.013 231.362)" font-size="5.873" font-family="ArialMT" fill="#9b9b9b">2015</text><text transform="translate(235.013 245.459)" font-size="5.873" font-family="ArialMT" fill="#9b9b9b">2017</text><text transform="translate(235.013 259.554)" font-size="5.873" font-family="ArialMT" fill="#9b9b9b">2019</text><text transform="translate(235.013 273.65)" font-size="5.873" font-family="ArialMT" fill="#9b9b9b">2021</text><linearGradient id="dashboard_svg__h" gradientUnits="userSpaceOnUse" x1="309.05" y1="286.4" x2="498.587" y2="286.4" gradientTransform="matrix(1 0 0 -1 0 502)"><stop offset="0" stop-color="#00f260"/><stop offset="1" stop-color="#0575e6"/></linearGradient><path fill="url(#dashboard_svg__h)" d="M352.2 213.3h107.9v4.6H352.2z"/><linearGradient id="dashboard_svg__i" gradientUnits="userSpaceOnUse" x1="309.603" y1="272.3" x2="499.106" y2="272.3" gradientTransform="matrix(1 0 0 -1 0 502)"><stop offset="0" stop-color="#00f260"/><stop offset="1" stop-color="#0575e6"/></linearGradient><path fill="url(#dashboard_svg__i)" d="M352.2 227.4h107.9v4.6H352.2z"/><path fill="#9b9b9b" d="M352.2 241.5h107.9v4.6H352.2z"/><linearGradient id="dashboard_svg__j" gradientUnits="userSpaceOnUse" x1="340.697" y1="258.2" x2="382.547" y2="258.2" gradientTransform="matrix(1 0 0 -1 0 502)"><stop offset="0" stop-color="#00f260"/><stop offset="1" stop-color="#0575e6"/></linearGradient><path fill="url(#dashboard_svg__j)" d="M352.2 241.5h16.4v4.6h-16.4z"/><path fill="#9b9b9b" d="M352.2 255.6h107.9v4.6H352.2z"/><linearGradient id="dashboard_svg__k" gradientUnits="userSpaceOnUse" x1="316.236" y1="244.1" x2="446.661" y2="244.1" gradientTransform="matrix(1 0 0 -1 0 502)"><stop offset="0" stop-color="#00f260"/><stop offset="1" stop-color="#0575e6"/></linearGradient><path fill="url(#dashboard_svg__k)" d="M352.2 255.6h63.9v4.6h-63.9z"/><path fill="#9b9b9b" d="M352.2 269.7h107.9v4.6H352.2z"/><linearGradient id="dashboard_svg__l" gradientUnits="userSpaceOnUse" x1="307.115" y1="230" x2="483.073" y2="230" gradientTransform="matrix(1 0 0 -1 0 502)"><stop offset="0" stop-color="#00f260"/><stop offset="1" stop-color="#0575e6"/></linearGradient><path fill="url(#dashboard_svg__l)" d="M352.2 269.7h86.6v4.6h-86.6z"/><text transform="translate(84.137 178.557)" font-size="9.397" font-family="ArialMT" fill="#9b9b9b">Counts</text><path fill="#d8d8d8" d="M84.1 187h112.8v1.2H84.1z"/><linearGradient id="dashboard_svg__m" gradientUnits="userSpaceOnUse" x1="8.96" y1="276.754" x2="272.189" y2="276.754" gradientTransform="matrix(1 0 0 -1 0 502)"><stop offset="0" stop-color="#00f260"/><stop offset="1" stop-color="#0575e6"/></linearGradient><path d="M169.8 245.2h-.1c-2.2 0-4.1-1.4-4.7-3.6l-7-23.1c-.3-1-1.2-1.1-1.4-1.1-.3 0-1.1 0-1.6 1-.8 1.9-2.6 3-4.6 3-2 0-3.8-1.2-4.6-3l-3.5-8c-.4-.9-1.2-.9-1.5-1-.2 0-1.1.1-1.5 1l-5.1 11.6c-.8 1.8-2.5 2.9-4.4 3-1.9.1-3.7-.9-4.6-2.6l-1.9-3.5c-.4-.8-1.1-.8-1.4-.8-.3 0-1 .1-1.4.8l-7.9 14.2c-.9 1.7-2.7 2.7-4.6 2.6-1.9-.1-3.6-1.2-4.4-3l-10.1-23c-.2-.6-.8-.9-1.4-1-.6 0-1.2.3-1.5.8l-3.6 6.2-3-1.7 3.6-6.2c.9-1.7 2.7-2.6 4.6-2.5s3.6 1.3 4.3 3l10.1 23c.3.6.8.9 1.4 1 .6 0 1.2-.3 1.5-.8l7.9-14.2c.9-1.6 2.5-2.6 4.4-2.6s3.5 1 4.4 2.6l1.9 3.5c.4.8 1.2.8 1.5.8.2 0 1-.1 1.4-1l5.1-11.6c.8-1.9 2.6-3 4.6-3 2 0 3.8 1.2 4.6 3l3.5 8c.4.9 1.2 1 1.5 1 .2 0 1.1-.1 1.5-1 .9-2 2.8-3.2 4.9-3 2.1.1 3.9 1.5 4.5 3.6l7 23.1c.3 1 1.2 1.1 1.5 1.1s1.2-.1 1.5-1.1l5.2-14.9c.7-2.1 2.7-3.4 4.9-3.4 2.2.1 4.1 1.5 4.7 3.6l.7 2.5c.3 1.1 1.2 1.2 1.5 1.2s1.2-.1 1.6-1.1l3.8-11.1 3.2 1.1-3.8 11.1c-.7 2.1-2.6 3.4-4.9 3.4-2.2-.1-4.1-1.5-4.7-3.6l-.7-2.5c-.3-1-1.2-1.2-1.5-1.2s-1.2 0-1.6 1.1l-5.2 14.9c-.6 2.1-2.4 3.4-4.6 3.4z" fill="url(#dashboard_svg__m)"/><g font-size="4.699" font-family="ArialMT" fill="#9b9b9b"><text transform="translate(84.138 274.922)">Mon</text><text transform="translate(102.465 274.922)">Tue</text><text transform="translate(118.676 274.922)">Wed</text><text transform="translate(136.94 274.922)">Thu</text><text transform="translate(155.653 274.922)">Fri</text><text transform="translate(172.118 274.922)">Sat</text><text transform="translate(188.674 274.922)">Sun</text></g></svg>