<?xml version="1.0" encoding="utf-8"?>
<!-- Generator: Adobe Illustrator 23.0.3, SVG Export Plug-In . SVG Version: 6.00 Build 0)  -->
<svg version="1.1" id="OBJECTS" xmlns="http://www.w3.org/2000/svg" xmlns:xlink="http://www.w3.org/1999/xlink" x="0px" y="0px"
	 viewBox="0 0 500 500" style="enable-background:new 0 0 500 500;" xml:space="preserve">
<style type="text/css">
	.st0{fill:url(#SVGID_1_);}
	.st1{fill:url(#SVGID_2_);}
	.st2{fill:#FFFFFF;}
	.st3{fill:#D8D8D8;}
	.st4{fill:#9B9B9B;}
	.st5{fill:url(#SVGID_3_);}
	.st6{fill:#02B4A3;}
	.st7{font-family:'ArialMT';}
	.st8{font-size:7.0479px;}
	.st9{font-family:'MSReferenceSansSerif';}
	.st10{font-size:14.0958px;}
	.st11{font-size:16.2308px;}
	.st12{font-size:6.7414px;}
	.st13{fill:url(#SVGID_4_);}
	.st14{fill:url(#SVGID_5_);}
	.st15{fill:url(#SVGID_6_);}
	.st16{fill:url(#SVGID_7_);}
	.st17{font-size:9.3972px;}
	.st18{font-size:4.6986px;}
	.st19{font-size:5.8732px;}
	.st20{fill:url(#SVGID_8_);}
	.st21{fill:url(#SVGID_9_);}
	.st22{fill:url(#SVGID_10_);}
	.st23{fill:url(#SVGID_11_);}
	.st24{fill:url(#SVGID_12_);}
	.st25{fill:url(#SVGID_13_);}
</style>
<g>
	<g>
		<g>
			
				<linearGradient id="SVGID_1_" gradientUnits="userSpaceOnUse" x1="462.9057" y1="40.9005" x2="137.991" y2="365.8153" gradientTransform="matrix(1 0 0 -1 0 502)">
				<stop  offset="0" style="stop-color:#C9C9C9"/>
				<stop  offset="1" style="stop-color:#EFF3F4"/>
			</linearGradient>
			<path class="st0" d="M487.7,71.9v356.5H9.8V74.6c0-10,8.1-18.2,18.2-18.2h444.2C480.8,56.4,487.7,63.4,487.7,71.9z"/>
		</g>
		
			<linearGradient id="SVGID_2_" gradientUnits="userSpaceOnUse" x1="51.2181" y1="259.6" x2="62.3773" y2="259.6" gradientTransform="matrix(1 0 0 -1 0 502)">
			<stop  offset="0" style="stop-color:#C9C9C9"/>
			<stop  offset="1" style="stop-color:#EFF3F4;stop-opacity:0"/>
		</linearGradient>
		<rect x="57.1" y="56.4" class="st1" width="11.2" height="372"/>
		<path class="st2" d="M57.1,56.4H25.4c-8.6,0-15.5,7-15.5,15.5v356.5h47.3L57.1,56.4L57.1,56.4z"/>
		<path class="st2" d="M487.7,71.9v29.9H9.8V71.9c0-8.6,7-15.5,15.5-15.5h446.8C480.8,56.4,487.7,63.4,487.7,71.9z"/>
		<circle class="st3" cx="446.4" cy="79.1" r="11.7"/>
		<path class="st4" d="M413.4,81.6v-4.9c0-3.6-2.9-6.5-6.5-6.5l0,0c-3.6,0-6.5,2.9-6.5,6.5v4.9l0,0l-2.3,3.3h2.3h3.4
			c0,1.7,1.4,3.1,3.1,3.1s3.1-1.4,3.1-3.1h3.4h2.3L413.4,81.6z"/>
		<path class="st4" d="M382,77.3h-1.5c-0.1-0.5-0.4-1-0.6-1.5l1.1-1.1c0.3-0.3,0.3-0.7,0-1l-1.6-1.6c-0.3-0.3-0.7-0.3-1,0l-1.1,1.1
			c-0.5-0.3-1-0.5-1.5-0.6V71c0-0.4-0.3-0.7-0.7-0.7h-2.3c-0.4,0-0.7,0.3-0.7,0.7v1.5c-0.5,0.1-1,0.4-1.5,0.6l-1.1-1.1
			c-0.3-0.3-0.7-0.3-1,0l-1.6,1.6c-0.3,0.3-0.3,0.7,0,1l1.1,1.1c-0.3,0.5-0.5,1-0.6,1.5h-1.5c-0.4,0-0.7,0.3-0.7,0.7v2.3
			c0,0.4,0.3,0.7,0.7,0.7h1.5c0.1,0.5,0.4,1,0.6,1.5l-1.1,1.1c-0.3,0.3-0.3,0.7,0,1l1.6,1.6c0.3,0.3,0.7,0.3,1,0l1.1-1.1
			c0.5,0.3,1,0.5,1.5,0.6v1.5c0,0.4,0.3,0.7,0.7,0.7h2.3c0.4,0,0.7-0.3,0.7-0.7v-1.5c0.5-0.1,1-0.4,1.5-0.6l1.1,1.1
			c0.3,0.3,0.7,0.3,1,0l1.6-1.6c0.3-0.3,0.3-0.7,0-1l-1.1-1.1c0.3-0.5,0.5-1,0.6-1.5h1.5c0.4,0,0.7-0.3,0.7-0.7V78
			C382.7,77.6,382.4,77.3,382,77.3z M373.9,82.7c-2,0-3.6-1.6-3.6-3.6s1.6-3.6,3.6-3.6s3.6,1.6,3.6,3.6S375.9,82.7,373.9,82.7z"/>
		<g>
			<polygon class="st4" points="32,82.7 27.5,78.2 24.9,80.9 32,87.9 39.1,80.9 36.4,78.2 			"/>
			<polygon class="st4" points="39.1,73 36.4,70.3 32,74.8 27.5,70.3 24.9,73 32,80 			"/>
		</g>
		
			<linearGradient id="SVGID_3_" gradientUnits="userSpaceOnUse" x1="248.75" y1="406.8971" x2="248.75" y2="393.3871" gradientTransform="matrix(1 0 0 -1 0 502)">
			<stop  offset="0" style="stop-color:#C9C9C9"/>
			<stop  offset="1" style="stop-color:#EFF3F4;stop-opacity:0"/>
		</linearGradient>
		<rect x="9.8" y="101.9" class="st5" width="477.9" height="9.1"/>
	</g>
	<g>
		<g>
			<circle class="st6" cx="33.5" cy="131.5" r="11.7"/>
			<g>
				<rect x="27.1" y="130.9" class="st2" width="3" height="5.1"/>
				<rect x="31.4" y="128.2" class="st2" width="3" height="7.8"/>
				<rect x="35.7" y="125.3" class="st2" width="3" height="10.7"/>
			</g>
		</g>
		<g>
			<circle class="st4" cx="33.5" cy="175.8" r="11.7"/>
			<g>
				<g>
					<rect x="28.2" y="170.5" class="st2" width="4.7" height="4.7"/>
					<rect x="34.1" y="170.5" class="st2" width="4.7" height="4.7"/>
				</g>
				<g>
					<rect x="28.2" y="176.5" class="st2" width="4.7" height="4.7"/>
					<rect x="34.1" y="176.5" class="st2" width="4.7" height="4.7"/>
				</g>
			</g>
		</g>
		<g>
			<circle class="st4" cx="33.5" cy="220.1" r="11.7"/>
			<path class="st2" d="M34.7,219.3c1.1-0.5,1.9-1.6,1.9-2.9c0-1.8-1.4-3.2-3.2-3.2s-3.2,1.4-3.2,3.2c0,1.3,0.8,2.4,1.9,2.9
				c-2.6,0.6-4.6,2.9-4.6,5.7v0.4h11.7V225C39.3,222.2,37.4,219.9,34.7,219.3z"/>
		</g>
		<g>
			<circle class="st4" cx="33.5" cy="264.4" r="11.7"/>
			<g>
				<path class="st2" d="M38.8,269.3H28.1c-0.4,0-0.8-0.4-0.8-0.8v-6h11.4c0.4,0,0.8,0.4,0.8,0.8v5.2
					C39.6,268.9,39.2,269.3,38.8,269.3z"/>
				<path class="st2" d="M34.4,261.6h-7.1v-1.2c0-0.4,0.4-0.8,0.8-0.8h5.5c0.4,0,0.8,0.4,0.8,0.8C34.4,260.4,34.4,261.6,34.4,261.6z
					"/>
			</g>
		</g>
		<g>
			<g>
				<circle class="st4" cx="33.5" cy="308.7" r="11.7"/>
			</g>
			<g>
				<path class="st2" d="M34.7,310.8v-2.5c0-0.4,0.3-0.7,0.7-0.7h4v-2.2c0-0.4-0.3-0.7-0.7-0.7H27.9c-0.4,0-0.7,0.3-0.7,0.7v8.2
					c0,0.4,0.3,0.7,0.7,0.7h10.7c0.4,0,0.7-0.3,0.7-0.7v-2.2h-4C35,311.5,34.7,311.2,34.7,310.8z"/>
				<path class="st2" d="M40.4,310.7h-4.8c-0.1,0-0.2-0.1-0.2-0.2v-1.8c0-0.1,0.1-0.2,0.2-0.2h4.8c0.1,0,0.2,0.1,0.2,0.2v1.8
					C40.6,310.6,40.5,310.7,40.4,310.7z"/>
				<rect x="28.3" y="302.7" class="st2" width="9.7" height="1.3"/>
			</g>
		</g>
	</g>
	<g>
		<path class="st3" d="M248.3,88H65c-1.3,0-2.3-1-2.3-2.3V72.6c0-1.3,1-2.3,2.3-2.3h183.3c1.3,0,2.3,1,2.3,2.3v13.1
			C250.6,87,249.6,88,248.3,88z"/>
		<path class="st2" d="M78.7,83.6L75.1,80c0.4-0.7,0.7-1.5,0.7-2.4c0-1.3-0.5-2.5-1.4-3.3c-1.8-1.8-4.9-1.8-6.7,0
			c-0.9,0.9-1.4,2.1-1.4,3.3c0,1.3,0.5,2.5,1.4,3.3c0.9,0.9,2.1,1.4,3.3,1.4c0.8,0,1.6-0.2,2.4-0.7l3.6,3.6L78.7,83.6z M69.4,79.3
			c-0.4-0.4-0.7-1-0.7-1.6s0.2-1.2,0.7-1.6c0.4-0.4,1-0.7,1.6-0.7s1.2,0.2,1.6,0.7c0.4,0.4,0.7,1,0.7,1.6s-0.2,1.2-0.7,1.6
			C71.8,80.2,70.3,80.2,69.4,79.3z"/>
		<g>
			<text transform="matrix(1 0 0 1 85.5703 81.1289)" class="st2 st7 st8">Search your...</text>
		</g>
	</g>
	<g>
		<g>
			<rect x="446" y="118" class="st2" width="25.3" height="25.3"/>
			<g>
				<g>
					<path class="st3" d="M454.3,130.6c0,1.1-0.9,2-2,2s-2-0.9-2-2s0.9-2,2-2C453.3,128.6,454.3,129.5,454.3,130.6z"/>
					<path class="st3" d="M460.7,130.6c0,1.1-0.9,2-2,2s-2-0.9-2-2s0.9-2,2-2C459.8,128.6,460.7,129.5,460.7,130.6z"/>
					<path class="st3" d="M467.1,130.6c0,1.1-0.9,2-2,2s-2-0.9-2-2s0.9-2,2-2S467.1,129.5,467.1,130.6z"/>
				</g>
			</g>
		</g>
		<g>
			<g>
				<rect x="72.4" y="118" class="st2" width="25.3" height="25.3"/>
				<polygon class="st3" points="92.8,128.6 84.6,128.6 87,126.2 84.4,123.6 79.4,128.6 79.3,128.6 79.3,128.6 77.3,130.6 
					79.3,132.7 79.3,132.7 79.4,132.7 84.4,137.7 87,135.1 84.6,132.7 92.8,132.7 				"/>
			</g>
			<text transform="matrix(1 0 0 1 107.0039 134.6504)" class="st4 st9 st10">Dashboard</text>
		</g>
	</g>
	<rect x="72.4" y="156.5" class="st2" width="136.2" height="131"/>
	<rect x="72.4" y="302.7" class="st2" width="196.1" height="109.1"/>
	<rect x="284.4" y="302.7" class="st2" width="186.9" height="109.1"/>
	<g>
		<g>
			<g>
				<text transform="matrix(1 0 0 1 402.8096 357.3281)" class="st4 st7 st11">42%</text>
			</g>
			<g>
				<text transform="matrix(1 0 0 1 408.2197 367.5225)" class="st4 st7 st12">LOREM</text>
				<text transform="matrix(1 0 0 1 408.2197 373.7225)" class="st4 st7 st12">IPSUM</text>
			</g>
		</g>
		<g>
			<g>
				<path class="st3" d="M420.7,319.2c-21,0-38.1,17.1-38.1,38.1s17.1,38.1,38.1,38.1c9.8,0,18.7-3.7,25.5-9.8
					c7.7-7,12.6-17.1,12.6-28.3C458.8,336.2,441.8,319.2,420.7,319.2z M441.4,380.8c-5.5,4.9-12.8,7.8-20.7,7.8
					c-17.3,0-31.3-14-31.3-31.3s14-31.3,31.3-31.3s31.3,14,31.3,31.3C452,366.6,447.9,375,441.4,380.8z"/>
			</g>
			
				<linearGradient id="SVGID_4_" gradientUnits="userSpaceOnUse" x1="405.0371" y1="121.1559" x2="470.5632" y2="186.6821" gradientTransform="matrix(1 0 0 -1 0 502)">
				<stop  offset="0" style="stop-color:#00F260"/>
				<stop  offset="1" style="stop-color:#0575E6"/>
			</linearGradient>
			<path class="st13" d="M458.8,357.3c0,11.2-4.9,21.3-12.6,28.3l-4.8-4.8c6.5-5.7,10.6-14.1,10.6-23.5c0-17.3-14-31.3-31.3-31.3
				v-6.8C441.8,319.2,458.8,336.2,458.8,357.3z"/>
		</g>
	</g>
	<g>
		<g>
			<g>
				<text transform="matrix(1 0 0 1 317.002 357.3281)" class="st4 st7 st11">76%</text>
			</g>
			<g>
				<text transform="matrix(1 0 0 1 322.4111 367.5225)" class="st4 st7 st12">LOREM</text>
				<text transform="matrix(1 0 0 1 322.4111 373.7225)" class="st4 st7 st12">IPSUM</text>
			</g>
		</g>
		<path class="st3" d="M354.8,324.8c-5.8-3.6-12.6-5.6-19.9-5.6c-21,0-38.1,17.1-38.1,38.1c0,7.3,2,14.1,5.6,19.9
			c6.7,10.9,18.7,18.2,32.5,18.2c21,0,38.1-17.1,38.1-38.1C373,343.5,365.8,331.5,354.8,324.8z M334.9,388.6
			c-11.9,0-22.2-6.6-27.5-16.4c-2.4-4.4-3.8-9.5-3.8-14.9c0-17.3,14-31.3,31.3-31.3c5.4,0,10.5,1.4,14.9,3.8
			c9.8,5.3,16.4,15.6,16.4,27.5C366.2,374.6,352.2,388.6,334.9,388.6z"/>
		
			<linearGradient id="SVGID_5_" gradientUnits="userSpaceOnUse" x1="284.5043" y1="73.6794" x2="402.2028" y2="191.3778" gradientTransform="matrix(1 0 0 -1 0 502)">
			<stop  offset="0" style="stop-color:#00F260"/>
			<stop  offset="1" style="stop-color:#0575E6"/>
		</linearGradient>
		<path class="st14" d="M373,357.3c0,21-17.1,38.1-38.1,38.1c-13.8,0-25.8-7.3-32.5-18.2l5-5c5.3,9.8,15.6,16.4,27.5,16.4
			c17.3,0,31.3-14,31.3-31.3c0-11.9-6.6-22.2-16.4-27.5l5-5C365.8,331.5,373,343.5,373,357.3z"/>
	</g>
	<g>
		
			<linearGradient id="SVGID_6_" gradientUnits="userSpaceOnUse" x1="170.5" y1="250.5474" x2="170.5" y2="17.7004" gradientTransform="matrix(1 0 0 -1 0 502)">
			<stop  offset="0" style="stop-color:#00F260"/>
			<stop  offset="1" style="stop-color:#0575E6"/>
		</linearGradient>
		<path class="st15" d="M101,385.2H89.9v-69H101V385.2z M122.5,339.1h-11.2v46.1h11.2V339.1z M143.9,360h-11.2v25.3h11.2V360z
			 M165.3,326.8h-11.2v58.4h11.2V326.8z M186.8,346.2h-11.2v39.1h11.2V346.2z M208.2,333.2H197v52h11.2V333.2z M229.6,316.2h-11.2
			v69h11.2V316.2z M251.1,324.1h-11.2v61.1h11.2V324.1z"/>
		<g>
			<text transform="matrix(1 0 0 1 109.1875 400.9854)" class="st4 st7 st12">LOREM IPSUM DOLOR SIT AMET</text>
		</g>
	</g>
	<rect x="223.8" y="156.5" class="st2" width="247.5" height="131"/>
	<g>
		<g>
			<g>
				<g>
					
						<linearGradient id="SVGID_7_" gradientUnits="userSpaceOnUse" x1="317.7654" y1="326.1" x2="569.2337" y2="326.1" gradientTransform="matrix(1 0 0 -1 0 502)">
						<stop  offset="0" style="stop-color:#00F260"/>
						<stop  offset="1" style="stop-color:#0575E6"/>
					</linearGradient>
					<rect x="402.9" y="168.5" class="st16" width="57.2" height="14.8"/>
					<g>
						<g>
							<g>
								<polygon class="st2" points="453.2,177.3 451.4,175.5 450.3,176.6 453.2,179.4 456,176.6 454.9,175.5 								"/>
							</g>
							<g>
								<polygon class="st2" points="456,173.4 454.9,172.4 453.2,174.2 451.4,172.4 450.3,173.4 453.2,176.2 								"/>
							</g>
						</g>
					</g>
				</g>
				<g>
					<text transform="matrix(1 0 0 1 408.5635 178.6963)" class="st2 st7 st8">More info</text>
				</g>
			</g>
			<g>
				<text transform="matrix(1 0 0 1 235.0146 178.5566)" class="st4 st7 st17">Statistics</text>
			</g>
		</g>
		<g>
			<g>
				<text transform="matrix(1 0 0 1 235.0146 197.4424)" class="st4 st7 st18">Year</text>
				<text transform="matrix(1 0 0 1 293.0459 197.4424)" class="st4 st7 st18">Status</text>
				<text transform="matrix(1 0 0 1 352.166 197.4424)" class="st4 st7 st18">Completion</text>
			</g>
		</g>
		<g>
			<rect x="235" y="203.1" class="st3" width="225" height="1.2"/>
		</g>
		<g>
			<text transform="matrix(1 0 0 1 235.0127 217.2666)" class="st4 st7 st19">2013</text>
		</g>
		<g>
			<text transform="matrix(1 0 0 1 283.7197 217.2666)" class="st4 st7 st19">Completed</text>
		</g>
		<g>
			<text transform="matrix(1 0 0 1 283.7197 231.3633)" class="st4 st7 st19">Completed</text>
		</g>
		<g>
			<text transform="matrix(1 0 0 1 283.0234 245.459)" class="st4 st7 st19">Not Started</text>
		</g>
		<g>
			<text transform="matrix(1 0 0 1 283.7363 259.5557)" class="st4 st7 st19">In Progress</text>
		</g>
		<g>
			<text transform="matrix(1 0 0 1 283.7363 273.6504)" class="st4 st7 st19">In Progress</text>
		</g>
		<g>
			<text transform="matrix(1 0 0 1 235.0127 231.3623)" class="st4 st7 st19">2015</text>
		</g>
		<g>
			<text transform="matrix(1 0 0 1 235.0127 245.459)" class="st4 st7 st19">2017</text>
		</g>
		<g>
			<text transform="matrix(1 0 0 1 235.0127 259.5537)" class="st4 st7 st19">2019</text>
		</g>
		<g>
			<text transform="matrix(1 0 0 1 235.0127 273.6504)" class="st4 st7 st19">2021</text>
		</g>
		<g>
			
				<linearGradient id="SVGID_8_" gradientUnits="userSpaceOnUse" x1="309.05" y1="286.4" x2="498.5866" y2="286.4" gradientTransform="matrix(1 0 0 -1 0 502)">
				<stop  offset="0" style="stop-color:#00F260"/>
				<stop  offset="1" style="stop-color:#0575E6"/>
			</linearGradient>
			<rect x="352.2" y="213.3" class="st20" width="107.9" height="4.6"/>
			
				<linearGradient id="SVGID_9_" gradientUnits="userSpaceOnUse" x1="309.6028" y1="272.3" x2="499.1057" y2="272.3" gradientTransform="matrix(1 0 0 -1 0 502)">
				<stop  offset="0" style="stop-color:#00F260"/>
				<stop  offset="1" style="stop-color:#0575E6"/>
			</linearGradient>
			<rect x="352.2" y="227.4" class="st21" width="107.9" height="4.6"/>
			<g>
				<rect x="352.2" y="241.5" class="st4" width="107.9" height="4.6"/>
				
					<linearGradient id="SVGID_10_" gradientUnits="userSpaceOnUse" x1="340.6965" y1="258.2" x2="382.5472" y2="258.2" gradientTransform="matrix(1 0 0 -1 0 502)">
					<stop  offset="0" style="stop-color:#00F260"/>
					<stop  offset="1" style="stop-color:#0575E6"/>
				</linearGradient>
				<rect x="352.2" y="241.5" class="st22" width="16.4" height="4.6"/>
			</g>
			<g>
				<rect x="352.2" y="255.6" class="st4" width="107.9" height="4.6"/>
				
					<linearGradient id="SVGID_11_" gradientUnits="userSpaceOnUse" x1="316.2361" y1="244.1" x2="446.661" y2="244.1" gradientTransform="matrix(1 0 0 -1 0 502)">
					<stop  offset="0" style="stop-color:#00F260"/>
					<stop  offset="1" style="stop-color:#0575E6"/>
				</linearGradient>
				<rect x="352.2" y="255.6" class="st23" width="63.9" height="4.6"/>
			</g>
			<g>
				<rect x="352.2" y="269.7" class="st4" width="107.9" height="4.6"/>
				
					<linearGradient id="SVGID_12_" gradientUnits="userSpaceOnUse" x1="307.1153" y1="230" x2="483.0726" y2="230" gradientTransform="matrix(1 0 0 -1 0 502)">
					<stop  offset="0" style="stop-color:#00F260"/>
					<stop  offset="1" style="stop-color:#0575E6"/>
				</linearGradient>
				<rect x="352.2" y="269.7" class="st24" width="86.6" height="4.6"/>
			</g>
		</g>
	</g>
	<g>
		<g>
			<text transform="matrix(1 0 0 1 84.1367 178.5566)" class="st4 st7 st17">Counts</text>
		</g>
		<g>
			<rect x="84.1" y="187" class="st3" width="112.8" height="1.2"/>
		</g>
	</g>
	<g>
		
			<linearGradient id="SVGID_13_" gradientUnits="userSpaceOnUse" x1="8.9595" y1="276.7538" x2="272.1887" y2="276.7538" gradientTransform="matrix(1 0 0 -1 0 502)">
			<stop  offset="0" style="stop-color:#00F260"/>
			<stop  offset="1" style="stop-color:#0575E6"/>
		</linearGradient>
		<path class="st25" d="M169.8,245.2h-0.1c-2.2,0-4.1-1.4-4.7-3.6l-7-23.1c-0.3-1-1.2-1.1-1.4-1.1c-0.3,0-1.1,0-1.6,1
			c-0.8,1.9-2.6,3-4.6,3l0,0c-2,0-3.8-1.2-4.6-3l-3.5-8c-0.4-0.9-1.2-0.9-1.5-1c-0.2,0-1.1,0.1-1.5,1l-5.1,11.6
			c-0.8,1.8-2.5,2.9-4.4,3c-1.9,0.1-3.7-0.9-4.6-2.6l-1.9-3.5c-0.4-0.8-1.1-0.8-1.4-0.8l0,0c-0.3,0-1,0.1-1.4,0.8l-7.9,14.2
			c-0.9,1.7-2.7,2.7-4.6,2.6c-1.9-0.1-3.6-1.2-4.4-3l-10.1-23c-0.2-0.6-0.8-0.9-1.4-1c-0.6,0-1.2,0.3-1.5,0.8l-3.6,6.2l-3-1.7
			l3.6-6.2c0.9-1.7,2.7-2.6,4.6-2.5s3.6,1.3,4.3,3l10.1,23c0.3,0.6,0.8,0.9,1.4,1c0.6,0,1.2-0.3,1.5-0.8l7.9-14.2
			c0.9-1.6,2.5-2.6,4.4-2.6s3.5,1,4.4,2.6l1.9,3.5c0.4,0.8,1.2,0.8,1.5,0.8c0.2,0,1-0.1,1.4-1l5.1-11.6c0.8-1.9,2.6-3,4.6-3l0,0
			c2,0,3.8,1.2,4.6,3l3.5,8c0.4,0.9,1.2,1,1.5,1l0,0c0.2,0,1.1-0.1,1.5-1c0.9-2,2.8-3.2,4.9-3c2.1,0.1,3.9,1.5,4.5,3.6l7,23.1
			c0.3,1,1.2,1.1,1.5,1.1s1.2-0.1,1.5-1.1l5.2-14.9c0.7-2.1,2.7-3.4,4.9-3.4c2.2,0.1,4.1,1.5,4.7,3.6l0.7,2.5
			c0.3,1.1,1.2,1.2,1.5,1.2s1.2-0.1,1.6-1.1l3.8-11.1l3.2,1.1l-3.8,11.1c-0.7,2.1-2.6,3.4-4.9,3.4c-2.2-0.1-4.1-1.5-4.7-3.6
			l-0.7-2.5c-0.3-1-1.2-1.2-1.5-1.2s-1.2,0-1.6,1.1l-5.2,14.9C173.8,243.9,172,245.2,169.8,245.2z"/>
	</g>
	<g>
		<g>
			<text transform="matrix(1 0 0 1 84.1377 274.9219)" class="st4 st7 st18">Mon</text>
		</g>
		<g>
			<text transform="matrix(1 0 0 1 102.4648 274.9219)" class="st4 st7 st18">Tue</text>
		</g>
		<g>
			<text transform="matrix(1 0 0 1 118.6758 274.9219)" class="st4 st7 st18">Wed</text>
		</g>
		<g>
			<text transform="matrix(1 0 0 1 136.9404 274.9219)" class="st4 st7 st18">Thu</text>
		</g>
		<g>
			<text transform="matrix(1 0 0 1 155.6533 274.9219)" class="st4 st7 st18">Fri</text>
		</g>
		<g>
			<text transform="matrix(1 0 0 1 172.1182 274.9219)" class="st4 st7 st18">Sat</text>
		</g>
		<g>
			<text transform="matrix(1 0 0 1 188.6738 274.9219)" class="st4 st7 st18">Sun</text>
		</g>
	</g>
</g>
</svg>
