<svg xmlns="http://www.w3.org/2000/svg" viewBox="0 0 204.7 168.4"><path d="M169.9 6.1c4 2.4 19.4 23.5-9.8 69-8.4 13.2-7.3 27.7-4.2 43s4 20.9-2.8 35c-4.9 10.2-13.3 13.8-24.5 15.1-11.5 1.2-22.8-2.9-30.8-11.3-12.5-13-15.5-34.3-30.8-44s-36.9-3.2-52.5-12.6C.3 91.7-3.8 71.1 3.7 56.3s24.1-23.7 40.7-24.9c10.7-.7 21.5 1.3 32.2 1.3 8.9 0 17.8-1.5 26.3-4.4 8.6-3 12.2-6.6 18.3-12.6 20.9-20.5 35-17.7 48.7-9.6z" opacity=".07" fill="#02b4a3"/><path d="M52.7 4.6C44 8.7 19.4 29.9 44.1 64.9c5.4 7.6 7.9 17.3 5.9 26.5-1.5 7-5.3 13.3-7.5 20.2-3.1 9.9-2.4 21 2.6 30s14.7 15.6 25 16.1c9.9.5 19.3-4.3 27.4-10s15.6-12.4 24.6-16.7c14.7-7.1 24.9-10.9 41.1-12.5 36.8-3.7 45.6-25.7 39.9-43.7-3.5-11.1-14.1-22-25.3-25.3s-23.1-4-34.2-7.5c-8.9-2.8-17.2-7.3-24.4-13.2-9.8-8-32.5-40.3-66.5-24.2z" opacity=".11" fill="#02b4a3"/><linearGradient id="header-bg_svg__a" gradientUnits="userSpaceOnUse" x1="-43.75" y1="215.085" x2="347.97" y2="-120.675" gradientTransform="matrix(1 0 0 -1 0 170)"><stop offset=".03" stop-color="#00f260"/><stop offset=".07" stop-color="#00ea69"/><stop offset=".28" stop-color="#02c095"/><stop offset=".49" stop-color="#039fb8"/><stop offset=".68" stop-color="#0488d2"/><stop offset=".86" stop-color="#057ae1"/><stop offset="1" stop-color="#0575e6"/></linearGradient><path d="M43 62c-4.3 6.1-9.3 18.4-11.4 25.5s-1.4 15.4 3.2 21.2c3.3 4 8.1 6.6 13.3 7.1 6.4.7 12.9-.2 19.3-1.1 19-2.7 25.5 13.1 33.8 19.7 16.8 13.3 35 18 50.4 7.1 14.5-10.1 18.5-26.8 19.2-30.5 9-47.2-31.2-96.6-55.9-98.8C100.3 11 78 12.3 43 62z" fill="url(#header-bg_svg__a)"/><path d="M83.3 143.3c1.5 2.8 2.4 6.9.2 9.6-.7.9-1.7 1.6-2.7 2-4.7 2.1-9.7.8-14.2-.8-4-1.4-8-3.1-10.7-6.5s-3.5-9.2-.8-13.3c8.1-12.3 24.1 1.2 28.2 9z" fill="#02b4a3"/><linearGradient id="header-bg_svg__b" gradientUnits="userSpaceOnUse" x1="-12.619" y1="-80.38" x2="30.711" y2="-136.38" gradientTransform="scale(1 -1) rotate(17.951 -139.246 529.629)"><stop offset=".01" stop-color="#02b4a3"/><stop offset=".34" stop-color="#1899b9"/><stop offset=".76" stop-color="#2f7ecf"/><stop offset="1" stop-color="#3774d7"/></linearGradient><path d="M163.6 28.4c1.7 3.7 4.5 7 8.2 8.5s8.5.7 11.1-2.4c1.7-2.1 2.2-5 3.2-7.5 1.6-3.9 4.4-7.2 6.2-11s2.5-8.7-.1-12c-2.2-2.8-6-3.6-9.5-3.9-4.4-.4-9.1-.2-13.1 1.6-10.2 4.6-10.1 17.9-6 26.7z" fill="url(#header-bg_svg__b)"/><path d="M118.3 114.6c.1-1.1 1-2 2.2-1.9l30.4 1.8c1.1.1 2 1 1.9 2.2-.1 1.1-1 2-2.2 1.9l-30.4-1.8c-1-.1-1.9-1.1-1.9-2.2zm6.5 9.7c0-1.1 1-2 2.1-2l30.4 1.8c1.1.1 2 1 1.9 2.2-.1 1.1-1 2-2.2 1.9l-30.4-1.8c-1-.1-1.8-1-1.8-2.1zm10.4 10.2c.1-1.1 1-2 2.2-1.9l30.4 1.8c1.1.1 2 1 1.9 2.2-.1 1.1-1 2-2.2 1.9l-30.4-1.8c-1.1-.1-1.9-1-1.9-2.2zM36.7 85.9c0 2.6-2.1 4.7-4.7 4.7s-4.7-2.1-4.7-4.7 2.1-4.7 4.7-4.7c2.6.1 4.7 2.1 4.7 4.7zm146-26c0 2.6-2.1 4.7-4.7 4.7s-4.7-2.1-4.7-4.7 2.1-4.7 4.7-4.7c2.6.1 4.7 2.1 4.7 4.7z" fill="#ffaf10"/><circle cx="136" cy="30" r="9.9" fill="#ffaf10"/></svg>