<?xml version="1.0" encoding="utf-8"?>
<!-- Generator: Adobe Illustrator 23.0.3, SVG Export Plug-In . SVG Version: 6.00 Build 0)  -->
<svg version="1.1" id="Слой_1" xmlns="http://www.w3.org/2000/svg" xmlns:xlink="http://www.w3.org/1999/xlink" x="0px" y="0px"
	 viewBox="0 0 204.7 168.4" style="enable-background:new 0 0 204.7 168.4;" xml:space="preserve">
<style type="text/css">
	.st0{opacity:7.000000e-02;fill:#02B4A3;enable-background:new    ;}
	.st1{opacity:0.11;fill:#02B4A3;enable-background:new    ;}
	.st2{fill:url(#SVGID_1_);}
	.st3{fill:#02B4A3;}
	.st4{fill:url(#SVGID_2_);}
	.st5{fill:#FFAF10;}
</style>
<title>Asset 8</title>
<g>
	<g id="Layer_2">
		<g id="OBJECTS">
			<path class="st0" d="M169.9,6.1c4,2.4,19.4,23.5-9.8,69c-8.4,13.2-7.3,27.7-4.2,43s4,20.9-2.8,35c-4.9,10.2-13.3,13.8-24.5,15.1
				c-11.5,1.2-22.8-2.9-30.8-11.3c-12.5-13-15.5-34.3-30.8-44s-36.9-3.2-52.5-12.6C0.3,91.7-3.8,71.1,3.7,56.3s24.1-23.7,40.7-24.9
				c10.7-0.7,21.5,1.3,32.2,1.3c8.9,0,17.8-1.5,26.3-4.4c8.6-3,12.2-6.6,18.3-12.6C142.1-4.8,156.2-2,169.9,6.1z"/>
			<path class="st1" d="M52.7,4.6C44,8.7,19.4,29.9,44.1,64.9c5.4,7.6,7.9,17.3,5.9,26.5c-1.5,7-5.3,13.3-7.5,20.2
				c-3.1,9.9-2.4,21,2.6,30s14.7,15.6,25,16.1c9.9,0.5,19.3-4.3,27.4-10s15.6-12.4,24.6-16.7c14.7-7.1,24.9-10.9,41.1-12.5
				c36.8-3.7,45.6-25.7,39.9-43.7c-3.5-11.1-14.1-22-25.3-25.3s-23.1-4-34.2-7.5c-8.9-2.8-17.2-7.3-24.4-13.2
				C109.4,20.8,86.7-11.5,52.7,4.6z"/>
			
				<linearGradient id="SVGID_1_" gradientUnits="userSpaceOnUse" x1="-43.7503" y1="215.0846" x2="347.9697" y2="-120.6753" gradientTransform="matrix(1 0 0 -1 0 170)">
				<stop  offset="3.000000e-02" style="stop-color:#00F260"/>
				<stop  offset="7.000000e-02" style="stop-color:#00EA69"/>
				<stop  offset="0.28" style="stop-color:#02C095"/>
				<stop  offset="0.49" style="stop-color:#039FB8"/>
				<stop  offset="0.68" style="stop-color:#0488D2"/>
				<stop  offset="0.86" style="stop-color:#057AE1"/>
				<stop  offset="1" style="stop-color:#0575E6"/>
			</linearGradient>
			<path class="st2" d="M43,62c-4.3,6.1-9.3,18.4-11.4,25.5s-1.4,15.4,3.2,21.2c3.3,4,8.1,6.6,13.3,7.1c6.4,0.7,12.9-0.2,19.3-1.1
				c19-2.7,25.5,13.1,33.8,19.7c16.8,13.3,35,18,50.4,7.1c14.5-10.1,18.5-26.8,19.2-30.5c9-47.2-31.2-96.6-55.9-98.8
				C100.3,11,78,12.3,43,62z"/>
			<path class="st3" d="M83.3,143.3c1.5,2.8,2.4,6.9,0.2,9.6c-0.7,0.9-1.7,1.6-2.7,2c-4.7,2.1-9.7,0.8-14.2-0.8
				c-4-1.4-8-3.1-10.7-6.5s-3.5-9.2-0.8-13.3C63.2,122,79.2,135.5,83.3,143.3z"/>
			
				<linearGradient id="SVGID_2_" gradientUnits="userSpaceOnUse" x1="-12.6193" y1="-80.3798" x2="30.7107" y2="-136.3798" gradientTransform="matrix(0.9513 -0.3082 -0.3082 -0.9513 156.4531 -68.6976)">
				<stop  offset="1.000000e-02" style="stop-color:#02B4A3"/>
				<stop  offset="0.34" style="stop-color:#1899B9"/>
				<stop  offset="0.76" style="stop-color:#2F7ECF"/>
				<stop  offset="1" style="stop-color:#3774D7"/>
			</linearGradient>
			<path class="st4" d="M163.6,28.4c1.7,3.7,4.5,7,8.2,8.5s8.5,0.7,11.1-2.4c1.7-2.1,2.2-5,3.2-7.5c1.6-3.9,4.4-7.2,6.2-11
				s2.5-8.7-0.1-12c-2.2-2.8-6-3.6-9.5-3.9c-4.4-0.4-9.1-0.2-13.1,1.6C159.4,6.3,159.5,19.6,163.6,28.4z"/>
			<path class="st5" d="M118.3,114.6L118.3,114.6c0.1-1.1,1-2,2.2-1.9c0,0,0,0,0,0l30.4,1.8c1.1,0.1,2,1,1.9,2.2c0,0,0,0,0,0l0,0
				c-0.1,1.1-1,2-2.2,1.9c0,0,0,0,0,0l-30.4-1.8C119.2,116.7,118.3,115.7,118.3,114.6z"/>
			<path class="st5" d="M124.8,124.3L124.8,124.3c0-1.1,1-2,2.1-2c0,0,0,0,0,0l30.4,1.8c1.1,0.1,2,1,1.9,2.2c0,0,0,0,0,0l0,0
				c-0.1,1.1-1,2-2.2,1.9c0,0,0,0,0,0l-30.4-1.8C125.6,126.3,124.8,125.4,124.8,124.3z"/>
			<path class="st5" d="M135.2,134.5L135.2,134.5c0.1-1.1,1-2,2.2-1.9c0,0,0,0,0,0l30.4,1.8c1.1,0.1,2,1,1.9,2.2l0,0
				c-0.1,1.1-1,2-2.2,1.9c0,0,0,0,0,0l-30.4-1.8C136,136.6,135.2,135.7,135.2,134.5C135.2,134.5,135.2,134.5,135.2,134.5z"/>
			<path class="st5" d="M36.7,85.9c0,2.6-2.1,4.7-4.7,4.7c-2.6,0-4.7-2.1-4.7-4.7c0-2.6,2.1-4.7,4.7-4.7l0,0
				C34.6,81.3,36.7,83.3,36.7,85.9z"/>
			<path class="st5" d="M182.7,59.9c0,2.6-2.1,4.7-4.7,4.7c-2.6,0-4.7-2.1-4.7-4.7s2.1-4.7,4.7-4.7l0,0
				C180.6,55.3,182.7,57.3,182.7,59.9z"/>
			<circle class="st5" cx="136" cy="30" r="9.9"/>
		</g>
	</g>
</g>
</svg>
