<svg width="1630" height="1080" xmlns="http://www.w3.org/2000/svg" xmlns:xlink="http://www.w3.org/1999/xlink"><g stroke="null"><defs transform="matrix(1.3885 0 0 1.3885 -851.164 -419.69)"><path stroke="null" id="pricing-decor-right_svg__a" d="M0 0h1920v1080H0z"/></defs><clipPath stroke="null" transform="matrix(1.3885 0 0 1.3885 -851.164 -419.69)" id="pricing-decor-right_svg__b"><use xlink:href="#pricing-decor-right_svg__a"/></clipPath><g clip-path="url(#pricing-decor-right_svg__b)"><linearGradient stroke="null" transform="matrix(1.3885 0 0 1.3885 -851.164 -419.69)" gradientTransform="matrix(1 0 0 -1 0 1080)" y2="197.551" x2="2232.585" y1="-580.148" x1="-1339.309" gradientUnits="userSpaceOnUse" id="pricing-decor-right_svg__c"><stop stop-color="#00F260" offset="0"/><stop stop-color="#0575E6" offset="1"/></linearGradient><path d="M613.66 702.955c41.933.972 73.452-10.83 82.755-14.163 92.336-33.047 257.985-38.74 451.404-129.826 188.003-88.447 216.884-170.092 266.315-147.737 79.978 36.101 81.644 294.78-36.101 478.063-71.508 111.358-174.396 167.315-251.597 203-419.052 193.974-1066.929 209.942-1119.97 35.546-53.18-174.952 522.218-441.268 579.563-427.383 1.527.417 12.496 2.222 27.631 2.5z" fill="url(#pricing-decor-right_svg__c)"/><path stroke="#ffaf10" fill="none" stroke-width="11.10792" stroke-miterlimit="10" d="M339.226 878.815l108.49-108.49 73.047 73.047-108.49 108.49z"/><path d="M1007.302 752.663s-25.271-1.11-38.323 18.19c0 0 11.941 7.359 34.157-7.22l4.166-10.97zM1009.94 751.969s17.912 17.773 12.774 40.267c0 0-13.468-3.75-17.773-29.992l4.999-10.275zM1020.631 718.228s-11.94-17.078-49.014 12.913c0 0 6.665 11.664 24.16 8.609s21.383-11.386 24.854-21.522zM1022.992 716.7s20.41-4.72 27.77 42.35c0 0-12.774 4.166-23.743-9.72-11.108-13.884-8.193-22.77-4.027-32.63zM1030.768 677.545s-15.135-30.825-54.846-3.333c0 0 12.913 28.326 51.652 14.719l3.194-11.386zM1038.404 628.114s-25.548-30.13-60.955 4.443c0 0 16.94 28.881 58.873 7.498l2.082-11.94zM1037.988 581.877s-28.742-26.937-64.01 7.22c0 0 27.214 23.466 64.982.417l-.972-7.637zM1037.016 537.028s-29.298-28.187-62.9 5.276c0 0 32.214 24.3 63.594 2.083l-.694-7.359zM1030.212 497.733s-31.658-37.073-63.038-5.97c0 0 32.908 31.241 64.01 13.607l-.972-7.637zM1018.688 452.468s-33.325-36.518-63.455-2.36c0 0 38.045 30.686 64.149 9.58l-.694-7.22zM1004.525 412.201s-38.323-33.463-66.51-15.273c0 0 39.99 35.684 69.148 24.993l-2.638-9.72zM988.28 374.573s-44.572-41.378-65.816-23.605c0 0 32.908 32.214 69.564 31.797l-3.749-8.192zM965.924 331.251s-38.74-33.463-62.76-21.521c0 0 33.88 35.545 68.73 32.63l-5.97-11.109zM945.513 290.568s-42.21-31.658-57.9-23.466c0 0 31.935 36.657 60.538 31.103l-2.638-7.637zM925.935 253.078s-37.628-39.155-55.123-33.74c0 0 24.16 35.962 55.54 38.045l-.417-4.305zM903.58 202.26s-32.768-29.576-48.32-27.771c0 0 27.77 41.1 50.82 38.323l-2.5-10.553zM889.834 168.24l-35.685-65.12s5.555 61.927 40.545 77.34l-4.86-12.22zM869.978 94.233s-10.969-56.512-8.608-61.51c0 0-14.718 49.57 11.663 86.642l-3.055-25.132zM1031.878 676.712s27.076-21.244 50.68 20.689c0 0-23.881 19.994-52.901-9.026l2.221-11.663zM1039.099 626.17s33.74-20.272 56.234 23.882c0 0-25.41 21.939-58.317-11.802l2.083-12.08zM1039.793 584.376s22.216-32.63 64.01-7.22c0 0-21.244 28.88-63.177 14.718l-.833-7.498zM1037.849 536.89s22.355-34.158 62.483-8.748c0 0-26.104 30.686-61.511 15.967l-.972-7.22z" fill="#ffaf10"/><path d="M1030.351 498.983s13.052-47.07 54.568-32.075c0 0-16.8 42.211-52.346 39.295l-2.222-7.22zM1016.466 452.33s12.913-47.627 55.262-30.965c0 0-19.716 44.571-52.763 37.907l-2.5-6.943zM1000.637 412.896s1.527-50.959 34.157-59.15c0 0-1.11 53.734-28.603 67.62l-5.554-8.47zM987.446 374.712s-4.027-60.678 23.188-65.816c0 0 4.305 45.96-19.161 74.008l-4.027-8.192zM962.87 329.863s2.638-51.236 28.047-60.261c0 0 2.222 48.875-24.16 72.202l-3.887-11.941zM952.04 229.613s15.273 46.237-4.305 68.036M924.686 252.662s-3.75-54.152 11.94-63.455c0 0 10.415 42.072-9.025 66.787l-2.915-3.332zM901.775 206.841s-4.86-43.738 5.97-55.401c0 0 17.08 46.654 1.25 63.455l-7.22-8.054z" fill="#ffaf10"/><path d="M891.084 166.02l3.332-74.286s22.216 58.04-2.36 87.476l-.972-13.19zM880.531 93.817s24.021-52.208 22.772-57.762c0 0 2.638 51.652-31.658 81.505l8.886-23.743zM875.532 79.654s19.995-72.758 32.075-79.84c0 0-37.629 24.716-34.574 78.035l2.5 1.805z" fill="#ffaf10"/><path d="M1041.598 553.69c-4.582-57.206-23.605-119.55-50.542-174.952l-.139.278c-2.499-4.999-5.276-10.136-7.914-14.996-30.408-56.79-57.068-109.83-75.257-151.486h.139c-32.075-74.007-43.46-122.327-31.936-135.935l-1.527-1.25c-11.803 14.302-1.805 59.984 29.297 132.742h-.139c18.19 42.21 45.404 99.14 76.924 157.456a681.492 681.492 0 0110.275 20.134h.138c58.595 123.022 52.625 234.796 36.102 303.666-18.19 75.535-51.097 122.189-51.514 122.605l3.194 2.36c.416-.416 33.601-47.625 51.93-123.715 10.969-44.988 14.718-91.086 10.969-136.907z" fill="#514739"/><g><path d="M1044.791 767.937s-21.105-13.885-42.21-4.027c0 0 6.526 12.358 33.046 11.247l9.164-7.22zM1047.43 768.77s6.387 24.437-9.581 41.1c0 0-9.58-10.137 0-34.99l9.58-6.11zM1073.95 745.165s-1.527-20.827-48.736-13.885c0 0-.14 13.469 16.384 19.856 16.523 6.248 24.021.972 32.352-5.97zM1076.588 745.026s19.995 6.387 2.222 50.542c0 0-13.052-2.916-15.551-20.411-2.222-17.495 4.72-23.744 13.33-30.13zM1103.386 715.451s2.777-34.296-45.404-30.825c0 0-3.471 30.964 36.796 39.017l8.608-8.192zM1135.183 676.712s-6.526-38.878-54.707-27.354c0 0-.139 33.602 46.793 36.518l7.914-9.164zM1158.371 636.862s-10.969-37.907-58.734-26.52c0 0 11.386 34.018 55.54 33.601l3.194-7.081zM1180.449 597.706s-10.83-39.295-56.79-27.493c0 0 15.273 37.351 53.735 34.296l3.055-6.803zM1194.75 560.633s-8.192-48.043-51.097-37.351c0 0 12.358 43.738 48.042 44.432l3.055-7.081zM1207.941 515.645s-9.997-48.32-53.319-34.435c0 0 17.079 45.82 50.264 40.961l3.055-6.526zM1216.272 473.851s-15.829-48.32-49.43-47.21c0 0 16.106 51.098 46.653 56.79l2.777-9.58zM1221.548 433.307s-17.217-58.318-44.57-53.874c0 0 11.94 44.57 43.598 62.76l.972-8.886zM1224.464 384.57s-16.106-48.459-43.044-50.542c0 0 10.97 47.904 42.489 63.177l.555-12.635zM1227.797 339.166s-20.134-48.737-37.907-49.709c0 0 8.748 47.904 36.102 57.623l1.805-7.914zM1230.018 296.955s-12.357-52.763-30.13-57.067c0 0 2.36 43.182 28.325 61.094l1.805-4.027zM1236.683 241.693s-13.052-42.21-27.354-48.46c0 0 2.916 49.57 24.16 58.873l3.194-10.413zM1242.237 205.592l2.638-74.147s-26.798 56.096-4.582 87.198l1.944-13.051zM1263.065 131.723s19.439-54.152 24.16-57.345c0 0-38.045 35.129-34.296 80.394l10.136-23.049zM1104.636 715.312s34.018-4.443 33.047 43.738c0 0-30.825 4.999-40.961-34.712l7.914-9.026zM1136.71 675.601s39.434-.139 36.102 49.153c0 0-33.047 5.832-44.016-39.989l7.915-9.164zM1158.788 639.916s35.823-16.662 58.734 26.52c0 0-33.047 13.886-61.789-19.577l3.055-6.943zM1181.282 598.122s36.656-17.911 58.178 24.438c0 0-38.184 13.052-61.094-17.773l2.916-6.665z" fill="#ffaf10"/><path d="M1194.195 561.605s35.268-33.741 63.316.277c0 0-35.963 27.77-64.982 7.082l1.666-7.36zM1205.997 514.534s35.407-34.435 63.316 1.528c0 0-39.711 28.186-64.704 5.692l1.388-7.22zM1212.662 472.462s27.353-43.043 59.567-33.324c0 0-28.326 45.543-59.15 43.6l-.417-10.276zM1220.715 432.89s27.493-54.152 53.458-44.71c0 0-19.856 41.655-54.152 53.874l.694-9.164zM1222.52 381.793s28.326-42.627 54.846-37.49c0 0-23.049 43.183-57.623 49.709l2.777-12.219zM1264.453 290.013s-10.552 47.487-38.323 56.234M1229.046 295.983s24.438-48.459 42.627-48.459c0 0-12.496 41.517-41.794 52.764l-.833-4.305zM1232.795 244.747s18.19-40.127 33.324-44.57c0 0-9.164 48.875-31.38 55.262l-1.944-10.692z" fill="#ffaf10"/><path d="M1244.459 204.203l40.822-62.066s-10.553 61.233-46.654 74.007l5.832-11.941zM1272.368 136.722s47.348-32.63 49.014-38.046c0 0-24.16 45.821-68.87 53.875l19.856-15.83zM1275.284 122.142s54.429-52.346 68.314-52.346c0 0-44.849 2.082-69.564 49.43l1.25 2.916z" fill="#ffaf10"/><path d="M1276.672 117.699c-17.495 6.248-32.213 50.68-42.627 129.131v-.139c-5.832 45.543-11.525 108.443-14.302 174.674-.277 7.36-.833 14.996-1.388 22.494h.139c-12.497 135.796-74.563 228.687-123.994 279.507-54.152 55.54-106.36 79.006-106.915 79.145l1.527 3.61c.556-.14 53.18-23.744 107.887-79.84 32.075-32.907 58.734-70.536 79.006-111.913 25.271-51.514 40.822-114.83 45.96-176.202l-.278.14c.417-5.555.694-11.387.972-16.94 2.777-64.427 6.943-123.578 12.636-168.704h.138c10.136-79.978 25.132-127.326 41.933-133.158l-.694-1.805z" fill="#514739"/></g><linearGradient stroke="null" transform="matrix(1.3885 0 0 1.3885 -851.164 -419.69)" gradientTransform="matrix(1 0 0 -1 0 1080)" y2="386.935" x2="1540.753" y1="-513.791" x1="1841.23" gradientUnits="userSpaceOnUse" id="pricing-decor-right_svg__d"><stop stop-color="#049EBA" offset="0"/><stop stop-color="#02CC89" offset="1"/></linearGradient><path d="M417.186 932.891C407.19 805.288 567.146 663.8 725.435 641.305c148.709-21.244 183.977 78.45 340.184 70.814 224.66-10.97 303.111-224.244 409.61-191.614 127.603 39.156 213.413 406.555 63.87 612.331-198.14 272.564-732.992 156.901-992.781-27.77-106.36-75.674-126.216-133.99-129.132-172.175z" fill="url(#pricing-decor-right_svg__d)"/></g><g transform="matrix(1.3885 0 0 1.3885 -851.164 -419.69)"><defs><path stroke="null" id="pricing-decor-right_svg__e" d="M0 0h1920v1080H0z"/></defs><clipPath stroke="null" id="pricing-decor-right_svg__f"><use xlink:href="#pricing-decor-right_svg__e"/></clipPath></g></g></svg>