<svg width="250" height="120" xmlns="http://www.w3.org/2000/svg" xmlns:xlink="http://www.w3.org/1999/xlink"><defs><path d="M0 0h1920v1080H0V0z" id="pricing-decor-left_svg__a"/></defs><clipPath id="pricing-decor-left_svg__b"><use xlink:href="#pricing-decor-left_svg__a"/></clipPath><g stroke="null" clip-path="url(#pricing-decor-left_svg__b)"><path fill="#ffaf10" d="M46.153 102.792c3.848.55 4.748-3.749 15.493-10.995 26.838-18.042 46.679-5.548 61.472-17.992 2.299-1.95 4.198-3.998 5.897-6.997 17.192.5 40.532-7.147 56.574-15.993 31.036-17.142 62.722-54.275 52.476-75.465-8.446-17.492-43.68-20.64-68.468-12.494-10.695 3.498-20.391 9.445-28.837 16.742.1-1.7.2-3.448.35-5.248 3.348-53.525 6.747-62.87-1.5-72.966-15.792-19.341-54.475-22.64-78.963-8.496C-5.023-69.13 22.964 99.343 46.153 102.792z"/><linearGradient stroke="null" transform="translate(-158.838 -15.104) scale(.49977)" y2=".5" x2="1.042" y1=".5" x1="-1.526" id="pricing-decor-left_svg__c"><stop stop-color="#00f260" offset="0"/><stop stop-color="#0575e6" offset="1"/></linearGradient><path fill="url(#pricing-decor-left_svg__c)" d="M-84.287-18.153C-76.19-.561-51.702-6.308-44.805 10.834c13.594 33.734-43.23 87.46-34.984 94.956 1 .95 1.9.1 13.494-1.5 10.295-1.398 18.641-2.548 25.488-1.998 10.895.9 15.043 5.897 24.989 10.495 16.642 7.646 35.583 7.746 45.979 4.998C55.449 111.138 50 80.752 76.639 58.812c40.032-33.035 85.011-8.746 104.452-35.984 15.743-22.09 1.45-61.572-14.493-83.961C118.42-128.703-11.67-132.95-62.297-79.625c-13.394 14.094-30.786 42.33-21.99 61.472z"/></g></svg>