<svg xmlns="http://www.w3.org/2000/svg" viewBox="0 0 1081 836.7"><path d="M234.4.6c-34.8-1.3-71.1-2.2-102.5 12.7s-55.7 51-45.2 84.2c3.4 10.8 10.1 20.3 15.8 30.1 28.2 49.3 29.6 112.9 3.4 163.3-20.2 38.9-54.3 68.4-78.9 104.5S-11.6 481.6 12.6 518c16.6 24.9 47.3 37.1 77.1 40s59.7-1.7 89.7-2.9c58.2-2.2 116.2 8.7 169.6 32.1 73.5 32.2 136.8 87.3 214.2 108.6 9.3 2.5 19 4.6 28.5 2.9 16.8-3.1 29.1-17 42.3-28 42.1-34.9 100.4-41.4 155.1-43s111.6-.4 161-23.8c43.1-20.5 76.4-58.6 97-101.7s29.6-90.9 33-138.6c2-28.4 1.9-57.6-8.2-84.2-11.4-29.9-34.6-53.6-58.8-74.4-25.4-21.7-53-41.4-84.3-53.1-37.4-14-78-16-117.8-19.3-81.7-6.8-162.7-19.8-242.4-38.9C493 75.6 409.9 55.9 341 19 306.3.6 273.4 2 234.4.6z" opacity=".1" fill="#00f260"/><g opacity=".1" fill="#4285f4"><path d="M713.9 629.7s3.5-49.6 31.5-76.7c11.8-11.3 19.6-26.1 22.3-42.1 1.2-7.6 1.7-15.4 1.5-23.1"/><path d="M786.6 470.6c-2 5.5-17.9 17.7-17.9 17.7s-4-19.6-1.9-25.1c2-5.5 8.1-8.3 13.6-6.2 5.5 2 8.2 8.1 6.2 13.6zm5 36.5c-4.7 3.5-24.6 5.1-24.6 5.1s7.3-18.6 12-22.1c4.8-3.4 11.4-2.2 14.8 2.6 3.2 4.5 2.3 10.9-2.2 14.4zm-20 51.5c-5.8.6-23.8-8-23.8-8s15.7-12.4 21.5-13c5.8-.3 10.8 4.1 11.1 10 .3 5.4-3.5 10.1-8.8 11zm-24 35.6c-5.6 1.6-24.8-3.9-24.8-3.9s13.4-14.8 19-16.5c5.6-1.8 11.5 1.3 13.3 6.9 1.8 5.6-1.3 11.5-6.9 13.3-.2.1-.4.2-.6.2zm-1.8-88.8c2.5 5.3 19.3 16.1 19.3 16.1s2.3-19.8-.2-25.1c-2.7-5.2-9-7.3-14.2-4.6-5 2.5-7.1 8.5-4.9 13.6zm-27.5 42c4 4.3 23.3 9.6 23.3 9.6s-3.7-19.6-7.7-23.9c-4-4.3-10.7-4.5-15-.5-4.3 3.9-4.6 10.5-.6 14.8zm-21.2 44.5c3.2 4.9 21.3 13.3 21.3 13.3s-.4-20-3.5-24.9c-3.3-4.8-9.9-6-14.7-2.7-4.7 3.3-6 9.5-3.1 14.3z"/><path d="M786.6 470.6c-2 5.5-17.9 17.7-17.9 17.7s-4-19.6-1.9-25.1c2-5.5 8.1-8.3 13.6-6.2 5.5 2 8.2 8.1 6.2 13.6zm5 36.5c-4.7 3.5-24.6 5.1-24.6 5.1s7.3-18.6 12-22.1c4.8-3.4 11.4-2.2 14.8 2.6 3.2 4.5 2.3 10.9-2.2 14.4zm-20 51.5c-5.8.6-23.8-8-23.8-8s15.7-12.4 21.5-13c5.8-.3 10.8 4.1 11.1 10 .3 5.4-3.5 10.1-8.8 11zm-24 35.6c-5.6 1.6-24.8-3.9-24.8-3.9s13.4-14.8 19-16.5c5.6-1.8 11.5 1.3 13.3 6.9 1.8 5.6-1.3 11.5-6.9 13.3-.2.1-.4.2-.6.2zm-1.8-88.8c2.5 5.3 19.3 16.1 19.3 16.1s2.3-19.8-.2-25.1c-2.7-5.2-9-7.3-14.2-4.6-5 2.5-7.1 8.5-4.9 13.6zm-27.5 42c4 4.3 23.3 9.6 23.3 9.6s-3.7-19.6-7.7-23.9c-4-4.3-10.7-4.5-15-.5-4.3 3.9-4.6 10.5-.6 14.8zm-21.2 44.5c3.2 4.9 21.3 13.3 21.3 13.3s-.4-20-3.5-24.9c-3.3-4.8-9.9-6-14.7-2.7-4.7 3.3-6 9.5-3.1 14.3z"/></g><g opacity=".1" fill="#4285f4"><path d="M723.7 441.9s3.5-49.6 31.5-76.7c11.8-11.3 19.6-26.1 22.3-42.1 1.2-7.6 1.7-15.4 1.5-23.1"/><path d="M796.4 282.8c-2 5.5-17.9 17.6-17.9 17.6s-4-19.6-1.9-25.1c2-5.5 8.1-8.3 13.6-6.2 5.5 2.1 8.2 8.2 6.2 13.7zm5.1 36.5c-4.7 3.5-24.6 5.1-24.6 5.1s7.3-18.6 12-22.1c4.6-3.6 11.3-2.8 14.9 1.8s2.8 11.3-1.8 14.9c-.2 0-.4.2-.5.3zm-20.1 51.5c-5.8.6-23.8-8-23.8-8s15.7-12.4 21.5-13c5.8-.7 11.1 3.4 11.9 9.2s-3.4 11.1-9.2 11.9c-.2 0-.3 0-.4-.1zm-24 35.6c-5.6 1.6-24.8-3.9-24.8-3.9s13.4-14.9 19-16.5c5.6-1.5 11.5 1.8 13 7.4 1.4 5.7-1.7 11.4-7.2 13zm-1.8-88.8c2.5 5.3 19.3 16.1 19.3 16.1s2.3-19.9-.2-25.1c-2.4-5.3-8.7-7.7-14-5.3-5.3 2.4-7.7 8.7-5.3 14 .1.1.1.2.2.3zm-27.5 42c4 4.3 23.3 9.6 23.3 9.6s-3.7-19.6-7.7-23.9c-4.1-4.2-10.8-4.3-15-.2-4.1 3.9-4.3 10.3-.6 14.5zm-21.2 44.5c3.2 4.9 21.3 13.4 21.3 13.4s-.4-20-3.5-24.9c-3-5-9.6-6.6-14.6-3.5-5 3-6.6 9.6-3.5 14.6.1.1.2.2.3.4z"/><path d="M796.4 282.8c-2 5.5-17.9 17.6-17.9 17.6s-4-19.6-1.9-25.1c2-5.5 8.1-8.3 13.6-6.2 5.5 2.1 8.2 8.2 6.2 13.7zm5.1 36.5c-4.7 3.5-24.6 5.1-24.6 5.1s7.3-18.6 12-22.1c4.6-3.6 11.3-2.8 14.9 1.8s2.8 11.3-1.8 14.9c-.2 0-.4.2-.5.3zm-20.1 51.5c-5.8.6-23.8-8-23.8-8s15.7-12.4 21.5-13c5.8-.7 11.1 3.4 11.9 9.2s-3.4 11.1-9.2 11.9c-.2 0-.3 0-.4-.1zm-24 35.6c-5.6 1.6-24.8-3.9-24.8-3.9s13.4-14.9 19-16.5c5.6-1.5 11.5 1.8 13 7.4 1.4 5.7-1.7 11.4-7.2 13zm-1.8-88.8c2.5 5.3 19.3 16.1 19.3 16.1s2.3-19.9-.2-25.1c-2.4-5.3-8.7-7.7-14-5.3-5.3 2.4-7.7 8.7-5.3 14 .1.1.1.2.2.3zm-27.5 42c4 4.3 23.3 9.6 23.3 9.6s-3.7-19.6-7.7-23.9c-4.1-4.2-10.8-4.3-15-.2-4.1 3.9-4.3 10.3-.6 14.5zm-21.2 44.5c3.2 4.9 21.3 13.4 21.3 13.4s-.4-20-3.5-24.9c-3-5-9.6-6.6-14.6-3.5-5 3-6.6 9.6-3.5 14.6.1.1.2.2.3.4z"/></g><g opacity=".1" fill="#4285f4"><path d="M193.2 506.9s-42.7-25.5-54.3-62.5c-4.8-15.6-14.5-29.2-27.6-38.8-6.3-4.5-13-8.4-20-11.7"/><path d="M83.8 370.4c4 4.3 7.7 23.9 7.7 23.9s-19.3-5.3-23.3-9.5c-3.9-4.4-3.4-11.1 1-14.9 4.2-3.7 10.6-3.5 14.6.5zm34.8 12c1 5.8-6.5 24.3-6.5 24.3s-13.4-15-14.4-20.7c-1.1-5.7 2.6-11.3 8.3-12.5 5.7-1.1 11.3 2.6 12.5 8.3.1.2.1.4.1.6zm37 41c-2 5.5-17.9 17.7-17.9 17.7s-4-19.6-1.9-25.1c1.9-5.5 7.9-8.5 13.4-6.6 5.5 1.9 8.5 7.9 6.6 13.4 0 .3-.1.4-.2.6zm21.1 37.5c-1.1 5.8-14.6 20.5-14.6 20.5s-7.3-18.6-6.2-24.4c1.1-5.7 6.6-9.5 12.4-8.4 5.7 1 9.4 6.6 8.4 12.3zm-80.2-38.4c5.8.1 23.1-10 23.1-10s-16.7-11-22.6-11.1c-5.8 0-10.6 4.7-10.6 10.5 0 5.7 4.5 10.4 10.1 10.6zm25.2 43.5c5.6-1.6 19-16.5 19-16.5s-19.2-5.5-24.8-3.9c-5.6 1.7-8.7 7.7-6.9 13.3 1.6 5.4 7.2 8.5 12.7 7.1zm30.2 38.9c5.8-.6 21.5-13 21.5-13s-18-8.7-23.8-8c-5.8.3-10.3 5.3-10 11.1s5.3 10.3 11.1 10c.4 0 .8-.1 1.2-.1z"/><path d="M83.8 370.4c4 4.3 7.7 23.9 7.7 23.9s-19.3-5.3-23.3-9.5c-3.9-4.4-3.4-11.1 1-14.9 4.2-3.7 10.6-3.5 14.6.5zm34.8 12c1 5.8-6.5 24.3-6.5 24.3s-13.4-15-14.4-20.7c-1.1-5.7 2.6-11.3 8.3-12.5 5.7-1.1 11.3 2.6 12.5 8.3.1.2.1.4.1.6zm37 41c-2 5.5-17.9 17.7-17.9 17.7s-4-19.6-1.9-25.1c1.9-5.5 7.9-8.5 13.4-6.6 5.5 1.9 8.5 7.9 6.6 13.4 0 .3-.1.4-.2.6zm21.1 37.5c-1.1 5.8-14.6 20.5-14.6 20.5s-7.3-18.6-6.2-24.4c1.1-5.7 6.6-9.5 12.4-8.4 5.7 1 9.4 6.6 8.4 12.3zm-80.2-38.4c5.8.1 23.1-10 23.1-10s-16.7-11-22.6-11.1c-5.8 0-10.6 4.7-10.6 10.5 0 5.7 4.5 10.4 10.1 10.6zm25.2 43.5c5.6-1.6 19-16.5 19-16.5s-19.2-5.5-24.8-3.9c-5.6 1.7-8.7 7.7-6.9 13.3 1.6 5.4 7.2 8.5 12.7 7.1zm30.2 38.9c5.8-.6 21.5-13 21.5-13s-18-8.7-23.8-8c-5.8.3-10.3 5.3-10 11.1s5.3 10.3 11.1 10c.4 0 .8-.1 1.2-.1z"/></g><path d="M716.7 806.3c28.7 12.5 63.7 4.9 96.3 5.8 4.5.1 9.2.5 12.8 2.7s5.3 5.7 7.8 8.7c9.1 11.1 27.8 14.7 44.2 12.8s31.3-8.2 46.8-12.9c26.7-8.2 57.1-12 83.5-3 2.4.8 5 1.8 7.5 1.4 5.8-.7 7.5-6.7 11.5-10.1 7.3-6.2 23.1-4.5 26.3-12.6 1.9-4.8-2.4-9.6-7.1-12.9-18-12.4-43.7-14.5-67.2-12.6s-46.7 7.2-70.3 7.2c-29.5 0-57.9-8.1-87.1-11.5-20.2-2.3-42.3-2-61.2 4.8-20.7 7.3-25.2 23.8-43.8 32.2zM173.4 768c49 14.1 108.8 5.5 164.4 6.5 7.6.1 15.7.5 21.8 3s9.1 6.4 13.3 9.8c15.6 12.6 47.5 16.6 75.4 14.5s53.5-9.2 79.8-14.6c45.5-9.3 97.6-13.5 142.5-3.4 4.1.9 8.5 2 12.9 1.6 9.8-.8 12.8-7.6 19.7-11.4 12.4-7 39.4-5.1 44.9-14.3 3.2-5.4-4.2-10.9-12.2-14.6-30.7-14-74.6-16.4-114.8-14.2s-79.7 8.1-120 8.2c-50.3 0-98.9-9.2-148.7-12.9-34.5-2.6-72.1-2.3-104.5 5.4-35.1 8.3-42.8 27-74.5 36.4zM42.2 802.6c14 8.4 31 3.3 46.9 3.9 2.2.1 4.5.3 6.2 1.8s2.6 3.8 3.8 5.8c4.4 7.5 13.5 9.9 21.5 8.7s15.2-5.5 22.8-8.7c13-5.5 27.8-8.1 40.6-2 1.1.7 2.4 1 3.7 1 2.8-.5 3.6-4.5 5.6-6.8 3.5-4.2 11.2-3 12.8-8.5.9-3.2-1.2-6.5-3.5-8.7-8.7-8.4-21.3-9.8-32.7-8.5s-22.7 4.8-34.2 4.8c-14.3 0-28.2-5.5-42.4-7.7-9.8-1.6-20.6-1.4-29.8 3.2-10 4.9-12.2 16.1-21.3 21.7z" opacity=".1" fill="#00f260"/><linearGradient id="report_svg__a" gradientUnits="userSpaceOnUse" x1="522.69" y1="42" x2="522.69" y2="770.68" gradientTransform="matrix(1 0 0 -1 -59.52 806.35)"><stop offset="0" stop-color="gray" stop-opacity=".25"/><stop offset=".54" stop-color="gray" stop-opacity=".12"/><stop offset="1" stop-color="gray" stop-opacity=".1"/></linearGradient><path d="M695.5 35.7H230.9c-23.5 0-42.6 19-42.6 42.5v643.7c0 23.5 19.1 42.5 42.6 42.5h464.6c23.5 0 42.6-19 42.6-42.5V78.2c0-23.5-19.1-42.6-42.6-42.5z" fill="url(#report_svg__a)"/><path d="M214.8 44.4h496.7c11 0 20 9 20 20v673.4c0 11-9 20-20 20H214.8c-11 0-20-9-20-20V64.4c0-11 8.9-20 20-20z" fill="#535461"/><path fill="#f6f7f9" d="M222.1 111.9h482.2v578.5H222.1z"/><circle cx="461" cy="77.1" r="6.5" fill="#f6f7f9"/><circle cx="461" cy="722.9" r="19.6" fill="#f6f7f9"/><path fill="#4285f4" d="M222.1 111.9h482.2v28.8H222.1z" opacity=".2"/><circle cx="237.1" cy="126.3" r="6.1" fill="#f6f7f9"/><circle cx="252.8" cy="126.3" r="6.1" fill="#f6f7f9"/><circle cx="268.5" cy="126.3" r="6.1" fill="#f6f7f9"/><path fill="#dce0ed" d="M236.5 281.9h449v1.5h-449zm0 34.9h449v1.5h-449zm0 34.8h449v1.5h-449zm0 34.8h449v1.5h-449zm0 34.9h449v1.5h-449z"/><path fill="#4285f4" d="M685.5 422.8H235.9v-68.5l41.2 20.3 42.7 5.8 37.4-11.3 45.2-35.1 22.7-13.1 16.6-3.2 15.9.9 26.2 12.9 35.5 22.6 27.9 3.6 22.1-7.6 46.8-38.4 24-8.5 25 3.8 20.4 11.8z" opacity=".2"/><linearGradient id="report_svg__b" gradientUnits="userSpaceOnUse" x1="235.9" y1="341.64" x2="686.06" y2="341.64"><stop offset="0" stop-color="#00f260"/><stop offset="1" stop-color="#4285f4"/></linearGradient><path d="M591.7 330.6c-12.9 11.2-25 21.7-39.4 24.4-28.3 5.3-55.1-12.4-68.5-23.5-6.2-5.1-13.1-8.9-20.4-11.3.2-.8.3-1.7.3-2.5 0-6.1-5-11.1-11.1-11.1-5.9 0-10.8 4.7-11.1 10.5-4.4.2-8.7.8-13 2-16.5 4.5-28.6 14.8-41.5 25.7-12.3 10.5-25 21.3-42.8 28.3-48.9 19.1-106.5-19-107.1-19.4l-1.1 1.7c.5.3 37.9 25.1 78.4 25.1 10.4.1 20.8-1.8 30.6-5.5 18.2-7.1 31-18 43.4-28.6 12.7-10.8 24.6-21 40.7-25.3 4.1-1.1 8.3-1.7 12.6-1.9.7 5.5 5.4 9.7 11 9.7 4.6 0 8.5-2.7 10.2-6.7 7.1 2.4 13.8 6 19.8 10.9 13.7 11.3 41.1 29.4 70.2 23.9 15-2.8 27.3-13.5 40.4-24.8 24.1-20.9 49-42.5 91.8-11.7l1.2-1.6c-44.4-31.8-69.9-9.7-94.6 11.7z" fill="url(#report_svg__b)"/><path d="M597.7 170.4H457.3c-1.3 0-2.3 1-2.3 2.3v94.9c0 1.3 1 2.3 2.3 2.3.6 0 1.2-.3 1.7-.7l24.3-26c.4-.5 1-.7 1.7-.7h112.7c1.3 0 2.3-1 2.3-2.3v-67.6c0-1.2-1-2.3-2.3-2.2z" fill="#4285f4" opacity=".2"/><path fill="#f6f7f9" d="M487.5 187.9h79.9v10h-79.9zm0 22.2h22v10h-22z"/><path fill="#4285f4" d="M274.4 494.3h22v10h-22zm0 19.4h22v10h-22zm0 19.3h22v10h-22zm0 19.3h22v10h-22zm0 19.4h22v10h-22zm0 19.3h22v10h-22zm0 19.3h22v10h-22zm0 19.4h22v10h-22zm41.3 10h22v10h-22zm38.7 0h22v10h-22zm38.6 0h22v10h-22zm38.7 0h22v10h-22zm38.7 0h22v10h-22zm38.6 0h22v10h-22zm38.7 0h22v10h-22zm38.7 0h22v10h-22zm38.6 0h22v10h-22z" opacity=".2"/><path fill="#f6f7f9" d="M534.1 210.1h33.3v10h-33.3z"/><linearGradient id="report_svg__c" gradientUnits="userSpaceOnUse" x1="326.685" y1="535.727" x2="326.685" y2="920.533"><stop offset="0" stop-color="#00f260"/><stop offset=".367" stop-color="#4285f4"/></linearGradient><path fill="url(#report_svg__c)" d="M315.7 567h22v62.7h-22z"/><linearGradient id="report_svg__d" gradientUnits="userSpaceOnUse" x1="365.355" y1="455.58" x2="365.355" y2="847.095"><stop offset=".078" stop-color="#00f260"/><stop offset=".655" stop-color="#4285f4"/></linearGradient><path fill="url(#report_svg__d)" d="M354.4 538h22v91.7h-22z"/><linearGradient id="report_svg__e" gradientUnits="userSpaceOnUse" x1="404.025" y1="447.532" x2="404.025" y2="843.533"><stop offset="0" stop-color="#00f260"/><stop offset=".69" stop-color="#4285f4"/></linearGradient><path fill="url(#report_svg__e)" d="M393 513.7h22v116h-22z"/><linearGradient id="report_svg__f" gradientUnits="userSpaceOnUse" x1="442.685" y1="421.362" x2="442.685" y2="821.66"><stop offset=".078" stop-color="#00f260"/><stop offset=".749" stop-color="#4285f4"/></linearGradient><path fill="url(#report_svg__f)" d="M431.7 526.3h22v103.4h-22z"/><linearGradient id="report_svg__g" gradientUnits="userSpaceOnUse" x1="481.355" y1="406.514" x2="481.355" y2="801.013"><stop offset=".055" stop-color="#00f260"/><stop offset=".795" stop-color="#4285f4"/></linearGradient><path fill="url(#report_svg__g)" d="M470.4 504.3h22v125.3h-22z"/><path fill="#4285f4" d="M509 552.3h22v77.3h-22zm38.7 0h22v77.3h-22zm38.7 0h22v77.3h-22zm38.6 0h22v77.3h-22z" opacity=".2"/><linearGradient id="report_svg__h" gradientUnits="userSpaceOnUse" x1="950.424" y1=".29" x2="950.424" y2="660.129" gradientTransform="matrix(1 0 0 -1 -59.52 806.35)"><stop offset="0" stop-color="gray" stop-opacity=".25"/><stop offset=".54" stop-color="gray" stop-opacity=".12"/><stop offset="1" stop-color="gray" stop-opacity=".1"/></linearGradient><path d="M989.5 272.5c-23.8-13.7-32.8-17.1-32.8-17.1l-.5-.4c-2.6-2-4.7-4.6-6-7.6v-1.6.2c.4-7.2 5.5-13.8 10.4-19.6l12.5-14.7c1.4-1.5 2.5-3.2 3.2-5.1.3-1 .4-2.1.3-3.1v-1.3c-.1-3.6-.2-7.3-.3-11-.1-3.2-.9-7.2-4.1-7.9-1.7-.3-3.8.3-4.7-1.2-.3-.6-.4-1.3-.2-1.9v.1-.2c.6-2.5 1-5 1.2-7.5.1-1.3-.1-2.6-.5-3.8-1.8-5.3-8.2-7.5-13.8-8.5s-11.9-1.9-15.5-6.3c-1.1-1.4-1.8-3-3.1-4.2-1.6-1.4-3.6-2.4-5.8-2.8-7-1.7-14.3-1.1-20.9 1.8-2.7 1.2-5.5 2.9-8.4 2.7s-5.8-2.3-8.8-2.9c-4.9-.8-9.7 2.8-12.1 7.1-1.4 2.6-2.2 5.4-2.2 8.4v.5c-.1 3.2 1.1 6.2 3.2 8.5 2.1 2.2 5.3 3.7 6.2 6.6.4 1.2.3 2.5.6 3.7 0 .1.1.3.1.4l-.2.2c-5.1 6.5-7.9 14.6-7.8 22.9.1 16.5 10.9 31 26.6 35.9v1.1c0 4.5-1.3 9.2-5.2 12.6L867.2 270s-20.3-2.4-27.6 27.3c-1.2 4.9-1.6 10-1.3 15 .3 4.5-.3 12.4-5.5 22.5-8.3 16.3-6.4 53.7 10.6 57.4 16.1 3.5 22.4 2 23 1.9v.6c-.3 7-2.8 67.6-12.1 74.9-2.6 2-2.1 3.4 0 4.3 0 0 0 .4-.1 1.1-.3 4.4-1.7 21.3-7.9 30.9-7.2 11.1-6.4 75.2-6.4 75.2l-4.8 37.8s3 23.3 0 27.4c-2.7 3.6-6.3 90-7 108.7h-.3c-3 .2-5.7 1.8-7.3 4.4-4 6.5-17.9 18.4-17.9 18.4-3 4.3-14.2 8.4-20.1 10.3-.8.3-1.6.6-2.3 1-2.2 1.2-4 3.1-5.1 5.3-.8 1.4-1 3-.5 4.5 1.5 3.7 32.9 6.3 40.9 2.6 6.3-2.9 31-6.8 41.3-8.3 3.8-.5 6.9-3.5 7.3-7.3.2-1.3-.2-2.6-1-3.7-2-2.4-3-9.1-3.4-13.4.8-.3 1.6-.8 2.3-1.4-.8-13.5 1.1-27 5.7-39.6 7.6-20 9.8-57.1 8-81.2 0 0 23.1-99.3 41.2-108.6.3.3 9.1 11.7 10.2 46.7 1.1 35.6 14 58.9 14 58.9s-5.7 60.4 0 83l-7.4 35.7c-.5-.5-.9-.8-.9-.8s.2 1 .5 2.6l-.2.8.3.1c.8 4.5 2.1 12.2 1.6 16.8-.3 2.6-1 6.2-1.5 9.6-.8 5.5-1 10.8 1.9 12 4.7 1.9 32.5 4.5 37.3-1.6 2.2-2.5 2.7-6.1 1.4-9.2-.3-.8-.8-1.6-1.4-2.3 0 0-7.4-12.1-5.3-20.6.4-1.7.1-3.5-.9-4.9.3-4.2 2-23.5 6.4-39.9 4.7-17.8 14.7-56.9 7.4-82.6l-.9-3c-4.2-14-5.7-28.8-4.2-43.3-2.7-12.5-2.7-25.3 0-37.8 4.5-20.8 7.7-41.1 7.7-41.1s2.5-27.4.3-44.2l-.2-1.1 1.2-.3s-6.4-28.5-8.7-46.7c-.5-4.3-1.2-9.7-2-15.5 2.1-.3 4.2-.8 6.2-1.5 20.4-7.1 26.8-70.8 26.8-70.8v-20.2c0 .3 6.8-30.6-17-44.3zM837.3 764.6l-1-.5 1 .5z" fill="url(#report_svg__h)"/><path d="M977.1 640.3c8.9 25.5-1.5 66.8-6.3 85.3s-6.3 40.6-6.3 40.6c-18.8 3-32.5-.8-32.5-.8l7.8-38c-5.5-22.5 0-82.7 0-82.7s-12.5-23.3-13.7-58.7c-1.1-34.9-9.7-46.2-10-46.5-17.7 9.2-40.3 108.2-40.3 108.2 1.8 24-.4 60.9-7.8 80.9-4.5 12.7-6.4 26.1-5.5 39.5-2.6 2.2-6.2 2.5-10 1.9-10.5-1.7-23.1-10.8-23.1-10.8s4-107.8 7-111.9 0-27.3 0-27.3l4.8-37.7s-.7-63.9 6.3-75c6.1-9.6 7.5-26.4 7.7-30.8 0-.7.1-1.1.1-1.1l10.7-12.8s103.4-7.8 111.1 0c1.9 1.9 3.1 6.2 3.8 11.7 2.1 16.8-.3 44.1-.3 44.1s-3.1 20.3-7.5 41c-2.7 12.4-2.7 25.2 0 37.7-1.5 14.5-.1 29.1 4 43.2z" fill="#65617d"/><path d="M970.7 802.2c-4.6 6.1-31.8 3.5-36.4 1.6-2.8-1.2-2.6-6.5-1.8-11.9.5-3.5 1.2-7 1.5-9.6.7-6.7-2.2-20.1-2.2-20.1s6.1 6.5 7.6 0c.7-2.8 2.9-4.3 5.3-5 3.2-1 6.6-.7 9.6.6 4.8 2.1 12.8 6.5 11.4 12.5-2 8.5 5.2 20.5 5.2 20.5.6.7 1 1.5 1.3 2.3 1.1 3 .6 6.5-1.5 9.1z" fill="#a27772"/><path d="M970.7 802.2c-4.6 6.1-31.8 3.5-36.4 1.6-2.8-1.2-2.6-6.5-1.8-11.9 2.9 1.4 7.9 2.5 16.1 1.7 1.9-.2 3.9-.2 5.8-.2 5.9.3 11.8.2 17.6-.3 1.3 3 .8 6.5-1.3 9.1zM876 647.6c1.8 24-.4 60.9-7.8 80.9-4.5 12.7-6.4 26.1-5.5 39.5-2.6 2.2-6.2 2.5-10 1.9 2.2-15.6 11.7-82.7 17.8-135.7 6.9-60.4 39.3-101.9 39.3-101.9l6.5 7.1c-17.8 9.3-40.3 108.2-40.3 108.2z" opacity=".1"/><path d="M959.6 259.6l-4.5 22.1-22.1 37.1-27.2-11.6s-37-38.8-13.8-44.3c2.8-.6 5.4-1.8 7.7-3.4 4.6-3.4 6-8.5 6-13.4 0-8.1-3.8-15.9-3.8-15.9l47.6-15c-2 6.3-3.1 12.7-3.4 19.3-.4 13 4.5 19.4 8.4 22.4 1.6 1.2 3.3 2.1 5.1 2.7z" fill="#fbbebe"/><path d="M949.6 215.3c-2 6.3-3.1 12.7-3.4 19.3-.9 1-1.8 2-2.8 2.9-10 9.6-24.5 12.9-37.7 8.6 0-8.1-3.8-15.9-3.8-15.9l47.7-14.9z" opacity=".1"/><path d="M955.1 209.2c0 20.8-16.9 37.7-37.7 37.6-20.8 0-37.7-16.9-37.6-37.7 0-20.8 16.9-37.7 37.7-37.6 20.7-.1 37.6 16.7 37.6 37.4v.3z" fill="#fbbebe"/><path d="M959.6 259.6l-4.5 22.1-22.1 37.1-27.2-11.6s-37-38.8-13.8-44.3c2.8-.6 5.4-1.8 7.7-3.4-4.2 11.5 13.1 35.6 13.1 35.6 2 3 6.7 1.1 6.7 1.1 11.2-1.7 31.7-33.8 35.1-39.1 1.5 1 3.2 1.9 5 2.5zm21.3 214.8c-6.6 1.5-42.8 9.5-56.6 7.5-15.1-2.2-44.6-3.7-44.6-3.7s-18.7 1-24.5-1.6c0-.7.1-1.1.1-1.1l10.7-12.8s103.4-7.8 111.2 0c1.9 1.9 3 6.2 3.7 11.7z" opacity=".1"/><path d="M912.9 296.1s-19.5-27-12.1-37.5l-32.9 13.5s-19.8-2.4-27 27.2c-1.1 4.9-1.6 10-1.2 15 .3 4.5-.3 12.3-5.4 22.5-8.1 16.3-6.3 53.5 10.3 57.2s22.5 1.8 22.5 1.8-2.2 67.6-11.8 75.3 24.5 5.9 24.5 5.9 29.4 1.5 44.6 3.7 57.6-7.8 57.6-7.8-6.3-28.4-8.5-46.5-7.4-56.6-7.4-56.6l37.7-51s6.6-30.8-16.6-44.5-32-17-32-17-23.3 38-35.5 39.9c-.2 0-4.8 1.9-6.8-1.1z" fill="#ffaf10"/><path d="M869.7 306.8s-.4 12.2 1.8 17 10.3 31.4 10.3 31.4h-18.5s10-10.7 9.2-15.9-2.8-32.5-2.8-32.5z" opacity=".1"/><path d="M924.3 398.8s-40.8-10-44.6-18.5-14.3-27.5-14.3-27.5l4.3-5.8 19.8 15.6s23.6 18.8 34.7 20.7.1 15.5.1 15.5z" fill="#fbbebe"/><path d="M924.3 398.8s-40.8-10-44.6-18.5-14.3-27.5-14.3-27.5l4.3-5.8 19.8 15.6s23.6 18.8 34.7 20.7.1 15.5.1 15.5z" opacity=".05"/><path d="M959.6 350.8v22.1H956c-17.6 0-34.8 4.5-50.2 13l-6.7 3.7-1.8 1-11.5-25.8 10.7-9.6h.5c2.6.3 14 1.2 18.8-.4 4.6-1.5 10.2-6.5 23.7-3 6.6 1.7 12.3 9.1 18.7 6.8l1.4-7.8z" fill="#fbbebe"/><path d="M995.2 310.5l7.4 8.3V339s-6.3 63.5-26.2 70.5-55.5-4.1-55.5-4.1-9.2-24.4-4.9-25.8 38-10.4 38-10.4-.5-37.3 6.9-48.3c0 0-4.8-34.7 11.8-35.4s22.5 25 22.5 25z" opacity=".1"/><path d="M996.3 310.5l7.4 8.3V339s-6.3 63.5-26.3 70.5-55.5-4.1-55.5-4.1-9.2-24.4-4.9-25.8 38-10.4 38-10.4-.5-37.3 6.9-48.3c0 0-4.8-34.7 11.8-35.4 16.7-.8 22.6 25 22.6 25z" fill="#ffaf10"/><path d="M944.8 225.2c.2-2.4.2-5-.8-7.2s-3.5-3.9-5.9-3.4c-3.2.7-4.5 4.9-7.6 5.8-2.6.8-5.5-1-6.7-3.5s-1.3-5.3-1.3-8v-9.3c0-3.4-.1-7-2.2-9.6-2.6-3.3-8.6-4.7-12.7-4.6-2.7 0-5.3 1.1-7.2 2.9-2.2 1.8-4.7 3.2-7.6 2.7-2.5-.4-4.6-2.2-5.3-4.6v-.1c12.6-16.6 36.2-19.9 52.8-7.3s19.9 36.2 7.3 52.8c-1.2 1.6-2.6 3.1-4.1 4.5.6-3.6 1.1-7.4 1.3-11.1z" opacity=".1"/><path d="M892.8 190c-2.5-.4-4.6-2.2-5.3-4.6-.3-1.2-.2-2.5-.6-3.6-.9-2.9-4-4.4-6-6.6-4.2-4.4-3.9-11.7-.9-17 2.4-4.3 7-7.9 11.8-7.1 3 .5 5.6 2.6 8.6 2.8s5.6-1.4 8.2-2.7c6.4-2.9 13.6-3.5 20.4-1.8 2.1.4 4 1.4 5.6 2.8 1.1 1.4 2.1 2.8 3 4.2 3.5 4.4 9.6 5.3 15.1 6.2s11.7 3.2 13.5 8.4c1.2 3.5 0 7.3-.7 10.9-.2.7-.2 1.5.1 2.3.9 1.4 3 .8 4.6 1.2 3.1.6 3.9 4.7 4 7.8l.3 10.9c.4 3.4-.9 6.8-3.5 9.1l-12 14.9c-5.4 6.5-11.2 14.1-10.1 22.5-2.6 1.1-5.6-1.1-6.4-3.8s-.2-5.6.4-8.3c1-4.8 1.6-9.6 1.9-14.4.2-2.4.2-5-.8-7.2s-3.5-4-5.9-3.4c-3.2.7-4.5 4.9-7.6 5.8-2.6.8-5.5-1-6.7-3.5s-1.3-5.3-1.3-8v-9.3c0-3.4-.1-7-2.2-9.6-2.6-3.3-8.6-4.7-12.7-4.6-2.7 0-5.3 1.1-7.2 2.9-2.2 1.9-4.7 3.3-7.6 2.8z" fill="#7c5c5c"/><path d="M901.3 305.9l11.6 47.5c-.1 0 9 0-11.6-47.5zm39.5-7.9s-15.1 24.8-9.2 50.4l2.8.2s-5.1-11.9 6.4-50.6zm9.6 140.3s18.6-6.1 19.9 8.1c0 0-3.5-9.8-19.9-8.1zm-53.8-81.9s-3.7 25.9 3 36.2c0 0-13.5 5.5-32.5 4.4l-2.3-40.6h31.8z" opacity=".1"/><path d="M899.2 389.6l-1.8 1-11.5-25.8 10.7-9.6h.5c-.1 1.2-3.1 23.4 2.1 34.4z" opacity=".1"/><path d="M896.6 355.2s-3.7 25.8 3 36.2c0 0-13.5 5.5-32.5 4.4l-12.9-40.6h42.4z" fill="#ffaf10"/><path d="M864.7 786.5c-.4 3.8-3.4 6.8-7.2 7.3-10 1.5-34.2 5.3-40.3 8.2-7.8 3.7-38.4 1.1-39.9-2.6-.4-1.5-.2-3.1.5-4.4 1.1-2.3 2.8-4.1 5-5.3.7-.4 1.4-.7 2.2-1 5.8-1.9 16.7-6 19.6-10.3 0 0 13.6-11.9 17.5-18.3 1.5-2.6 4.1-4.2 7.1-4.4 3.2-.2 6.8 1.5 8.3 8.6 0 0 17.7 10.1 22.5 1.2 0 0 .7 13.6 3.7 17.3.9 1 1.2 2.4 1 3.7z" fill="#a27772"/><path d="M864.7 786.5c-.4 3.8-3.4 6.8-7.2 7.3-10 1.5-34.2 5.3-40.3 8.2-7.8 3.7-38.4 1.1-39.9-2.6-.4-1.5-.2-3.1.5-4.4 1.1-2.3 2.8-4.1 5-5.3 5 3.3 16.1 6.6 40.5 2.8 23.3-3.6 34.8-7.2 40.4-9.6.9.9 1.2 2.3 1 3.6zm100.8-603.8v-.2c.5-2.8 1.3-5.6 1.1-8.4-.2 2.3-.6 4.5-1.1 6.7-.2.6-.2 1.2 0 1.9zm-21.6 34.5c.6 1.3.9 2.8.9 4.2.2-2-.1-4-.9-5.9-1-2.2-3.5-3.9-5.8-3.4-3.2.7-4.5 4.9-7.6 5.8-2.6.8-5.5-1-6.7-3.5s-1.3-5.3-1.3-8v-9.3c0-3.4-.1-7-2.2-9.6-2.6-3.3-8.6-4.7-12.7-4.6-2.7 0-5.3 1.1-7.2 2.9-2.2 1.8-4.7 3.2-7.6 2.7-2.5-.4-4.6-2.2-5.3-4.6-.3-1.2-.2-2.5-.6-3.6-.9-2.9-4-4.4-6-6.6-1.9-2.1-3-4.9-3.1-7.8-.3 3.5.8 6.9 3.1 9.5 2.1 2.2 5.2 3.7 6 6.6.3 1.2.3 2.4.6 3.6.7 2.4 2.8 4.2 5.3 4.6 3 .5 5.4-.9 7.6-2.7 2-1.8 4.5-2.9 7.2-2.9 4-.1 10.1 1.3 12.7 4.6 2.1 2.6 2.2 6.3 2.2 9.6v9.3c0 2.7 0 5.6 1.3 8s4.1 4.3 6.7 3.5c3.1-1 4.5-5.1 7.6-5.8 2.4-.5 4.8 1.2 5.8 3.4zm30.4-10.2c-.7 1.9-1.7 3.6-3.1 5.1-4.1 4.9-8.1 9.8-12.2 14.7-5.1 6.2-10.6 13.3-10.2 21.2.4-7.2 5.4-13.8 10.2-19.5l12.2-14.6c1.4-1.5 2.5-3.2 3.1-5.1.3-1.3.4-2.7.3-4 0 .7-.1 1.5-.3 2.2zm-31.8 38.5c-.2-.7-.3-1.3-.4-2-.1 1.2 0 2.5.4 3.6.8 2.7 3.9 4.9 6.5 3.7-.1-.5-.1-1.1-.1-1.6-2.7 1.1-5.6-1.1-6.4-3.7zM819.7 763.3s3.9 6.8 17.8.8m100.5.9s12.1 14.2 27.3 4.7m7.8-172.7s-8.5 5.3-8.8 8.4 4.4-2.2 4.4-2.2l4.4-6.2zm3.4 40.9c-3 2.5-6.6 3.9-10.5 4.1-6.4.3-5.8 8.6-1.7 6.1 4.2-2.5 12.2-10.2 12.2-10.2zm1.6 5.3s-4.1 20.1-7.4 16.2" opacity=".1"/><path d="M136.8 736.7s5.5 7.2-2.5 18-14.6 20-12 26.8c0 0 12.1-20.1 22-20.4s3.3-12.3-7.5-24.4z" fill="#4285f4"/><path d="M136.8 736.7c.5.7.9 1.4 1.1 2.3 9.6 11.3 14.8 21.8 5.5 22.1-8.6.2-19 15.7-21.4 19.5l.3.9s12.1-20.1 22-20.4 3.3-12.3-7.5-24.4z" opacity=".1"/><path d="M147 745.9c0 2.5-.3 4.6-.6 4.6s-.6-2-.6-4.6.4-1.3.7-1.3.5-1.3.5 1.3z" fill="#ffaf10"/><path d="M150.5 748.9c-2.2 1.2-4.2 1.9-4.3 1.6s1.5-1.5 3.7-2.8 1.3-.3 1.5 0 1.3 0-.9 1.2z" fill="#ffaf10"/><path d="M107.7 736.7s-5.5 7.2 2.5 18 14.6 20 12 26.8c0 0-12.1-20.1-22-20.4s-3.3-12.3 7.5-24.4z" fill="#4285f4"/><path d="M107.7 736.7c-.5.7-.9 1.5-1.1 2.3-9.6 11.3-14.8 21.8-5.5 22.1 8.6.2 19 15.7 21.4 19.5l-.3.9s-12.1-20.1-22-20.4-3.3-12.3 7.5-24.4z" opacity=".1"/><path d="M97.5 745.9c0 2.5.3 4.6.6 4.6s.6-2 .6-4.6-.4-1.3-.7-1.3-.5-1.3-.5 1.3z" fill="#ffaf10"/><path d="M94 748.9c2.2 1.2 4.1 1.9 4.3 1.6s-1.5-1.5-3.7-2.8-1.3-.3-1.5 0-1.3 0 .9 1.2z" fill="#ffaf10"/><path d="M99.3 780.6s15.4-.5 20-3.8 23.6-7.2 24.8-1.9 23.1 26.3 5.7 26.4-40.3-2.7-44.9-5.5-5.6-15.2-5.6-15.2z" fill="#a8a8a8"/><path d="M150.1 799.4c-17.3.1-40.3-2.7-44.9-5.5-3.5-2.1-4.9-9.8-5.4-13.4h-.5s1 12.4 5.6 15.2 27.6 5.7 44.9 5.5c5 0 6.7-1.8 6.6-4.5-.7 1.7-2.6 2.7-6.3 2.7z" opacity=".2"/></svg>